<?xml version="1.0" encoding="UTF-8"?>
<svg xmlns="http://www.w3.org/2000/svg" version="1.1" viewBox="0 0 198.4 198.4">
  <defs>
    <style>
      .cls-1 {
        stroke-width: 0px;
      }

      .cls-1, .cls-2, .cls-3, .cls-4, .cls-5, .cls-6, .cls-7, .cls-8, .cls-9, .cls-10, .cls-11, .cls-12, .cls-13, .cls-14, .cls-15, .cls-16, .cls-17, .cls-18, .cls-19, .cls-20, .cls-21, .cls-22, .cls-23, .cls-24, .cls-25, .cls-26 {
        stroke: #000;
      }

      .cls-1, .cls-3, .cls-5, .cls-8, .cls-27, .cls-28, .cls-11, .cls-12, .cls-13, .cls-14, .cls-16, .cls-21, .cls-23, .cls-24 {
        fill: none;
      }

      .cls-2, .cls-9, .cls-18, .cls-29 {
        fill: #ad1519;
      }

      .cls-2, .cls-27, .cls-12, .cls-14, .cls-15, .cls-23, .cls-26 {
        stroke-width: 0px;
      }

      .cls-30 {
        fill: #ccc;
      }

      .cls-30, .cls-31, .cls-32, .cls-28, .cls-33, .cls-34, .cls-35, .cls-36, .cls-37, .cls-38, .cls-29, .cls-39 {
        stroke-width: 0px;
      }

      .cls-3 {
        stroke-width: 0px;
      }

      .cls-31 {
        fill: #aa151b;
      }

      .cls-32 {
        fill: #000;
      }

      .cls-4, .cls-10, .cls-11, .cls-17, .cls-18, .cls-21, .cls-25 {
        stroke-width: 0px;
      }

      .cls-4, .cls-34, .cls-20 {
        fill: #058e6e;
      }

      .cls-5 {
        stroke-width: 0px;
      }

      .cls-6, .cls-7, .cls-9, .cls-16, .cls-19, .cls-20, .cls-22 {
        stroke-width: 0px;
      }

      .cls-6, .cls-10, .cls-36, .cls-22, .cls-26 {
        fill: #c8b100;
      }

      .cls-7 {
        fill: #c7b500;
      }

      .cls-8 {
        stroke-width: 0px;
      }

      .cls-27 {
        stroke: #c8b100;
      }

      .cls-13 {
        stroke-width: 0px;
      }

      .cls-14, .cls-21, .cls-22 {
        stroke-linejoin: round;
      }

      .cls-15, .cls-37 {
        fill: #005bbf;
      }

      .cls-33 {
        fill: #0039f0;
      }

      .cls-17, .cls-38 {
        fill: #fff;
      }

      .cls-35 {
        fill: #f1bf00;
      }

      .cls-19 {
        fill: #ffd691;
      }

      .cls-23 {
        stroke-linecap: round;
      }

      .cls-24 {
        stroke-width: 0px;
      }

      .cls-39 {
        fill: #db4446;
      }

      .cls-25 {
        fill: #ed72aa;
      }
    </style>
  </defs>
  <g id="Ebene_1" data-name="Ebene 1" shape-rendering="crispEdges">
    <rect class="cls-32" y="0" width="198.4" height="198.4"/>
    <rect class="cls-38" x="33.1" y="66.1" width="49.6" height="33.1"/>
    <rect class="cls-38" x="33.1" y="66.1" width="33.1" height="49.6"/>
    <rect class="cls-38" x="66.1" y="66.1" width="49.6" height="33.1"/>
    <rect class="cls-38" x="99.2" y="66.1" width="49.6" height="33.1"/>
    <rect class="cls-38" x="132.3" y="66.1" width="33.1" height="33.1"/>
    <rect class="cls-38" x="132.3" y="66.1" width="33.1" height="49.6"/>
    <rect class="cls-38" x="33.1" y="99.2" width="33.1" height="33.1"/>
    <rect class="cls-38" x="33.1" y="99.2" width="33.1" height="49.6"/>
    <rect class="cls-38" x="132.3" y="99.2" width="33.1" height="33.1"/>
    <rect class="cls-38" x="33.1" y="132.3" width="33.1" height="33.1"/>
    <rect class="cls-38" x="99.2" y="132.3" width="33.1" height="33.1"/>
    <g>
      <path class="cls-31" d="M0,0h33.1v33.1H0V0Z"/>
      <path class="cls-35" d="M0,8.3h33.1v16.5H0V8.3Z"/>
      <path class="cls-29" d="M11.1,14.7s0,0,0,0c0,0,0,0,0,0h0s0,0,0,0c0,0,0,0,0-.1,0,0,0,0,0-.1s.1,0,.1,0h0s0,0,0,0h0s0,0,0,0h0s.1,0,.1,0h.3c0,0,.2,0,.2,0,0,0,.1,0,.2,0,0,0,0,0,0,0,0,0,0,0,0,0h0c0,0,0,.1,0,.1h0c0,0,0,.1,0,.1,0,0,0,0,0,0s-.3,0-.5,0-.5,0-.5,0"/>
      <path class="cls-14" d="M11.1,14.7s0,0,0,0c0,0,0,0,0,0h0s0,0,0,0c0,0,0,0,0-.1,0,0,0,0,0-.1s.1,0,.1,0h0s0,0,0,0h0s0,0,0,0h0s.1,0,.1,0h.3c0,0,.2,0,.2,0,0,0,.1,0,.2,0,0,0,0,0,0,0,0,0,0,0,0,0h0c0,0,0,.1,0,.1h0c0,0,0,.1,0,.1,0,0,0,0,0,0s-.3,0-.5,0-.5,0-.5,0Z"/>
      <path class="cls-36" d="M11.5,14.3c0,0,0-.2,0-.2s0,0,0,.2,0,.2,0,.2,0,0,0-.2"/>
      <path class="cls-12" d="M11.5,14.3c0,0,0-.2,0-.2s0,0,0,.2,0,.2,0,.2,0,0,0-.2Z"/>
      <path class="cls-36" d="M11.6,14.3c0,0,0-.2,0-.2s0,0,0,.2,0,.1,0,.1,0,0,0-.1"/>
      <path class="cls-12" d="M11.6,14.3c0,0,0-.2,0-.2s0,0,0,.2,0,.1,0,.1,0,0,0-.1Z"/>
      <path class="cls-36" d="M11.5,14.1s0,0,0,0,0,0,0,0,0,0,0,0,0,0,0,0"/>
      <path class="cls-36" d="M11.6,14.1h0s0,0,0,0h0s0,0,0,0h0c0,0,0,0,0,0h0s0,0,0,0h0s0,0,0,0h0s0,0,0,0h0s0,0,0,0h0c0,0,0,0,0,0Z"/>
      <path class="cls-12" d="M11.6,14.1h0s0,0,0,0h0s0,0,0,0h0c0,0,0,0,0,0h0s0,0,0,0h0s0,0,0,0h0s0,0,0,0h0s0,0,0,0h0c0,0,0,0,0,0"/>
      <path class="cls-36" d="M11.7,14.1h0s-.2,0-.2,0h0s0,0,0,0h0c0,0,0,0,0,0h0s0,0,0,0h0s0,0,0,0h0s0,0,0,0h0s0,0,0,0h0c0,0,0,0,0,0Z"/>
      <path class="cls-12" d="M11.7,14.1h0s-.2,0-.2,0h0s0,0,0,0h0c0,0,0,0,0,0h0s0,0,0,0h0s0,0,0,0h0s0,0,0,0h0s0,0,0,0h0c0,0,0,0,0,0"/>
      <path class="cls-12" d="M11.6,14s0,0,0,0c0,0,0,0,0,0s0,0,0,0,0,0,0,0"/>
      <path class="cls-36" d="M11.6,14.7h-.3c0,0,0-.2,0-.2h0c0-.2-.2-.3-.2-.3,0,0,0,0,0,0,0,0,.2,0,.4.3h0s.3,0,.3,0h0c.1-.2.3-.3.4-.3,0,0,0,0,0,0,0,0-.1,0-.2.2h0c0,.1,0,.2,0,.2h0c0,0-.3,0-.3,0Z"/>
      <path class="cls-12" d="M11.6,14.7h-.3c0,0,0-.2,0-.2h0c0-.2-.2-.3-.2-.3,0,0,0,0,0,0,0,0,.2,0,.4.3h0s.3,0,.3,0h0c.1-.2.3-.3.4-.3,0,0,0,0,0,0,0,0-.1,0-.2.2h0c0,.1,0,.2,0,.2h0c0,0-.3,0-.3,0Z"/>
      <path class="cls-12" d="M11.1,14.2c0,0,.2,0,.3.2M12.1,14.2c0,0-.2,0-.3.2"/>
      <path class="cls-36" d="M11.1,14.8s0,0,0,0c.1,0,.3,0,.5,0s.4,0,.5,0h0c0,0,0,.1,0,.1-.1,0-.3,0-.5,0s-.4,0-.5,0h0Z"/>
      <path class="cls-12" d="M11.1,14.8s0,0,0,0c.1,0,.3,0,.5,0s.4,0,.5,0h0c0,0,0,.1,0,.1-.1,0-.3,0-.5,0s-.4,0-.5,0h0"/>
      <path class="cls-36" d="M11.6,15c.1,0,.3,0,.4,0,0,0,0,0,0,0,0,0,0,0,0,0-.1,0-.3,0-.5,0-.2,0-.3,0-.4,0,0,0,0,0,0,0,0,0,0,0,0,0,0,0,.2,0,.4,0"/>
      <path class="cls-12" d="M11.6,15c.1,0,.3,0,.4,0,0,0,0,0,0,0,0,0,0,0,0,0-.1,0-.3,0-.5,0-.2,0-.3,0-.4,0,0,0,0,0,0,0,0,0,0,0,0,0,0,0,.2,0,.4,0Z"/>
      <path class="cls-36" d="M12.1,14.7h0s0,0,0,0,0,0,0,0c0,0,0,0,0,0,0,0,0,0,0,0,0,0,0,0,0,0s0,0,0,0c0,0,0,0,0,0,0,0,0,0,0,0,0,0,0,0,0,0,0,0-.1,0-.1,0,0,0,0,0,0,0,0,0,0,0,0,0h0s0,0,0,0h0c.3,0,.7,0,1,0h0Z"/>
      <path class="cls-12" d="M12.1,14.7h0s0,0,0,0,0,0,0,0c0,0,0,0,0,0,0,0,0,0,0,0,0,0,0,0,0,0s0,0,0,0c0,0,0,0,0,0,0,0,0,0,0,0,0,0,0,0,0,0,0,0-.1,0-.1,0,0,0,0,0,0,0,0,0,0,0,0,0h0s0,0,0,0h0c.3,0,.7,0,1,0h0Z"/>
      <path class="cls-36" d="M11.6,14.5h0s0,0,0,0c0,0,0,0,0,0,0,0,0,0,0,0h0s0,0,0,0c0,0,0,0,0,0s0,0,0,0h0s0,0,0,0h0s0,0,0,0c0,0,0,0,0,0s0,0,0,0h0s0,0,0,0c0,0,0,0,0,0,0,0,0,0,0,0h0c0,0,0,0,0,0,0,0,0,0,0,0h0s0,0,0,0c0,0,0,0,0,0,0,0,0,0,0,0,0,0,0,0,0,0,0,0,0,0,0,0,0,0,0,0,0,0,0,0,0,0,0,0,0,0,0,0,0,0,0,0,0,0,0,0,0,0,0,0,0,0,0,0,0,0,0,0,0,0,0,0,0,0s0,0,0,0c0,0,0,0,0,0,0,0,0,0,0,0,0,0,0,0,0,0h0s0,0,0,0c0,0,0,0,0,0,0,0,0,0,0,0h0s0,0,0,0c0,0,0,0,0,0s0,0,0,0c0,0,0,0,0,0h0s0,0,0,0c0,0,0,0,0,0s0,0,0,0h0s0,0,0,0c0,0,0,0,0,0s0,0,0,0c0,0,0,0,0,0h0Z"/>
      <path class="cls-12" d="M11.6,14.5h0s0,0,0,0c0,0,0,0,0,0,0,0,0,0,0,0h0s0,0,0,0c0,0,0,0,0,0s0,0,0,0h0s0,0,0,0h0s0,0,0,0c0,0,0,0,0,0s0,0,0,0h0s0,0,0,0c0,0,0,0,0,0,0,0,0,0,0,0h0c0,0,0,0,0,0,0,0,0,0,0,0h0s0,0,0,0c0,0,0,0,0,0,0,0,0,0,0,0,0,0,0,0,0,0,0,0,0,0,0,0,0,0,0,0,0,0,0,0,0,0,0,0,0,0,0,0,0,0,0,0,0,0,0,0,0,0,0,0,0,0,0,0,0,0,0,0,0,0,0,0,0,0s0,0,0,0c0,0,0,0,0,0,0,0,0,0,0,0,0,0,0,0,0,0h0s0,0,0,0c0,0,0,0,0,0,0,0,0,0,0,0h0s0,0,0,0c0,0,0,0,0,0s0,0,0,0c0,0,0,0,0,0h0s0,0,0,0c0,0,0,0,0,0s0,0,0,0h0s0,0,0,0c0,0,0,0,0,0s0,0,0,0c0,0,0,0,0,0h0Z"/>
      <path class="cls-36" d="M11.6,14.7c-.2,0-.4,0-.5,0h0s0,0,0,0c.1,0,.3,0,.5,0s.4,0,.5,0h0s0,0,0,0c-.1,0-.3,0-.5,0"/>
      <path class="cls-14" d="M11.6,14.7c-.2,0-.4,0-.5,0h0s0,0,0,0c.1,0,.3,0,.5,0s.4,0,.5,0h0s0,0,0,0c-.1,0-.3,0-.5,0h0Z"/>
      <path class="cls-38" d="M11.4,14.8s0,0,0,0,0,0,0,0,0,0,0,0,0,0,0,0"/>
      <path class="cls-12" d="M11.4,14.8s0,0,0,0,0,0,0,0,0,0,0,0,0,0,0,0Z"/>
      <path class="cls-29" d="M11.6,14.8h0s0,0,0,0h0s0,0,0,0h.1s0,0,0,0c0,0,0,0,0,0,0,0,0,0,0,0,0,0,0,0,0,0h0Z"/>
      <path class="cls-12" d="M11.6,14.8h0s0,0,0,0h0s0,0,0,0h.1s0,0,0,0c0,0,0,0,0,0,0,0,0,0,0,0,0,0,0,0,0,0h0"/>
      <path class="cls-34" d="M11.3,14.8h0s0,0,0,0c0,0,0,0,0,0h0s0,0,0,0c0,0,0,0,0,0,0,0,0,0,0,0h0"/>
      <path class="cls-12" d="M11.3,14.8h0s0,0,0,0c0,0,0,0,0,0h0s0,0,0,0c0,0,0,0,0,0,0,0,0,0,0,0h0"/>
      <path class="cls-29" d="M11.1,14.8h0s0,0,0,0h0s0,0,0,0Z"/>
      <path class="cls-12" d="M11.1,14.8h0s0,0,0,0h0s0,0,0,0"/>
      <path class="cls-38" d="M11.7,14.8s0,0,0,0c0,0,0,0,0,0s0,0,0,0,0,0,0,0"/>
      <path class="cls-12" d="M11.7,14.8s0,0,0,0c0,0,0,0,0,0s0,0,0,0,0,0,0,0Z"/>
      <path class="cls-34" d="M11.9,14.8h0s0,0,0,0c0,0,0,0,0,0h0s0,0,0,0c0,0,0,0,0,0,0,0,0,0,0,0h0Z"/>
      <path class="cls-12" d="M11.9,14.8h0s0,0,0,0c0,0,0,0,0,0h0s0,0,0,0c0,0,0,0,0,0,0,0,0,0,0,0h0"/>
      <path class="cls-29" d="M12.1,14.8h0s0,0,0,0h0s0,0,0,0"/>
      <path class="cls-12" d="M12.1,14.8h0s0,0,0,0h0s0,0,0,0"/>
      <path class="cls-29" d="M11.6,15c-.2,0-.3,0-.4,0,.1,0,.3,0,.4,0,.2,0,.3,0,.4,0-.1,0-.3,0-.4,0"/>
      <path class="cls-14" d="M11.6,15c-.2,0-.3,0-.4,0,.1,0,.3,0,.4,0,.2,0,.3,0,.4,0-.1,0-.3,0-.4,0Z"/>
      <path class="cls-36" d="M12.1,14.6s0,0,0,0c0,0,0,0,0,0,0,0,0,0,0,0,0,0,0,0,0,0"/>
      <path class="cls-12" d="M12.1,14.6s0,0,0,0c0,0,0,0,0,0,0,0,0,0,0,0,0,0,0,0,0,0Z"/>
      <path class="cls-36" d="M11.8,14.5s0,0,0,0c0,0,0,0,0,0s0,0,0,0c0,0,0,0,0,0"/>
      <path class="cls-12" d="M11.8,14.5s0,0,0,0c0,0,0,0,0,0s0,0,0,0c0,0,0,0,0,0Z"/>
      <path class="cls-36" d="M11.4,14.5s0,0,0,0c0,0,0,0,0,0s0,0,0,0h0Z"/>
      <path class="cls-12" d="M11.4,14.5s0,0,0,0c0,0,0,0,0,0s0,0,0,0h0Z"/>
      <path class="cls-36" d="M11.1,14.6s0,0,0,0,0,0,0,0c0,0,0,0,0,0,0,0,0,0,0,0"/>
      <path class="cls-12" d="M11.1,14.6s0,0,0,0,0,0,0,0c0,0,0,0,0,0,0,0,0,0,0,0Z"/>
      <path class="cls-36" d="M11.6,14.4h0s0,.1,0,.1h0s0,0,0,0h0c0,0,0-.1,0-.1"/>
      <path class="cls-12" d="M11.6,14.4h0s0,.1,0,.1h0s0,0,0,0h0c0,0,0-.1,0-.1"/>
      <path class="cls-36" d="M11.5,14.5h0s0,0,0,0h0s0,0,0,0h0s0,0,0,0Z"/>
      <path class="cls-12" d="M11.5,14.5h0s0,0,0,0h0s0,0,0,0h0s0,0,0,0"/>
      <path class="cls-36" d="M11.7,14.5h0s0,0,0,0h0s0,0,0,0h0s0,0,0,0Z"/>
      <path class="cls-12" d="M11.7,14.5h0s0,0,0,0h0s0,0,0,0h0s0,0,0,0"/>
      <path class="cls-36" d="M11.2,14.4h0s0,.1,0,.1h0s0,0,0,0h0c0,0,0-.1,0-.1Z"/>
      <path class="cls-12" d="M11.2,14.4h0s0,.1,0,.1h0s0,0,0,0h0c0,0,0-.1,0-.1"/>
      <path class="cls-36" d="M11.1,14.6h0s0,0,0,0h0s0,0,0,0h0Z"/>
      <path class="cls-12" d="M11.1,14.6h0s0,0,0,0h0s0,0,0,0h0"/>
      <path class="cls-36" d="M11.4,14.5h0s0,0,0,0h0s0,0,0,0h0s0,0,0,0Z"/>
      <path class="cls-12" d="M11.4,14.5h0s0,0,0,0h0s0,0,0,0h0s0,0,0,0"/>
      <path class="cls-36" d="M11,14.6h0s0,0,0,0h0s0,0,0,0h0Z"/>
      <path class="cls-12" d="M11,14.6h0s0,0,0,0h0s0,0,0,0h0"/>
      <path class="cls-36" d="M11.2,14.5s0,0,0,0,0,0,0,0,0,0,0,0,0,0,0,0"/>
      <path class="cls-12" d="M11.2,14.5s0,0,0,0,0,0,0,0,0,0,0,0,0,0,0,0h0Z"/>
      <path class="cls-36" d="M12,14.4h0s0,.1,0,.1h0s0,0,0,0h0c0,0,0-.1,0-.1Z"/>
      <path class="cls-12" d="M12,14.4h0s0,.1,0,.1h0s0,0,0,0h0c0,0,0-.1,0-.1"/>
      <path class="cls-36" d="M12.1,14.6h0s0,0,0,0h0s0,0,0,0h.1Z"/>
      <path class="cls-12" d="M12.1,14.6h0s0,0,0,0h0s0,0,0,0h.1"/>
      <path class="cls-36" d="M11.8,14.5h0s0,0,0,0h0s0,0,0,0h0s0,0,0,0Z"/>
      <path class="cls-12" d="M11.8,14.5h0s0,0,0,0h0s0,0,0,0h0s0,0,0,0"/>
      <path class="cls-36" d="M12.1,14.6h0s0,0,0,0h0s0,0,0,0h0Z"/>
      <path class="cls-12" d="M12.1,14.6h0s0,0,0,0h0s0,0,0,0h0"/>
      <path class="cls-36" d="M11.6,14.5s0,0,0,0c0,0,0,0,0,0,0,0,0,0,0,0,0,0,0,0,0,0,0,0,0,0,0,0"/>
      <path class="cls-12" d="M11.6,14.5s0,0,0,0c0,0,0,0,0,0,0,0,0,0,0,0,0,0,0,0,0,0,0,0,0,0,0,0h0Z"/>
      <path class="cls-36" d="M11.9,14.5s0,0,0,0c0,0,0,0,0,0,0,0,0,0,0,0s0,0,0,0,0,0,0,0"/>
      <path class="cls-12" d="M11.9,14.5s0,0,0,0c0,0,0,0,0,0,0,0,0,0,0,0s0,0,0,0,0,0,0,0h0Z"/>
      <path class="cls-36" d="M10.9,14.6h0c0,0,0,0,0,0,0,0,0,0,0,0h0s0,0,0,0c0,0,0,0,0,0h0"/>
      <path class="cls-12" d="M10.9,14.6h0c0,0,0,0,0,0,0,0,0,0,0,0h0s0,0,0,0c0,0,0,0,0,0h0c0,0,0,0,0,0Z"/>
      <path class="cls-36" d="M10.9,14.6h0s0,0,0,0,0,0,0,0c0,0,0,0,0,0"/>
      <path class="cls-12" d="M10.9,14.6h0s0,0,0,0,0,0,0,0c0,0,0,0,0,0h0Z"/>
      <path class="cls-36" d="M12.3,14.6h0c0,0,0,0,0,0,0,0,0,0,0,0,0,0,0,0,0,0h0s0,0,0,0h0s0,0,0,0Z"/>
      <path class="cls-12" d="M12.3,14.6h0c0,0,0,0,0,0,0,0,0,0,0,0,0,0,0,0,0,0h0s0,0,0,0h0s0,0,0,0Z"/>
      <path class="cls-36" d="M12.3,14.6h0s0,0,0,0h0s0,0,0,0"/>
      <path class="cls-12" d="M12.3,14.6h0s0,0,0,0h0s0,0,0,0h0Z"/>
      <path class="cls-36" d="M10.9,15.4h1.5v-.4h-1.5v.4Z"/>
      <path class="cls-11" d="M10.9,15.4h1.5v-.4h-1.5v.4Z"/>
      <path class="cls-36" d="M11,15.6h0s1.1,0,1.1,0c0,0,0,0,0,0s0,0,0,0c0,0,0,0,0,0h-1.1s0,0,0,0c0,0,0,0,0,0s0,0,0,0"/>
      <path class="cls-21" d="M11,15.6h0s1.1,0,1.1,0c0,0,0,0,0,0s0,0,0,0c0,0,0,0,0,0h-1.1s0,0,0,0c0,0,0,0,0,0s0,0,0,0h0Z"/>
      <path class="cls-36" d="M11,15.6h1.1s0,0,0,0,0,0,0,0h-1.1s0,0,0,0,0,0,0,0"/>
      <path class="cls-11" d="M11,15.6h1.1s0,0,0,0,0,0,0,0h-1.1s0,0,0,0,0,0,0,0h0Z"/>
      <path class="cls-36" d="M11,15.4h1.1s0,0,0,0,0,0,0,0h-1.1s0,0,0,0,0,0,0,0"/>
      <path class="cls-11" d="M11,15.4h1.1s0,0,0,0,0,0,0,0h-1.1s0,0,0,0,0,0,0,0h0Z"/>
      <path class="cls-37" d="M12.6,21.9c0,0-.2,0-.3,0,0,0-.2,0-.3,0-.1,0-.2,0-.3,0,0,0-.2,0-.3,0,0,0-.2,0-.3,0,0,0-.2,0-.3,0,0,0-.2,0-.3,0,0,0-.2,0-.3,0v.2c0,0,.2,0,.3,0,0,0,.2,0,.3,0,0,0,.2,0,.3,0,0,0,.2,0,.3,0,0,0,.2,0,.3,0s.2,0,.3,0c0,0,.2,0,.3,0,0,0,.2,0,.3,0v-.2Z"/>
      <path class="cls-11" d="M12.6,21.9c0,0-.2,0-.3,0,0,0-.2,0-.3,0-.1,0-.2,0-.3,0,0,0-.2,0-.3,0,0,0-.2,0-.3,0,0,0-.2,0-.3,0,0,0-.2,0-.3,0,0,0-.2,0-.3,0v.2c0,0,.2,0,.3,0,0,0,.2,0,.3,0,0,0,.2,0,.3,0,0,0,.2,0,.3,0,0,0,.2,0,.3,0s.2,0,.3,0c0,0,.2,0,.3,0,0,0,.2,0,.3,0v-.2Z"/>
      <path class="cls-30" d="M12.6,22c0,0-.2,0-.3,0,0,0-.2,0-.3,0-.1,0-.2,0-.3,0,0,0-.2,0-.3,0,0,0-.2,0-.3,0,0,0-.2,0-.3,0,0,0-.2,0-.3,0,0,0-.2,0-.3,0v.2c0,0,.2,0,.3,0,0,0,.2,0,.3,0,0,0,.2,0,.3,0,0,0,.2,0,.3,0,0,0,.2,0,.3,0,0,0,.2,0,.3,0,0,0,.2,0,.3,0,0,0,.2,0,.3,0v-.2Z"/>
      <path class="cls-11" d="M12.6,22c0,0-.2,0-.3,0,0,0-.2,0-.3,0-.1,0-.2,0-.3,0,0,0-.2,0-.3,0,0,0-.2,0-.3,0,0,0-.2,0-.3,0,0,0-.2,0-.3,0,0,0-.2,0-.3,0v.2c0,0,.2,0,.3,0,0,0,.2,0,.3,0,0,0,.2,0,.3,0,0,0,.2,0,.3,0,0,0,.2,0,.3,0,0,0,.2,0,.3,0,0,0,.2,0,.3,0,0,0,.2,0,.3,0v-.2"/>
      <path class="cls-37" d="M12.6,22.2c0,0-.2,0-.3,0,0,0-.2,0-.3,0,0,0-.2,0-.3,0,0,0-.2,0-.3,0,0,0-.2,0-.3,0,0,0-.2,0-.3,0,0,0-.2,0-.3,0,0,0-.2,0-.3,0v.2c0,0,.2,0,.3,0,0,0,.2,0,.3,0,0,0,.2,0,.3,0,.2,0,.4,0,.5,0,0,0,.2,0,.3,0,0,0,.2,0,.3,0,0,0,.2,0,.3,0v-.2"/>
      <path class="cls-11" d="M12.6,22.2c0,0-.2,0-.3,0,0,0-.2,0-.3,0,0,0-.2,0-.3,0,0,0-.2,0-.3,0,0,0-.2,0-.3,0,0,0-.2,0-.3,0,0,0-.2,0-.3,0,0,0-.2,0-.3,0v.2c0,0,.2,0,.3,0,0,0,.2,0,.3,0,0,0,.2,0,.3,0,.2,0,.4,0,.5,0,0,0,.2,0,.3,0,0,0,.2,0,.3,0,0,0,.2,0,.3,0v-.2"/>
      <path class="cls-30" d="M12.6,22.5c0,0-.2,0-.3,0,0,0-.2,0-.3,0,0,0-.2,0-.3,0,0,0-.2,0-.3,0,0,0-.2,0-.3,0,0,0-.2,0-.3,0,0,0-.2,0-.3,0,0,0-.2,0-.3,0v-.2c0,0,.2,0,.3,0,0,0,.2,0,.3,0,0,0,.2,0,.3,0,0,0,.2,0,.3,0,0,0,.2,0,.3,0,0,0,.2,0,.3,0,0,0,.2,0,.3,0,0,0,.2,0,.3,0v.2Z"/>
      <path class="cls-11" d="M12.6,22.5c0,0-.2,0-.3,0,0,0-.2,0-.3,0,0,0-.2,0-.3,0,0,0-.2,0-.3,0,0,0-.2,0-.3,0,0,0-.2,0-.3,0,0,0-.2,0-.3,0,0,0-.2,0-.3,0v-.2c0,0,.2,0,.3,0,0,0,.2,0,.3,0,0,0,.2,0,.3,0,0,0,.2,0,.3,0,0,0,.2,0,.3,0,0,0,.2,0,.3,0,0,0,.2,0,.3,0,0,0,.2,0,.3,0v.2"/>
      <path class="cls-37" d="M12.6,22.7c0,0-.2,0-.3,0,0,0-.2,0-.3,0,0,0-.2,0-.3,0,0,0-.2,0-.3,0,0,0-.2,0-.3,0,0,0-.2,0-.3,0,0,0-.2,0-.3,0,0,0-.2,0-.3,0v-.2c0,0,.2,0,.3,0,0,0,.2,0,.3,0,0,0,.2,0,.3,0,0,0,.2,0,.3,0,0,0,.2,0,.3,0,0,0,.2,0,.3,0,0,0,.2,0,.3,0,0,0,.2,0,.3,0v.2Z"/>
      <path class="cls-11" d="M12.6,22.7c0,0-.2,0-.3,0,0,0-.2,0-.3,0,0,0-.2,0-.3,0,0,0-.2,0-.3,0,0,0-.2,0-.3,0,0,0-.2,0-.3,0,0,0-.2,0-.3,0,0,0-.2,0-.3,0v-.2c0,0,.2,0,.3,0,0,0,.2,0,.3,0,0,0,.2,0,.3,0,0,0,.2,0,.3,0,0,0,.2,0,.3,0,0,0,.2,0,.3,0,0,0,.2,0,.3,0,0,0,.2,0,.3,0v.2Z"/>
      <path class="cls-36" d="M11,21.2h0c0,.1,0,.2-.2.2h1.5c-.1,0-.2,0-.2-.2h0s0,0,0,0h-1.1Z"/>
      <path class="cls-21" d="M11,21.2h0c0,.1,0,.2-.2.2h1.5c-.1,0-.2,0-.2-.2h0s0,0,0,0h-1.1Z"/>
      <path class="cls-36" d="M11,21.1h1.1s0,0,0,0,0,0,0,0h-1.1s0,0,0,0,0,0,0,0"/>
      <path class="cls-11" d="M11,21.1h1.1s0,0,0,0,0,0,0,0h-1.1s0,0,0,0,0,0,0,0h0Z"/>
      <path class="cls-36" d="M10.9,21.8h1.5v-.4h-1.5v.4Z"/>
      <path class="cls-11" d="M10.9,21.8h1.5v-.4h-1.5v.4Z"/>
      <path class="cls-29" d="M10.7,19.8c-.1,0-.2.2-.2.2,0,0,0,0,.1.1.1,0,.2.2.1.3.2-.1.2-.4,0-.5,0,0,0,0,0,0"/>
      <path class="cls-11" d="M10.7,19.8c-.1,0-.2.2-.2.2,0,0,0,0,.1.1.1,0,.2.2.1.3.2-.1.2-.4,0-.5,0,0,0,0,0,0h0Z"/>
      <path class="cls-30" d="M11.1,21.1h1.1v-5.3h-1.1v5.3Z"/>
      <path class="cls-11" d="M11.8,15.8v5.3M12,15.8v5.3M11.1,21.1h1.1v-5.3h-1.1v5.3Z"/>
      <path class="cls-29" d="M13.2,17.8c-.4-.1-.7-.2-1.1-.2-.2,0-.3,0-.5,0-.6.1-1.1.4-1.1.6h0s-.2-.5-.2-.5c0-.2.5-.5,1.2-.6.2,0,.4,0,.6,0,.5,0,.9,0,1.1.1v.6"/>
      <path class="cls-21" d="M13.2,17.8c-.4-.1-.7-.2-1.1-.2-.2,0-.3,0-.5,0-.6.1-1.1.4-1.1.6h0s-.2-.5-.2-.5c0-.2.5-.5,1.2-.6.2,0,.4,0,.6,0,.5,0,.9,0,1.1.1v.6"/>
      <path class="cls-29" d="M11.1,18.4c-.3,0-.5,0-.5-.2,0,0,0-.2.3-.3,0,0,.2,0,.3,0v.5"/>
      <path class="cls-11" d="M11.1,18.4c-.3,0-.5,0-.5-.2,0,0,0-.2.3-.3,0,0,.2,0,.3,0v.5"/>
      <path class="cls-29" d="M12.1,18c.2,0,.3,0,.4.1h0c0,0-.1.2-.4.4v-.5"/>
      <path class="cls-11" d="M12.1,18c.2,0,.3,0,.4.1h0c0,0-.1.2-.4.4v-.5"/>
      <path class="cls-29" d="M10.4,19.4c0,0,.3-.3.7-.4.2,0,.3-.1.5-.2.6-.3,1-.5.9-.6h0s0,.5,0,.5c0,0-.3.4-.9.6-.2,0-.5.2-.7.3-.3.1-.6.3-.6.4v-.5Z"/>
      <path class="cls-21" d="M10.4,19.4c0,0,.3-.3.7-.4.2,0,.3-.1.5-.2.6-.3,1-.5.9-.6h0s0,.5,0,.5c0,0-.3.4-.9.6-.2,0-.5.2-.7.3-.3.1-.6.3-.6.4v-.5Z"/>
      <path class="cls-36" d="M11,17.5c.1,0,.2-.1.2-.2,0,0,0,0-.2,0h-.2c0,0,.2.5.2.5h0s0,0,0,0v-.2ZM10.9,17.3h0s0,0,0,0c0,0,0,0,0,.1,0,0,0,0,0,0v-.2ZM11.4,17.1h0s0,0,0,0v.4c0,0,.4,0,.4,0h0c0,0-.2,0-.2,0v-.4ZM12,17.5l.2-.4s0,0,0,0c0,.1,0,.2-.1.3,0-.1-.1-.2-.2-.3h0s0,0,0,0l.2.4h0s0,0,0,0ZM12.6,17.2h0c0,0,0,0-.1,0-.1,0-.2,0-.2.1,0,.1.2.1.2.2,0,0,0,0-.1,0,0,0,0,0,0,0h0s0,0,0,0c0,0,0,0,.1,0,.1,0,.2,0,.2-.1,0-.1-.2-.1-.2-.2,0,0,0,0,0,0,0,0,0,0,0,0h0Z"/>
      <path class="cls-29" d="M21.5,14.6s0,0,0,0c0,0,0,0,0,0,0,0,0,0,0,0,0,0,0,0,0,0,0,0,0,0,0,0,0,0,0,0,0,0,0,0,0,0,0,0h0s0,0,0,0h0s0,0,0,0h0c0,0,0-.1.2-.2,0,0,0,0,.1,0,0,0,.1,0,.2,0,0,0,.1,0,.2,0,0,0,.1,0,.2,0,0,0,.2,0,.2,0,0,0,0,0,.1,0,0,0,.2,0,.2.1h0s0,.1,0,.1h0s0,0,0,0h0s0,0,0,0c0,0,0,0,0,0,0,0,0,0,0,0,0,0,0,0,0,0,0,0,0,0,0,0,0,0,0,0,0,0,0,0,0,0,0,0,0,0,0,0,0,0"/>
      <path class="cls-12" d="M21.5,14.6s0,0,0,0c0,0,0,0,0,0,0,0,0,0,0,0,0,0,0,0,0,0,0,0,0,0,0,0,0,0,0,0,0,0,0,0,0,0,0,0h0s0,0,0,0h0s0,0,0,0h0c0,0,0-.1.2-.2,0,0,0,0,.1,0,0,0,.1,0,.2,0,0,0,.1,0,.2,0,0,0,.1,0,.2,0,0,0,.2,0,.2,0,0,0,0,0,.1,0,0,0,.2,0,.2.1h0s0,.1,0,.1h0s0,0,0,0h0s0,0,0,0c0,0,0,0,0,0,0,0,0,0,0,0,0,0,0,0,0,0,0,0,0,0,0,0,0,0,0,0,0,0,0,0,0,0,0,0,0,0,0,0,0,0h0Z"/>
      <path class="cls-36" d="M21.4,14.3c0,0,0-.1,0-.1s0,0,0,.1,0,.1,0,.1,0,0,0-.1"/>
      <path class="cls-12" d="M21.4,14.3c0,0,0-.1,0-.1s0,0,0,.1,0,.1,0,.1,0,0,0-.1h0Z"/>
      <path class="cls-36" d="M21.4,14.3c0,0,0-.1,0-.1s0,0,0,.1,0,.1,0,.1,0,0,0-.1"/>
      <path class="cls-12" d="M21.4,14.3c0,0,0-.1,0-.1s0,0,0,.1,0,.1,0,.1,0,0,0-.1Z"/>
      <path class="cls-36" d="M21,14.8s0,0,0,0c.1,0,.3,0,.5,0s.4,0,.5,0h0c0,0,0,.1,0,.1-.1,0-.3,0-.5,0s-.4,0-.5,0h0"/>
      <path class="cls-12" d="M21,14.8s0,0,0,0c.1,0,.3,0,.5,0s.4,0,.5,0h0c0,0,0,.1,0,.1-.1,0-.3,0-.5,0s-.4,0-.5,0h0"/>
      <path class="cls-36" d="M21.5,15c.2,0,.3,0,.4,0,0,0,0,0,0,0s0,0,0,0c-.1,0-.3,0-.4,0-.1,0-.3,0-.4,0,0,0,0,0,0,0,0,0,0,0,0,0,0,0,.2,0,.4,0"/>
      <path class="cls-12" d="M21.5,15c.2,0,.3,0,.4,0,0,0,0,0,0,0s0,0,0,0c-.1,0-.3,0-.4,0-.1,0-.3,0-.4,0,0,0,0,0,0,0,0,0,0,0,0,0,0,0,.2,0,.4,0h0Z"/>
      <path class="cls-38" d="M21.9,14.4s0,0,0,0c0,0,0,0,0,0s0,0,0,0c0,0,0,0,0,0"/>
      <path class="cls-3" d="M21.9,14.4s0,0,0,0c0,0,0,0,0,0s0,0,0,0c0,0,0,0,0,0ZM21.8,14.3s0,0,0,0c0,0,0,0,0,0s0,0,0,0c0,0,0,0,0,0h0ZM21.8,14.2s0,0,0,0c0,0,0,0,0,0s0,0,0,0c0,0,0,0,0,0h0ZM21.7,14.2s0,0,0,0c0,0,0,0,0,0,0,0,0,0,0,0,0,0,0,0,0,0ZM21.6,14.2s0,0,0,0c0,0,0,0,0,0s0,0,0,0c0,0,0,0,0,0h0Z"/>
      <path class="cls-23" d="M22.2,14.6s0,0,0,0c0-.1,0-.2-.2-.2,0,0,0,0,0,0"/>
      <path class="cls-12" d="M21.8,14.4h0c0-.1,0-.2-.2-.2s0,0-.1,0"/>
      <path class="cls-3" d="M22.2,14.5s0,0,0,0,0,0,0,0,0,0,0,0,0,0,0,0h0ZM22.2,14.4s0,0,0,0,0,0,0,0,0,0,0,0,0,0,0,0ZM22.1,14.3s0,0,0,0c0,0,0,0,0,0s0,0,0,0c0,0,0,0,0,0h0ZM22,14.2s0,0,0,0c0,0,0,0,0,0s0,0,0,0c0,0,0,0,0,0h0ZM21.9,14.2s0,0,0,0,0,0,0,0,0,0,0,0,0,0,0,0h0Z"/>
      <path class="cls-36" d="M22,14.7h0s0,0,0,0c0,0,0,0,0,0,0,0,0,0,0,0,0,0,0,0,0,0,0,0,0,0,0,0s0,0,0,0c0,0,0,0,0,0,0,0,0,0,0,0,0,0,0,0,0,0,0,0,0,0,0,0,0,0,0,0,0,0,0,0,0,0,0,0h0s0,0,0,0h0c.3,0,.7,0,1,0h0Z"/>
      <path class="cls-12" d="M22,14.7h0s0,0,0,0c0,0,0,0,0,0,0,0,0,0,0,0,0,0,0,0,0,0,0,0,0,0,0,0s0,0,0,0c0,0,0,0,0,0,0,0,0,0,0,0,0,0,0,0,0,0,0,0,0,0,0,0,0,0,0,0,0,0,0,0,0,0,0,0h0s0,0,0,0h0c.3,0,.7,0,1,0h0Z"/>
      <path class="cls-38" d="M21,14.4s0,0,0,0c0,0,0,0,0,0,0,0,0,0,0,0,0,0,0,0,0,0"/>
      <path class="cls-3" d="M21,14.4s0,0,0,0c0,0,0,0,0,0,0,0,0,0,0,0,0,0,0,0,0,0ZM21,14.3s0,0,0,0c0,0,0,0,0,0,0,0,0,0,0,0s0,0,0,0h0ZM21.1,14.2s0,0,0,0,0,0,0,0,0,0,0,0c0,0,0,0,0,0h0ZM21.2,14.2s0,0,0,0,0,0,0,0c0,0,0,0,0,0s0,0,0,0ZM21.3,14.2s0,0,0,0c0,0,0,0,0,0s0,0,0,0c0,0,0,0,0,0h0Z"/>
      <path class="cls-23" d="M20.8,14.6s0,0,0,0c0-.1,0-.2.2-.2s0,0,0,0"/>
      <path class="cls-12" d="M21.1,14.4h0c0-.1,0-.2.2-.2s0,0,.1,0"/>
      <path class="cls-3" d="M20.7,14.5s0,0,0,0,0,0,0,0,0,0,0,0,0,0,0,0h0ZM20.7,14.4s0,0,0,0,0,0,0,0,0,0,0,0c0,0,0,0,0,0ZM20.8,14.3s0,0,0,0,0,0,0,0c0,0,0,0,0,0,0,0,0,0,0,0h0ZM20.9,14.2s0,0,0,0c0,0,0,0,0,0s0,0,0,0,0,0,0,0h0ZM21,14.2s0,0,0,0c0,0,0,0,0,0,0,0,0,0,0,0s0,0,0,0h0Z"/>
      <path class="cls-36" d="M21.5,14.5h0c0,0,0,0,0,0s0,0,0,0h0s0,0,0,0c0,0,0,0,0,0,0,0,0,0,0,0,0,0,0,0,0,0,0,0,0,0,0,0h0s0,0,0,0c0,0,0,0,0,0,0,0,0,0,0,0,0,0,0,0,0,0h0s0,0,0,0c0,0,0,0,0,0,0,0,0,0,0,0h0c0,0,0,0,0,0,0,0,0,0,0,0,0,0,0,0,0,0,0,0,0,0,0,0,0,0,0,0,0,0,0,0,0,0,0,0,0,0,0,0,0,0,0,0,0,0,0,0,0,0,0,0,0,0,0,0,0,0,0,0,0,0-.1,0-.2,0,0,0,0,0,0,0,0,0,0,0,0,0,0,0,0,0,0,0,0,0,0,0,0,0s0,0,0,0c0,0,0,0,0,0,0,0,0,0,0,0h0c0-.1,0,0,0,0,0,0,0,0,0,0,0,0,0,0,0,0h0s0,0,0,0c0,0,0,0,0,0,0,0,0,0,0,0,0,0,0,0,0,0h0s0,0,0,0c0,0,0,0,0,0s0,0,0,0h0s0,0,0,0c0,0,0,0,0,0,0,0,0,0,0,0,0,0,0,0,0,0h0Z"/>
      <path class="cls-12" d="M21.5,14.5h0c0,0,0,0,0,0s0,0,0,0h0s0,0,0,0c0,0,0,0,0,0,0,0,0,0,0,0,0,0,0,0,0,0,0,0,0,0,0,0h0s0,0,0,0c0,0,0,0,0,0,0,0,0,0,0,0,0,0,0,0,0,0h0s0,0,0,0c0,0,0,0,0,0,0,0,0,0,0,0h0c0,0,0,0,0,0,0,0,0,0,0,0,0,0,0,0,0,0,0,0,0,0,0,0,0,0,0,0,0,0,0,0,0,0,0,0,0,0,0,0,0,0,0,0,0,0,0,0,0,0,0,0,0,0,0,0,0,0,0,0,0,0-.1,0-.2,0,0,0,0,0,0,0,0,0,0,0,0,0,0,0,0,0,0,0,0,0,0,0,0,0s0,0,0,0c0,0,0,0,0,0,0,0,0,0,0,0h0c0-.1,0,0,0,0,0,0,0,0,0,0,0,0,0,0,0,0h0s0,0,0,0c0,0,0,0,0,0,0,0,0,0,0,0,0,0,0,0,0,0h0s0,0,0,0c0,0,0,0,0,0s0,0,0,0h0s0,0,0,0c0,0,0,0,0,0,0,0,0,0,0,0,0,0,0,0,0,0h0Z"/>
      <path class="cls-36" d="M21.5,14.7c-.2,0-.4,0-.5,0h0s0,0,0,0c.1,0,.3,0,.5,0s.4,0,.5,0c0,0,0,0,0,0,0,0,0,0,0,0-.1,0-.3,0-.5,0"/>
      <path class="cls-12" d="M21.5,14.7c-.2,0-.4,0-.5,0h0s0,0,0,0c.1,0,.3,0,.5,0s.4,0,.5,0c0,0,0,0,0,0,0,0,0,0,0,0-.1,0-.3,0-.5,0h0Z"/>
      <path class="cls-38" d="M21.3,14.8s0,0,0,0,0,0,0,0,0,0,0,0,0,0,0,0"/>
      <path class="cls-12" d="M21.3,14.8s0,0,0,0,0,0,0,0,0,0,0,0,0,0,0,0h0Z"/>
      <path class="cls-29" d="M21.5,14.8h0s0,0,0,0,0,0,0,0h.1s0,0,0,0,0,0,0,0h0Z"/>
      <path class="cls-12" d="M21.5,14.8h0s0,0,0,0,0,0,0,0h.1s0,0,0,0,0,0,0,0h0"/>
      <path class="cls-34" d="M21.1,14.8h0s0,0,0,0c0,0,0,0,0,0,0,0,0,0,0,0h0s0,0,0,0c0,0,0,0,0,0s0,0,0,0h0Z"/>
      <path class="cls-12" d="M21.1,14.8h0s0,0,0,0c0,0,0,0,0,0,0,0,0,0,0,0h0s0,0,0,0c0,0,0,0,0,0s0,0,0,0h0"/>
      <path class="cls-29" d="M21,14.8h0s0,0,0,0h0s0,0,0,0Z"/>
      <path class="cls-12" d="M21,14.8h0s0,0,0,0h0s0,0,0,0"/>
      <path class="cls-38" d="M21.6,14.8s0,0,0,0,0,0,0,0,0,0,0,0,0,0,0,0"/>
      <path class="cls-12" d="M21.6,14.8s0,0,0,0,0,0,0,0,0,0,0,0,0,0,0,0Z"/>
      <path class="cls-34" d="M21.8,14.8h0s0,0,0,0c0,0,0,0,0,0h0s0,0,0,0c0,0,0,0,0,0s0,0,0,0h0Z"/>
      <path class="cls-12" d="M21.8,14.8h0s0,0,0,0c0,0,0,0,0,0h0s0,0,0,0c0,0,0,0,0,0s0,0,0,0h0"/>
      <path class="cls-29" d="M22,14.8h0s0,0,0,0h0s0,0,0,0Z"/>
      <path class="cls-12" d="M22,14.8h0s0,0,0,0h0s0,0,0,0"/>
      <path class="cls-29" d="M21.5,15c-.1,0-.3,0-.4,0,.3,0,.6,0,.8,0-.1,0-.3,0-.4,0"/>
      <path class="cls-14" d="M21.5,15c-.1,0-.3,0-.4,0,.3,0,.6,0,.8,0-.1,0-.3,0-.4,0Z"/>
      <path class="cls-36" d="M22,14.6h0s0,0,0,0h0s0,0,0,0"/>
      <path class="cls-12" d="M22,14.6h0s0,0,0,0h0s0,0,0,0Z"/>
      <path class="cls-36" d="M21.7,14.5s0,0,0,0c0,0,0,0,0,0s0,0,0,0c0,0,0,0,0,0"/>
      <path class="cls-12" d="M21.7,14.5s0,0,0,0c0,0,0,0,0,0s0,0,0,0c0,0,0,0,0,0Z"/>
      <path class="cls-36" d="M21.3,14.5s0,0,0,0c0,0,0,0,0,0s0,0,0,0c0,0,0,0,0,0"/>
      <path class="cls-12" d="M21.3,14.5s0,0,0,0c0,0,0,0,0,0s0,0,0,0c0,0,0,0,0,0Z"/>
      <path class="cls-36" d="M21,14.6h0s0,0,0,0h0s0,0,0,0"/>
      <path class="cls-12" d="M21,14.6h0s0,0,0,0h0s0,0,0,0Z"/>
      <path class="cls-36" d="M21.5,14.4h0s0,.1,0,.1h0s0,0,0,0h0c0,0,0-.1,0-.1Z"/>
      <path class="cls-12" d="M21.5,14.4h0s0,.1,0,.1h0s0,0,0,0h0c0,0,0-.1,0-.1"/>
      <path class="cls-36" d="M21.3,14.5h0s0,0,0,0h0s0,0,0,0h0s0,0,0,0Z"/>
      <path class="cls-12" d="M21.3,14.5h0s0,0,0,0h0s0,0,0,0h0s0,0,0,0"/>
      <path class="cls-36" d="M21.6,14.5h0s0,0,0,0h0s0,0,0,0h0s0,0,0,0Z"/>
      <path class="cls-12" d="M21.6,14.5h0s0,0,0,0h0s0,0,0,0h0s0,0,0,0"/>
      <path class="cls-36" d="M21.1,14.4h0s0,.1,0,.1h0s0,0,0,0h0c0,0,0-.1,0-.1Z"/>
      <path class="cls-12" d="M21.1,14.4h0s0,.1,0,.1h0s0,0,0,0h0c0,0,0-.1,0-.1"/>
      <path class="cls-36" d="M21,14.6h0s0,0,0,0h0s0,0,0,0h-.1Z"/>
      <path class="cls-12" d="M21,14.6h0s0,0,0,0h0s0,0,0,0h-.1"/>
      <path class="cls-36" d="M21.3,14.5h0s0,0,0,0h0s0,0,0,0h0Z"/>
      <path class="cls-12" d="M21.3,14.5h0s0,0,0,0h0s0,0,0,0h0"/>
      <path class="cls-36" d="M20.9,14.6h0s0,0,0,0h0s0,0,0,0h0Z"/>
      <path class="cls-12" d="M20.9,14.6h0s0,0,0,0h0s0,0,0,0h0"/>
      <path class="cls-36" d="M21.1,14.5s0,0,0,0c0,0,0,0,0,0,0,0,0,0,0,0s0,0,0,0,0,0,0,0"/>
      <path class="cls-12" d="M21.1,14.5s0,0,0,0c0,0,0,0,0,0,0,0,0,0,0,0s0,0,0,0,0,0,0,0h0Z"/>
      <path class="cls-36" d="M21.8,14.4h0s0,.1,0,.1h0s0,0,0,0h0c0,0,0-.1,0-.1Z"/>
      <path class="cls-12" d="M21.8,14.4h0s0,.1,0,.1h0s0,0,0,0h0c0,0,0-.1,0-.1"/>
      <path class="cls-36" d="M21.9,14.6h0s0,0,0,0h0s0,0,0,0h.1Z"/>
      <path class="cls-12" d="M21.9,14.6h0s0,0,0,0h0s0,0,0,0h.1"/>
      <path class="cls-36" d="M21.7,14.5h0s0,0,0,0h0s0,0,0,0h0Z"/>
      <path class="cls-12" d="M21.7,14.5h0s0,0,0,0h0s0,0,0,0h0"/>
      <path class="cls-36" d="M22,14.6h0s0,0,0,0h0s0,0,0,0h0Z"/>
      <path class="cls-12" d="M22,14.6h0s0,0,0,0h0s0,0,0,0h0"/>
      <path class="cls-36" d="M21.4,14.5s0,0,0,0,0,0,0,0,0,0,0,0c0,0,0,0,0,0"/>
      <path class="cls-12" d="M21.4,14.5s0,0,0,0,0,0,0,0,0,0,0,0c0,0,0,0,0,0Z"/>
      <path class="cls-36" d="M21.8,14.5s0,0,0,0c0,0,0,0,0,0,0,0,0,0,0,0s0,0,0,0,0,0,0,0"/>
      <path class="cls-12" d="M21.8,14.5s0,0,0,0c0,0,0,0,0,0,0,0,0,0,0,0s0,0,0,0,0,0,0,0h0Z"/>
      <path class="cls-36" d="M21.4,14.1s0,0,0,0,0,0,0,0,0,0,0,0c0,0,0,0,0,0"/>
      <path class="cls-36" d="M21.5,14.1h0s0,0,0,0h0s0,0,0,0h0c0,0,0,0,0,0h0s0,0,0,0h0s0,0,0,0h0s0,0,0,0h0s0,0,0,0h0c0,0,0,0,0,0Z"/>
      <path class="cls-12" d="M21.5,14.1h0s0,0,0,0h0s0,0,0,0h0c0,0,0,0,0,0h0s0,0,0,0h0s0,0,0,0h0s0,0,0,0h0s0,0,0,0h0c0,0,0,0,0,0Z"/>
      <path class="cls-36" d="M21.6,14.1h0s-.2,0-.2,0h0s0,0,0,0h0c0,0,0,0,0,0h0s0,0,0,0h0s0,0,0,0h0s0,0,0,0h0s0,0,0,0h0c0,0,0,0,0,0Z"/>
      <path class="cls-12" d="M21.5,14.1s0,0,0,0c0,0,0,0,0,0,0,0,0,0,0,0,0,0,0,0,0,0"/>
      <path class="cls-36" d="M20.8,14.6h0c0,0,0,0,0,0,0,0,0,0,0,0h0s0,0,0,0c0,0,0,0,0,0,0,0,0,0,0,0h0Z"/>
      <path class="cls-12" d="M20.8,14.6h0c0,0,0,0,0,0,0,0,0,0,0,0h0s0,0,0,0c0,0,0,0,0,0,0,0,0,0,0,0h0Z"/>
      <path class="cls-36" d="M20.8,14.6h0s0,0,0,0h0s0,0,0,0"/>
      <path class="cls-12" d="M20.8,14.6h0s0,0,0,0h0s0,0,0,0h0Z"/>
      <path class="cls-36" d="M22.1,14.6h0c0,0,0,0,0,0,0,0,0,0,0,0,0,0,0,0,0,0h0s0,0,0,0h0s0,0,0,0Z"/>
      <path class="cls-12" d="M22.1,14.6h0c0,0,0,0,0,0,0,0,0,0,0,0,0,0,0,0,0,0h0s0,0,0,0h0s0,0,0,0Z"/>
      <path class="cls-36" d="M22.1,14.6h0s0,0,0,0c0,0,0,0,0,0,0,0,0,0,0,0"/>
      <path class="cls-12" d="M22.1,14.6h0s0,0,0,0c0,0,0,0,0,0,0,0,0,0,0,0h0Z"/>
      <path class="cls-36" d="M20.7,15.4h1.5v-.4h-1.5v.4Z"/>
      <path class="cls-11" d="M20.7,15.4h1.5v-.4h-1.5v.4Z"/>
      <path class="cls-36" d="M22.1,15.6s0,0,0,0h-1.1s0,0,0,0,0,0,0,0h0s1.1,0,1.1,0c0,0,0,0,0,0s0,0,0,0"/>
      <path class="cls-21" d="M22.1,15.6s0,0,0,0h-1.1s0,0,0,0,0,0,0,0h0s1.1,0,1.1,0c0,0,0,0,0,0s0,0,0,0h0Z"/>
      <path class="cls-36" d="M20.9,15.6h1.1s0,0,0,0,0,0,0,0h-1.1s0,0,0,0,0,0,0,0"/>
      <path class="cls-11" d="M20.9,15.6h1.1s0,0,0,0,0,0,0,0h-1.1s0,0,0,0,0,0,0,0Z"/>
      <path class="cls-36" d="M20.9,15.4h1.1s0,0,0,0,0,0,0,0h-1.1s0,0,0,0,0,0,0,0"/>
      <path class="cls-11" d="M20.9,15.4h1.1s0,0,0,0,0,0,0,0h-1.1s0,0,0,0,0,0,0,0h0Z"/>
      <path class="cls-37" d="M20.4,21.9c.1,0,.2,0,.3,0,0,0,.2,0,.3,0,0,0,.2,0,.3,0,0,0,.2,0,.3,0,0,0,.2,0,.3,0,0,0,.2,0,.3,0,0,0,.2,0,.3,0,0,0,.2,0,.3,0v.2c0,0-.2,0-.3,0,0,0-.2,0-.3,0,0,0-.2,0-.3,0,0,0-.2,0-.3,0,0,0-.2,0-.3,0s-.2,0-.3,0c0,0-.2,0-.3,0,0,0-.2,0-.3,0v-.2Z"/>
      <path class="cls-11" d="M20.4,21.9c.1,0,.2,0,.3,0,0,0,.2,0,.3,0,0,0,.2,0,.3,0,0,0,.2,0,.3,0,0,0,.2,0,.3,0,0,0,.2,0,.3,0,0,0,.2,0,.3,0,0,0,.2,0,.3,0v.2c0,0-.2,0-.3,0,0,0-.2,0-.3,0,0,0-.2,0-.3,0,0,0-.2,0-.3,0,0,0-.2,0-.3,0s-.2,0-.3,0c0,0-.2,0-.3,0,0,0-.2,0-.3,0v-.2Z"/>
      <path class="cls-30" d="M20.4,22c0,0,.2,0,.3,0,0,0,.2,0,.3,0,0,0,.2,0,.3,0,0,0,.2,0,.3,0,.1,0,.2,0,.3,0,0,0,.2,0,.3,0,0,0,.2,0,.3,0,0,0,.2,0,.3,0v.2c0,0-.2,0-.3,0,0,0-.2,0-.3,0,0,0-.2,0-.3,0,0,0-.2,0-.3,0,0,0-.2,0-.3,0,0,0-.2,0-.3,0,0,0-.2,0-.3,0,0,0-.2,0-.3,0v-.2Z"/>
      <path class="cls-11" d="M20.4,22c0,0,.2,0,.3,0,0,0,.2,0,.3,0,0,0,.2,0,.3,0,0,0,.2,0,.3,0,.1,0,.2,0,.3,0,0,0,.2,0,.3,0,0,0,.2,0,.3,0,0,0,.2,0,.3,0v.2c0,0-.2,0-.3,0,0,0-.2,0-.3,0,0,0-.2,0-.3,0,0,0-.2,0-.3,0,0,0-.2,0-.3,0,0,0-.2,0-.3,0,0,0-.2,0-.3,0,0,0-.2,0-.3,0v-.2"/>
      <path class="cls-37" d="M20.4,22.2c.1,0,.2,0,.3,0,0,0,.2,0,.3,0,0,0,.2,0,.3,0,0,0,.2,0,.3,0s.2,0,.3,0c0,0,.2,0,.3,0,0,0,.2,0,.3,0,0,0,.2,0,.3,0v.2c0,0-.2,0-.3,0,0,0-.2,0-.3,0,0,0-.2,0-.3,0,0,0-.2,0-.3,0,0,0-.2,0-.3,0,0,0-.2,0-.3,0,0,0-.2,0-.3,0,0,0-.2,0-.3,0v-.2"/>
      <path class="cls-11" d="M20.4,22.2c.1,0,.2,0,.3,0,0,0,.2,0,.3,0,0,0,.2,0,.3,0,0,0,.2,0,.3,0s.2,0,.3,0c0,0,.2,0,.3,0,0,0,.2,0,.3,0,0,0,.2,0,.3,0v.2c0,0-.2,0-.3,0,0,0-.2,0-.3,0,0,0-.2,0-.3,0,0,0-.2,0-.3,0,0,0-.2,0-.3,0,0,0-.2,0-.3,0,0,0-.2,0-.3,0,0,0-.2,0-.3,0v-.2"/>
      <path class="cls-30" d="M20.4,22.5c0,0,.2,0,.3,0,0,0,.2,0,.3,0,0,0,.2,0,.3,0,0,0,.2,0,.3,0s.2,0,.3,0c0,0,.2,0,.3,0,0,0,.2,0,.3,0,0,0,.2,0,.3,0v-.2c0,0-.2,0-.3,0,0,0-.2,0-.3,0,0,0-.2,0-.3,0,0,0-.2,0-.3,0,0,0-.2,0-.3,0,0,0-.2,0-.3,0,0,0-.2,0-.3,0,0,0-.2,0-.3,0v.2Z"/>
      <path class="cls-11" d="M20.4,22.5c0,0,.2,0,.3,0,0,0,.2,0,.3,0,0,0,.2,0,.3,0,0,0,.2,0,.3,0s.2,0,.3,0c0,0,.2,0,.3,0,0,0,.2,0,.3,0,0,0,.2,0,.3,0v-.2c0,0-.2,0-.3,0,0,0-.2,0-.3,0,0,0-.2,0-.3,0,0,0-.2,0-.3,0,0,0-.2,0-.3,0,0,0-.2,0-.3,0,0,0-.2,0-.3,0,0,0-.2,0-.3,0v.2"/>
      <path class="cls-37" d="M20.4,22.7c.1,0,.2,0,.3,0,0,0,.2,0,.3,0,0,0,.2,0,.3,0,0,0,.2,0,.3,0s.2,0,.3,0c0,0,.2,0,.3,0,0,0,.2,0,.3,0,0,0,.2,0,.3,0v-.2c0,0-.2,0-.3,0,0,0-.2,0-.3,0,0,0-.2,0-.3,0,0,0-.2,0-.3,0,0,0-.2,0-.3,0,0,0-.2,0-.3,0,0,0-.2,0-.3,0,0,0-.2,0-.3,0v.2Z"/>
      <path class="cls-11" d="M20.4,22.7c.1,0,.2,0,.3,0,0,0,.2,0,.3,0,0,0,.2,0,.3,0,0,0,.2,0,.3,0s.2,0,.3,0c0,0,.2,0,.3,0,0,0,.2,0,.3,0,0,0,.2,0,.3,0v-.2c0,0-.2,0-.3,0,0,0-.2,0-.3,0,0,0-.2,0-.3,0,0,0-.2,0-.3,0,0,0-.2,0-.3,0,0,0-.2,0-.3,0,0,0-.2,0-.3,0,0,0-.2,0-.3,0v.2Z"/>
      <path class="cls-36" d="M22.1,21.2h0c0,.1,0,.2.2.2h-1.5c.1,0,.2,0,.2-.2,0,0,0,0,0,0h1.2Z"/>
      <path class="cls-21" d="M22.1,21.2h0c0,.1,0,.2.2.2h-1.5c.1,0,.2,0,.2-.2,0,0,0,0,0,0h1.2Z"/>
      <path class="cls-36" d="M20.9,21.1h1.1s0,0,0,0,0,0,0,0h-1.1s0,0,0,0,0,0,0,0"/>
      <path class="cls-11" d="M20.9,21.1h1.1s0,0,0,0,0,0,0,0h-1.1s0,0,0,0,0,0,0,0h0Z"/>
      <path class="cls-36" d="M20.7,21.8h1.5v-.4h-1.5v.4Z"/>
      <path class="cls-11" d="M20.7,21.8h1.5v-.4h-1.5v.4Z"/>
      <path class="cls-29" d="M22.3,19.8c.1,0,.2.2.2.2,0,0,0,0-.1.1-.1,0-.2.2-.1.3-.2-.1-.2-.4,0-.5,0,0,0,0,0,0"/>
      <path class="cls-11" d="M22.3,19.8c.1,0,.2.2.2.2,0,0,0,0-.1.1-.1,0-.2.2-.1.3-.2-.1-.2-.4,0-.5,0,0,0,0,0,0h0Z"/>
      <path class="cls-30" d="M20.9,21.1h1.1v-5.3h-1.1v5.3Z"/>
      <path class="cls-11" d="M21.7,15.8v5.3M21.8,15.8v5.3M20.9,21.1h1.1v-5.3h-1.1v5.3Z"/>
      <path class="cls-29" d="M19.8,17.8c.5-.2,1.1-.2,1.6-.1.6.1,1.1.4,1.1.6h0s.2-.5.2-.5c0-.2-.5-.5-1.2-.6-.2,0-.4,0-.6,0-.5,0-.9,0-1.1.1v.6"/>
      <path class="cls-21" d="M19.8,17.8c.5-.2,1.1-.2,1.6-.1.6.1,1.1.4,1.1.6h0s.2-.5.2-.5c0-.2-.5-.5-1.2-.6-.2,0-.4,0-.6,0-.5,0-.9,0-1.1.1v.6"/>
      <path class="cls-29" d="M22,18.4c.3,0,.5,0,.5-.2,0,0,0-.2-.3-.3,0,0-.2,0-.3,0v.5"/>
      <path class="cls-11" d="M22,18.4c.3,0,.5,0,.5-.2,0,0,0-.2-.3-.3,0,0-.2,0-.3,0v.5"/>
      <path class="cls-29" d="M20.9,18c-.2,0-.3,0-.4.1h0c0,0,.1.2.4.4v-.5"/>
      <path class="cls-11" d="M20.9,18c-.2,0-.3,0-.4.1h0c0,0,.1.2.4.4v-.5"/>
      <path class="cls-29" d="M22.7,19.4c0,0-.3-.3-.7-.4-.2,0-.3-.1-.5-.2-.6-.3-1-.5-.9-.6h0s0,.5,0,.5c0,0,.3.4.9.6.2,0,.5.2.7.3.3.1.6.3.6.4v-.5Z"/>
      <path class="cls-21" d="M22.7,19.4c0,0-.3-.3-.7-.4-.2,0-.3-.1-.5-.2-.6-.3-1-.5-.9-.6h0s0,.5,0,.5c0,0,.3.4.9.6.2,0,.5.2.7.3.3.1.6.3.6.4v-.5Z"/>
      <path class="cls-36" d="M20.5,17.5c0-.2,0-.3.1-.5,0,0,0,0,0,0,0,0,0,0,0,0,0,.1,0,.2,0,.3l-.2-.3h0s0,0,0,0c0,.1.2.3.3.4h0M20.9,17.1h-.1v.4s.3,0,.3,0h0c0,0-.1,0-.2,0v-.4ZM21.4,17.1h.1s0,0,0,0h0s-.4,0-.4,0h0c0,0,.1,0,.1,0v.4s0,0,0,0h0s0-.4,0-.4ZM21.5,17.6s0,0,0,0h0s0-.2,0-.2h0c0,0,0,.2,0,.2,0,0,0,0,0,0h0s0,0,0,0v-.2s0,0,0,0c0,0,0,0,0-.1,0,0,0,0-.1,0h-.2s-.1.4-.1.4ZM21.8,17.2c0,0,.1,0,.1,0,0,0,0,0,0,0,0,0,0,0-.1,0v-.2ZM22.3,17.7h0c0,.1,0,.2,0,.2h0s0-.4,0-.4c0,0,0,0,0,0l-.4.3h0s0,0,0,0h.1c0,0,.2,0,.2,0ZM22.2,17.6h.1c0,0,0,0,0,0h-.1Z"/>
      <path class="cls-5" d="M14.9,13.3c0,0,0-.1.1-.1s.1,0,.1.1,0,.1-.1.1c0,0-.1,0-.1-.1h0Z"/>
      <path class="cls-2" d="M16.5,12.1c.4,0,.8,0,1.1.2.2,0,.4.1.6.1.2,0,.3,0,.5,0,.2,0,.4,0,.7.2.2,0,.4.2.5.3h-.1c0,0,0,.4,0,.4l-.3.3h-.1c0,.1-.3.4-.3.4h-.2s0,.2,0,.2l-2.2-.3-2.2.3h0c0-.1-.2-.2-.2-.2l-.3-.3h-.1c0-.1-.3-.4-.3-.4v-.3s-.1,0-.1,0c.2-.1.3-.2.5-.3.3-.1.5-.2.7-.2.1,0,.3,0,.5,0,.2,0,.4,0,.6-.1.3-.1.6-.2,1.1-.2h0Z"/>
      <path class="cls-10" d="M16.5,15c-.8,0-1.5,0-2.1-.3,0,0,0,0,0,0,0,0,0,0,0,0,.7-.2,1.4-.3,2.1-.3.8,0,1.5.1,2.1.3,0,0,0,0,0,0s0,0,0,0c-.7.2-1.4.3-2,.3"/>
      <path class="cls-29" d="M16.5,14.9c-.6,0-1.3,0-1.9-.2.5-.1,1.2-.2,1.9-.2.6,0,1.3,0,1.9.2-.5.1-1.2.2-1.9.2"/>
      <path class="cls-5" d="M16.6,14.9v-.4M16.5,14.9v-.4"/>
      <path class="cls-3" d="M16.3,14.9v-.4M16.2,14.9v-.4"/>
      <path class="cls-12" d="M16.1,14.9v-.4M16,14.8v-.4M16,14.8v-.4"/>
      <path class="cls-11" d="M15.8,14.8v-.4M15.9,14.8v-.4M15.5,14.8v-.3M15.6,14.8v-.3M15.7,14.8v-.3"/>
      <path class="cls-16" d="M15.5,14.8v-.3M15.4,14.8v-.3"/>
      <path class="cls-24" d="M15.3,14.8v-.3M15.1,14.7v-.2M15.2,14.8v-.2"/>
      <path class="cls-8" d="M15.1,14.7v-.2M15,14.7v-.2"/>
      <path class="cls-13" d="M14.9,14.7h0M14.8,14.7h0"/>
      <path class="cls-1" d="M14.7,14.7h0"/>
      <path class="cls-5" d="M17.1,14.8v-.4M16.8,14.9v-.4M16.7,14.9v-.4"/>
      <path class="cls-10" d="M16.5,14.3c-.7,0-1.4,0-2.1.3,0,0,0,0,0-.2,0-.2-.2-.2-.2-.2.7-.2,1.5-.3,2.3-.3.9,0,1.7.1,2.3.3,0,0,0,0-.2.2,0,.1,0,.2,0,.2-.5-.2-1.3-.3-2.1-.3"/>
      <path class="cls-10" d="M16.5,13.9c-.8,0-1.5,0-2.3.3,0,0,0,0,0,0,0,0,0,0,0,0,0,0,0,0,0,0,.6-.2,1.4-.3,2.3-.3s1.7.1,2.3.3c0,0,0,0,0,0,0,0,0,0,0,0-.6-.2-1.4-.3-2.3-.3"/>
      <path class="cls-21" d="M16.5,14.9c-.6,0-1.3,0-1.9-.2.5-.1,1.2-.2,1.9-.2.6,0,1.3,0,1.9.2-.5.1-1.2.2-1.9.2h0Z"/>
      <path class="cls-17" d="M15.9,14.1s0,0,0,0,0,0,0,0,0,0,0,0c0,0,0,0,0,0"/>
      <path class="cls-18" d="M16.5,14.2h-.2s0,0,0,0,0,0,0,0h.4s0,0,0,0c0,0,0,0,0,0,0,0,0,0,0,0h-.2"/>
      <path class="cls-4" d="M15.4,14.2h-.2s0,0,0,0c0,0,0,0,0,0,0,0,0,0,0,0h.2s.2,0,.2,0c0,0,0,0,0,0,0,0,0,0,0,0,0,0,0,0,0,0h-.2"/>
      <path class="cls-17" d="M14.8,14.2s0,0,0,0c0,0,0,0,0,0,0,0,0,0,0,0,0,0,0,0,0,0,0,0,0,0,0,0"/>
      <path class="cls-18" d="M14.3,14.4h0c0-.1.2,0,.2,0h-.2c0,.1-.1,0-.1,0"/>
      <path class="cls-4" d="M17.6,14.2h.2s0,0,0,0c0,0,0,0,0,0,0,0,0,0,0,0h-.2s-.2,0-.2,0c0,0,0,0,0,0,0,0,0,0,0,0h.2"/>
      <path class="cls-17" d="M17,14.1s0,0,0,0,0,0,0,0,0,0,0,0c0,0,0,0,0,0h0M18.1,14.2s0,0,0,0c0,0,0,0,0,0,0,0,0,0,0,0,0,0,0,0,0,0,0,0,0,0,0,0"/>
      <path class="cls-18" d="M18.7,14.4h0c0-.1-.2,0-.2,0h.2c0,.1.1,0,.1,0"/>
      <path class="cls-11" d="M14.5,14.7c.5-.1,1.2-.2,2-.2.8,0,1.5,0,2,.2"/>
      <path class="cls-36" d="M14.9,12.7h0c0,0,.1-.1.1-.1-.2-.1-.3-.3-.2-.5,0-.3.4-.5.8-.5s.4,0,.6.2h0c-.2-.2-.4-.3-.6-.3-.5,0-.9.3-.9.6,0,.2,0,.4.2.5h0Z"/>
      <path class="cls-11" d="M14.9,12.7h0c0,0,.1-.1.1-.1-.2-.1-.3-.3-.2-.5,0-.3.4-.5.8-.5s.4,0,.6.2h0c-.2-.2-.4-.3-.6-.3-.5,0-.9.3-.9.6,0,.2,0,.4.2.5h0"/>
      <path class="cls-36" d="M14.9,12.7c-.2-.1-.3-.3-.3-.5,0-.2.1-.4.4-.6-.1,0-.2.2-.2.4,0,.2,0,.4.2.5h0"/>
      <path class="cls-11" d="M14.9,12.7c-.2-.1-.3-.3-.3-.5,0-.2.1-.4.4-.6-.1,0-.2.2-.2.4,0,.2,0,.4.2.5h0"/>
      <path class="cls-36" d="M13.4,12.9c-.1-.1-.2-.3-.2-.4,0,0,0-.2,0-.3.1-.3.6-.5,1.1-.5s.3,0,.4,0c0,0,0,0,0,0-.1,0-.2,0-.3,0-.5,0-.9.2-1,.4,0,0,0,.1,0,.2,0,.2,0,.3.2.4l-.2.3h0c0,0,.1-.3.1-.3Z"/>
      <path class="cls-11" d="M13.4,12.9c-.1-.1-.2-.3-.2-.4,0,0,0-.2,0-.3.1-.3.6-.5,1.1-.5s.3,0,.4,0c0,0,0,0,0,0-.1,0-.2,0-.3,0-.5,0-.9.2-1,.4,0,0,0,.1,0,.2,0,.2,0,.3.2.4l-.2.3h0c0,0,.1-.3.1-.3Z"/>
      <path class="cls-36" d="M13.5,11.9c-.1,0-.2.2-.3.3,0,0,0,.2,0,.3,0,.2,0,.3.2.4v.2c-.2-.1-.3-.3-.3-.4,0-.3.2-.5.4-.7"/>
      <path class="cls-11" d="M13.5,11.9c-.1,0-.2.2-.3.3,0,0,0,.2,0,.3,0,.2,0,.3.2.4v.2c-.2-.1-.3-.3-.3-.4,0-.3.2-.5.4-.7h0Z"/>
      <path class="cls-36" d="M16.5,11.3c.1,0,.2,0,.2.2,0,0,0,.2,0,.3h0c0,.3,0,.5,0,.6l-.4.3-.4-.3c0-.1,0-.3,0-.6h0c0-.2,0-.3,0-.4,0-.1.1-.2.2-.2"/>
      <path class="cls-11" d="M16.5,11.3c.1,0,.2,0,.2.2,0,0,0,.2,0,.3h0c0,.3,0,.5,0,.6l-.4.3-.4-.3c0-.1,0-.3,0-.6h0c0-.2,0-.3,0-.4,0-.1.1-.2.2-.2h0Z"/>
      <path class="cls-36" d="M16.5,11.4c0,0,.1,0,.1,0,0,0,0,.2,0,.3h0c0,.3,0,.5,0,.6l-.2.2-.2-.2c0-.1,0-.3,0-.5h0c0-.2,0-.3,0-.4,0,0,0,0,.1,0"/>
      <path class="cls-11" d="M16.5,11.4c0,0,.1,0,.1,0,0,0,0,.2,0,.3h0c0,.3,0,.5,0,.6l-.2.2-.2-.2c0-.1,0-.3,0-.5h0c0-.2,0-.3,0-.4,0,0,0,0,.1,0h0Z"/>
      <path class="cls-36" d="M18.2,12.7h0c0,0-.1-.1-.1-.1.2-.1.3-.3.3-.5,0-.3-.4-.5-.8-.5-.2,0-.4,0-.6.2,0,0,0,0,0-.1.2-.1.4-.2.6-.1.5,0,.9.3.9.6,0,.2,0,.4-.2.5h0Z"/>
      <path class="cls-11" d="M18.2,12.7h0c0,0-.1-.1-.1-.1.2-.1.3-.3.3-.5,0-.3-.4-.5-.8-.5-.2,0-.4,0-.6.2,0,0,0,0,0-.1.2-.1.4-.2.6-.1.5,0,.9.3.9.6,0,.2,0,.4-.2.5h0"/>
      <path class="cls-36" d="M18.1,12.7c.2-.1.3-.3.3-.5s-.1-.4-.4-.6c.1.1.2.3.2.5,0,.2,0,.3-.2.5h0"/>
      <path class="cls-11" d="M18.1,12.7c.2-.1.3-.3.3-.5s-.1-.4-.4-.6c.1.1.2.3.2.5,0,.2,0,.3-.2.5h0"/>
      <path class="cls-36" d="M19.7,12.9c.2-.2.2-.4,0-.7-.1-.3-.6-.5-1.1-.5-.1,0-.3,0-.4,0,0,0,0,0,0,0,.1,0,.2,0,.3,0,.5,0,.9.2,1,.4,0,0,0,.1,0,.2,0,.2,0,.3-.2.4l.2.3h0c0,0-.1-.3-.1-.3Z"/>
      <path class="cls-11" d="M19.7,12.9c.2-.2.2-.4,0-.7-.1-.3-.6-.5-1.1-.5-.1,0-.3,0-.4,0,0,0,0,0,0,0,.1,0,.2,0,.3,0,.5,0,.9.2,1,.4,0,0,0,.1,0,.2,0,.2,0,.3-.2.4l.2.3h0c0,0-.1-.3-.1-.3Z"/>
      <path class="cls-36" d="M19.5,11.9c.1,0,.2.2.3.3,0,0,0,.2,0,.3,0,.2,0,.3-.2.4v.2c.2-.1.3-.3.3-.4,0-.3-.2-.5-.4-.7"/>
      <path class="cls-11" d="M19.5,11.9c.1,0,.2.2.3.3,0,0,0,.2,0,.3,0,.2,0,.3-.2.4v.2c.2-.1.3-.3.3-.4,0-.3-.2-.5-.4-.7h0Z"/>
      <path class="cls-38" d="M16.4,12.5c0,0,0-.1.1-.1s.1,0,.1.1c0,0,0,.1-.1.1h0c0,0-.1,0-.1-.1h0"/>
      <path class="cls-11" d="M16.4,12.5c0,0,0-.1.1-.1s.1,0,.1.1c0,0,0,.1-.1.1h0c0,0-.1,0-.1-.1h0s0,0,0,0Z"/>
      <path class="cls-17" d="M16.4,12.3c0,0,0-.1.1-.1h0c0,0,.1,0,.1.1h0c0,0,0,.1-.1.1h0c0,0-.1,0-.1-.1h0M16.4,12c0,0,0,0,0,0s.1,0,.1,0,0,0-.1,0,0,0,0,0M16.4,11.8s0,0,0,0c0,0,0,0,0,0,0,0,0,0,0,0,0,0,0,0,0,0,0,0,0,0,0,0M16.5,11.6s0,0,0,0,0,0,0,0,0,0,0,0,0,0,0,0"/>
      <path class="cls-10" d="M16.5,13.2h0c0,.2,0,.4.2.4,0,0,0,0,0,0,.1,0,.3,0,.3-.2,0,0,0-.1,0-.1s0,.1,0,.1c0,.2.2.3.3.3.2,0,.3-.1.3-.3,0,0,0,0,0,0h0c0,0,0,0,0,0,0,0,0,0,0,.1,0,.2.1.3.3.3h0c.1,0,.2,0,.3-.1h0c0,0,0,0,0,0,0,0,0,.2.1.2,0,0,.1,0,.3-.1,0,0,.2-.1.2-.2h0c0,.1-.1.3-.3.4,0,0-.2,0-.3,0,0,0-.2,0-.2-.2,0,0-.2,0-.2,0-.2,0-.3,0-.4-.3-.2.2-.5.2-.7,0,0,0,0,0,0,0,0,0-.2.1-.3.1-.2,0-.3,0-.4-.2,0,.1-.2.2-.4.2-.1,0-.2,0-.3-.1-.2.2-.5.2-.7,0,0,0,0,0,0,0,0,.2-.2.3-.4.3,0,0-.2,0-.2,0,0,0-.1.2-.2.2,0,0-.2,0-.3,0-.1,0-.3-.3-.3-.3h0c0-.1,0,0,.2.1.2.1.3.1.3.1,0,0,.1-.1.1-.2h0c0-.1,0,0,0,0,0,0,.2.1.3.1.2,0,.3-.1.3-.3s0,0,0-.1h0c0-.1.1,0,.1,0h0c0,.2.1.4.3.3h0c.2,0,.3-.1.3-.3,0,0,0-.1,0-.1s0,.1,0,.1c0,.1.2.2.3.2.2,0,.3-.1.3-.3,0,0,0,0,0-.1h0"/>
      <path class="cls-17" d="M18.8,13.6c0,0,0-.1,0-.1,0,0,0,0-.1,0,0,0,0,.1,0,.1,0,0,0,0,.1,0M17.3,13.3c0,0,0-.1,0-.1,0,0,0,0,0,0,0,0,0,.1,0,.1,0,0,0,0,0,0M15.7,13.3c0,0,0-.1,0-.1,0,0,0,0,0,0,0,0,0,.1,0,.1,0,0,0,0,0,0M14.3,13.6c0,0,0-.1,0-.1,0,0,0,0,.1,0,0,0,0,.1,0,.1,0,0,0,0-.1,0"/>
      <path class="cls-10" d="M14.9,12.7c0,0,.1.1.2.2,0,0,0,0,0,0,0,0,0,0,0,0h0c0,.1,0,.2,0,.2,0,0,0,0,0,.1,0,0,0,0-.1,0,0,0,0,0,0,0,0,0,0,0,0,0h0c0-.1,0-.2,0-.2h0s0,0,0,0c0,0,0-.2,0-.2"/>
      <path class="cls-10" d="M14.9,13.4s0,0,0,0c0,0,0,0,0,0h-.1c0,0-.1,0-.2,0h0,0s0,0,0,0c0,0-.1,0-.2.1,0,0,.1,0,.2,0h0c0,0,0,0,0,0,0,0,.1,0,.1,0,0,0,.1,0,.1,0M15.1,13.3s0,0,0,0c0,0,0,0,0,0,0,0,0,0,0,0h.1c0,0,0,0,0,0h0s0,0,0,0c0,0,.2,0,.2,0,0,0-.1.1-.2.1,0,0,0,0,0,0h0s-.1,0-.2,0c0,0-.1,0-.1,0"/>
      <path class="cls-18" d="M14.9,13.3c0,0,0-.1.1-.1s.1,0,.1.1,0,.1-.1.1c0,0-.1,0-.1-.1"/>
      <path class="cls-10" d="M16.5,12.5c0,0,.1.2.1.3,0,0,0,0,0,0s0,0,0,0h0c0,.1,0,.2,0,.3,0,0,0,0,0,.1,0,0,0,0-.1,0,0,0,0,0-.1,0,0,0,0,0,0-.1,0,0,0-.1,0-.2h0c0,0,0,0,0,0,0,0,0,0,0,0,0,0,0-.2.1-.3"/>
      <path class="cls-10" d="M16.4,13.2s0,0,0,0c0,0,0,0,0,0,0,0,0,0-.1,0,0,0-.1,0-.2,0h0s0,0,0,0h0c0,0-.2.1-.3.2,0,0,.2.1.3.1h0c0,0,0,.1,0,.1h0s.2,0,.2,0h.1M16.6,13.2s0,0,0,0c0,0,0,0,0,0,0,0,0,0,.1,0,0,0,.1,0,.2,0h0s0,0,0,0c0,0,0,0,0,0,0,0,.2,0,.3.1,0,0-.2.1-.3.1h0c0,0,0,.1,0,.1h0s-.2,0-.2,0c0,0,0,0-.1,0M18.2,12.7c0,0-.1.1-.2.2h0c0,0,0,0,0,0h0c0,0,0,.2,0,.2h0c0,0,0,0,.1,0,0,0,0,0,0,0h0c0,0,0-.2,0-.2h0c0,0,0,0,0,0,0,0,0,0,0,0,0,0,0-.2,0-.2"/>
      <path class="cls-10" d="M18.1,13.4s0,0,0,0c0,0,0,0,0,0h.1c0,0,.1,0,.2,0h0,0s0,0,0,0c0,0,.2,0,.2.1,0,0-.1,0-.2,0h0c0,0,0,0,0,0h-.1c0,0,0-.1,0-.1M17.9,13.3s0,0,0,0c0,0,0,0,0,0,0,0,0,0,0,0,0,0-.1,0-.1,0h0s0,0,0,0c0,0,0,0,0,0,0,0-.2,0-.2,0,0,0,.1.1.2.1h0c0,0,0,0,0,0h0s.1,0,.2,0c0,0,.1,0,.1,0"/>
      <path class="cls-18" d="M17.9,13.3c0,0,0-.1.1-.1s.1,0,.1.1,0,.1-.1.1c0,0-.1,0-.1-.1M19.5,13.6s-.1,0-.2,0,0,.1,0,.1.1,0,.2,0,0-.1,0-.1"/>
      <path class="cls-10" d="M19.3,13.6s0,0,0,0c0,0,.1,0,.2,0h0s0-.1.2-.2.2,0,.2,0c0-.1,0-.2-.2-.2,0,0,0,0,0,0,0,0-.1,0-.2,0h0c0,0,0,0-.1,0,0,.1,0,.3,0,.3,0,0,0,0,0-.1,0,0-.1,0-.2-.1h0c0,0,0,0,0,0,0,0-.2,0-.3,0,0,0,.1.1.2.1h0c0,0,0,0,0,0h0s.1,0,.2,0c0,0,0,0,.1,0M13.8,13.6s0,0,0,0c0,0-.1,0-.2,0,0,0,0,0,0,0,0,0,0-.1-.2-.2s-.2,0-.2,0c0-.1,0-.2.2-.2s.1,0,.2,0h0c0,0,0,0,.1,0,0,.1,0,.3,0,.3,0,0,0,0,0-.1s.1,0,.2-.1h0s0,0,0,0c0,0,.2,0,.3,0,0,0-.1.1-.2.1h0c0,0,0,0,0,0h0s-.1,0-.2,0c0,0,0,0-.1,0"/>
      <path class="cls-18" d="M13.6,13.6s0,0,.1,0c0,0,0,.1,0,.1,0,0-.1,0-.2,0,0,0,0-.1,0-.1M16.4,13.1c0,0,0-.1.1-.1s.1,0,.1.1,0,.1-.1.1c0,0-.1,0-.1-.1"/>
      <path class="cls-15" d="M16.2,11.1c0-.2.1-.3.3-.3s.3.1.3.3c0,.2-.1.3-.3.3h0c-.2,0-.3-.1-.3-.3,0,0,0,0,0,0"/>
      <path class="cls-26" d="M16.4,10.3h0c0,.1-.2.1-.2.1h0c0,.1.2.1.2.1v.4h-.2c0,0,0,.1,0,.1h.5s0,0,0-.1h0s-.2,0-.2,0v-.4h.2c0-.1-.2-.1-.2-.1h0c0-.1-.2-.2-.2-.2Z"/>
      <path class="cls-30" d="M16.5,22.8c-.8,0-1.7-.2-2.4-.6-.5-.3-.9-.8-.9-1.4v-2.2h6.6v2.2c0,.6-.3,1.1-.9,1.4-.8.4-1.6.6-2.4.6"/>
      <path class="cls-16" d="M16.5,22.8c-.8,0-1.7-.2-2.4-.6-.5-.3-.9-.8-.9-1.4v-2.2h6.6v2.2c0,.6-.3,1.1-.9,1.4-.8.4-1.6.6-2.4.6h0Z"/>
      <path class="cls-30" d="M16.5,18.6h3.3v-3.7h-3.3v3.7Z"/>
      <path class="cls-16" d="M16.5,18.6h3.3v-3.7h-3.3v3.7Z"/>
      <path class="cls-29" d="M16.5,20.8c0,.9-.8,1.6-1.7,1.6,0,0,0,0,0,0-.9,0-1.7-.7-1.7-1.6v-2.2h3.3v2.2"/>
      <path class="cls-6" d="M13.9,22.1c.1,0,.3.1.4.2v-3.8h-.4v3.6h0Z"/>
      <path class="cls-22" d="M13.2,20.8c0,.4.1.7.4,1v-3.3h-.4v2.2Z"/>
      <path class="cls-7" d="M14.7,22.4c.2,0,.3,0,.4,0v-3.8h-.4v3.8Z"/>
      <path class="cls-6" d="M15.4,22.3c.1,0,.3,0,.4-.2v-3.6h-.4v3.8Z"/>
      <path class="cls-29" d="M13.2,18.6h3.3v-3.7h-3.3v3.7Z"/>
      <path class="cls-16" d="M13.2,18.6h3.3v-3.7h-3.3v3.7Z"/>
      <path class="cls-6" d="M16.2,21.8c.2-.1.3-.5.4-.8v-2.4s-.4,0-.4,0v3.2h0Z"/>
      <path class="cls-16" d="M16.5,20.8c0,.9-.8,1.6-1.7,1.6,0,0,0,0,0,0-.9,0-1.7-.7-1.7-1.6v-2.2h3.3v2.2"/>
      <path class="cls-29" d="M19.9,18.6v2.2c0,.9-.8,1.6-1.7,1.6h0c-.9,0-1.7-.7-1.7-1.6v-2.2h3.3Z"/>
      <path class="cls-16" d="M19.9,18.6v2.2c0,.9-.8,1.6-1.7,1.6h0c-.9,0-1.7-.7-1.7-1.6v-2.2h3.3"/>
      <path class="cls-36" d="M17.1,20.3h0c0,0,0,.1,0,.1s0,0,0,0,0,0,0,0h-.1c0,0,0,.2.1.2v.3h.1v-.3c0,0,0,0,.1-.1h.3c0,0-.4,0-.4,0ZM18.6,20.3h0c0,0-.3,0-.3,0,0,0,0,0,0,0l.3.4h0c0,0-.3-.3-.3-.3h0v.6h-.1v-.6h0s-.3.4-.3.4h0c0,0,.3-.4.3-.4,0,0,0,0,0,0h-.3c0,0,.9,0,.9,0h0ZM18.8,20.3h0c0,0,.3,0,.3,0,0,0,0,0,.1.1v.3h.1v-.3c0,0,.1,0,.1-.2h0s-.1,0-.1,0c0,0,0,0,0,.1,0,0,0,0,0,0,0,0,0,0,0,0h0s-.4,0-.4,0ZM18.4,21.8c0,0,.2,0,.2,0h0c0,.1-.2.2-.3.2,0,0,0,.1-.2.1,0,0-.2,0-.2-.1-.1,0-.2,0-.3,0h0c0,0,.2,0,.3,0,0,0,0,0,.1,0v-.5h.1v.5s0,0,.1,0h0ZM17.6,21.6h0c0,0-.2,0-.3-.1,0,0-.1,0-.2,0,0,0,0-.2,0-.2,0,0,0,0,0,0h0c0-.1,0-.2,0-.3h.1c0,0,0,.2,0,.3,0,0,0,0,0,0l.3-.3h0c0,0-.3.4-.3.4,0,0,0,.1,0,.2,0,0,.1.1.2.2h0ZM17.2,21.3s0,0,.1,0c0,0,0,0,0,0,0,0,0,0,0,0,0,0,0,0,0,0,0,0,0,0-.1,0,0,0,0,0,0-.1,0,0,0,0,0,0M17,21h-.1s0-.3,0-.3h.1s0,.1,0,.1c0,0,0,.1,0,.2h0ZM17.1,20.6h.1v.2c0,0,0,.1,0,.1h-.1s0-.1,0-.1v-.2ZM17.5,21.6c0,0,.2.1.3.2h0c0-.1-.2-.2-.3-.2h0ZM17.5,21.7c.1,0,.2.1.3.2h0c0,0-.2,0-.3,0h0ZM17.6,21h.1s.2-.2.2-.2h0c0,0-.3.2-.3.2ZM17.5,21h0c0,0,.2-.3.2-.3h.1s-.2.3-.2.3ZM18.8,21.6h0c0,0,.2,0,.2-.1,0,0,.1,0,.2,0,0,0,0-.2,0-.2,0,0,0,0,0,0h0c0-.1,0-.2,0-.3h-.1c0,0,0,.2,0,.3,0,0,0,0,0,0l-.3-.3h0c0,0,.3.4.3.4,0,0,0,.1,0,.2,0,0-.1.1-.2.2M19.2,21.3s0,0-.1,0c0,0,0,0,0,0,0,0,0,0,0,.1,0,0,0,0,0,0,0,0,0,0,.1,0,0,0,0,0,0,0,0,0,0,0,0,0h0ZM19.3,21h.1s0-.3,0-.3h-.1s0,.1,0,.1v.2ZM19.2,20.6h-.1v.2c0,0,0,.1,0,.1h.1s0-.1,0-.1v-.2ZM18.8,21.6c0,0-.2.1-.3.2h0c0-.1.2-.2.3-.2h0ZM18.9,21.7c-.1,0-.2.1-.3.2h0c0,0,.2,0,.3,0h0ZM18.7,21h-.1s-.2-.2-.2-.2h0c0,0,.2.2.2.2ZM18.8,21h0c0,0-.2-.3-.2-.3h-.1s.2.3.2.3M17.4,20.4h0c0,.1.3.1.3.1h0c0-.1-.4-.1-.4-.1ZM18.9,20.4h0c0,.1-.3.1-.3.1h0c0-.1.4-.1.4-.1ZM18.1,21.9s0,0,0,0,0,0,0,0,0,0,0,0,0,0,0,0h0ZM18.2,21.3h.1v-.4h-.1s0,.4,0,.4ZM18.1,21.3h-.1v-.4h.1s0,.4,0,.4Z"/>
      <path class="cls-36" d="M16.9,20.3c0,0,0-.1.1-.1v-.4h.1v.4c0,0,.1,0,.1.1h.3s-.4,0-.4,0c0,0,0,0,0,0,0,0,0,0,0,0h-.1M17.7,20.3h0s.3,0,.3,0h0s-.3-.4-.3-.4h0c0,0,.3.3.3.3h0v-.5h.1v.5h0l.3-.4h0c0,0-.3.4-.3.4h0s.3,0,.3,0h0s-.9,0-.9,0ZM19.2,20.3s0,0,0,0c0,0,0,0,0,0h.1c0,0,0-.1-.1-.1v-.4h-.1v.4c0,0,0,0-.1.1h-.3s.4,0,.4,0ZM17.1,19.2l.4.5h0c0,0-.4-.5-.4-.5h0s.3,0,.3,0h0c0-.1-.3-.1-.3-.1,0,0,0-.1-.2-.1,0,0-.2,0-.2.2,0,0,0,0,0,0,0,0,0,.1.1.2v.4h.1v-.4h0ZM19.3,19.2v.4h-.1v-.4s0,0,0,0l-.4.5h0c0,0,.4-.5.4-.5,0,0,0,0,0,0h-.3c0-.1.3-.1.3-.1,0,0,0-.1.2-.1.1,0,.2,0,.2.2s0,.1-.1.2h0ZM18.2,19.2v.2h-.1v-.2c0,0,0,0-.1-.1h-.3c0-.1.3-.1.3-.1,0,0,0-.1.2-.1,0,0,.1,0,.2.1h.3c0,.1-.3.1-.3.1,0,0,0,0-.1.1h0ZM17,19.5h-.1v.3h.1s0-.3,0-.3M17.1,19.5h.1v.3h-.1s0-.3,0-.3ZM19.2,19.5h-.1v.3h.1s0-.3,0-.3ZM19.3,19.5h.1v.3h-.1s0-.3,0-.3ZM17.6,19.6h.1c0,0,.2.2.2.2h0c0,0-.3-.2-.3-.2ZM17.5,19.6h0c0,0,.2.3.2.3h.1s-.2-.3-.2-.3ZM18.8,19.6h-.1s-.2.2-.2.2h0c0,0,.2-.2.2-.2ZM18.9,19.6h0c0,.1-.2.3-.2.3h-.1s.2-.3.2-.3M17.5,20.3h0c0-.1.3-.1.3-.1h0c0,.1-.4.1-.4.1ZM17,19.1s0,0,0,0,0,0,0,0,0,0,0,0,0,0,0,0h0ZM17.8,19.1h0c0,.1-.3.1-.3.1h0c0-.1.4-.1.4-.1ZM17.8,19h0c0-.1-.3-.1-.3-.1h0c0,.1.4.1.4.1ZM18.9,20.3h0c0-.1-.3-.1-.3-.1h0c0,.1.4.1.4.1ZM19.2,19.1s0,0,0,0,0,0,0,0,0,0,0,0,0,0,0,0M18.1,19.1s0,0,0,0,0,0,0,0,0,0,0,0,0,0,0,0M18.5,19.1h0c0,.1.3.1.3.1h0c0-.1-.4-.1-.4-.1ZM18.5,19h0c0-.1.3-.1.3-.1h0c0,.1-.4.1-.4.1M18.1,19.4h-.1v.3h.1s0-.3,0-.3ZM18.2,19.4h.1v.3h-.1s0-.3,0-.3Z"/>
      <path class="cls-27" d="M18.4,21.8c0,0,.2,0,.3,0h0c0,.1-.2.2-.3.2,0,0,0,.1-.2.1,0,0-.2,0-.2-.1-.1,0-.2,0-.3,0h0c0,0,.2,0,.3,0,0,0,0,0,.1,0v-.5h.1v.5s0,0,.1,0ZM18,20.4s0,0,0,0h-.3c0-.1.3-.1.3-.1,0,0,0,0,0,0l-.3-.4h0c0,0,.3.3.3.3,0,0,0,0,0,0v-.5h.1v.5h0s.3-.4.3-.4h0c0,0-.3.5-.3.5h0s.3,0,.3,0h0c0,.1-.3.1-.3.1h0s.3.4.3.4h0c0,0-.3-.3-.3-.3h0v.6h-.1v-.6h0s-.3.4-.3.4h0c0,0,.3-.4.3-.4M17.1,19.2l.4.5h0c0,0-.4-.5-.4-.5h0s.3,0,.3,0h0c0-.1-.3-.1-.3-.1,0,0,0-.1-.2-.1,0,0-.2,0-.2.2,0,0,0,0,0,0,0,0,0,.1.1.2v.4h.1v-.3h0ZM17.6,21.6h0c0,0-.2,0-.3-.1,0,0-.1,0-.2,0,0,0,0-.2,0-.2,0,0,0,0,0,0h0c0-.1,0-.2,0-.3h.1c0,0,0,.2,0,.3,0,0,0,0,0,0l.3-.3h0c0,0-.3.4-.3.4,0,0,0,.1,0,.2,0,0,.1.1.2.2ZM17,20.7v-.3c0,0-.1,0-.1-.2,0,0,0-.1.1-.2v-.4h.1v.4c0,0,0,0,.1.1h.3c0,.1-.3.1-.3.1,0,0,0,0-.1.1v.3h-.1M17.2,21.3s0,0,.1,0c0,0,0,0,0,0,0,0,0,0,0,.1,0,0,0,0-.1,0,0,0,0,0,0-.1,0,0,0,0,0,0h0ZM17,21h-.1s0-.3,0-.3h.1s0,.1,0,.1c0,0,0,.1,0,.2h0ZM17.1,20.6h.1c0,.1,0,.2,0,.3h-.1s0-.1,0-.1v-.2h0ZM17.5,21.6c0,0,.2.1.3.2h0c0-.1-.2-.2-.3-.3h0M17.5,21.7c.1,0,.2.1.3.2h0c0,0-.2,0-.3,0h0"/>
      <path class="cls-27" d="M17.6,21h.1c0,0,.2-.2.2-.2h0c0,0-.3.2-.3.2M17.5,21h0c0,0,.2-.3.2-.3h.1s-.2.3-.2.3M17,20.3s0,0,0,0,0,0,0,0,0,0,0,0,0,0,0,0ZM18.8,21.6h0c0,0,.2,0,.3-.1,0,0,.1,0,.2,0,0,0,0-.2,0-.2,0,0,0,0,0,0h0c0-.1,0-.2,0-.3h-.1c0,0,0,.2,0,.3,0,0,0,0,0,0l-.3-.3h0c0,0,.3.4.3.4,0,0,0,.1,0,.2,0,0-.1.1-.2.2h0ZM19.4,20.7v-.3c0,0,.1,0,.1-.2,0,0,0-.1-.1-.2v-.4h-.1v.4c0,0,0,0-.1.1h-.3c0,.1.3.1.3.1,0,0,0,0,.1.1v.3h.1ZM19.2,21.3s0,0-.1,0c0,0,0,0,0,0,0,0,0,0,0,.1,0,0,0,0,0,0,0,0,0,0,.1,0,0,0,0,0,0,0,0,0,0,0,0,0h0ZM19.3,21h.1s0-.3,0-.3h-.1s0,.1,0,.1v.2ZM19.2,20.6h-.1v.2c0,0,0,.1,0,.1h.1s0-.1,0-.1v-.2M19.4,19.2v.4h-.1v-.3s0,0,0,0l-.4.5h0c0,0,.4-.5.4-.5,0,0,0,0,0,0h-.3c0-.1.3-.1.3-.1,0,0,0-.1.2-.1.1,0,.2,0,.2.2s0,.1-.1.2h0ZM18.2,19.2v.2h-.1v-.2c0,0,0,0-.1-.1h-.3c0-.1.3-.1.3-.1,0,0,0-.1.2-.1,0,0,.1,0,.2.1h.3c0,.1-.3.1-.3.1,0,0,0,0-.1.1h0ZM18.9,21.6c-.1,0-.2.1-.3.2h0c0-.1.2-.2.3-.2h0M18.9,21.7c-.1,0-.2.1-.3.2h0c0,0,.2,0,.3,0h0M17,19.5h-.1v.3h.1s0-.3,0-.3M17.1,19.5h.1v.3h-.1s0-.3,0-.3M19.2,19.5h-.1v.3h.1s0-.3,0-.3"/>
      <path class="cls-27" d="M19.4,19.5h.1v.3h-.1s0-.3,0-.3M18.8,21h-.1c0,0-.2-.2-.2-.2h0c0,0,.2.2.2.2M18.8,21h0c0,0-.2-.3-.2-.3h-.1s.2.3.2.3M17.6,19.6h.1s.2.2.2.2h0c0,0-.2-.2-.2-.2M17.5,19.6h0c0,0,.2.3.2.3h.1c0,0-.2-.3-.2-.3M18.8,19.6h-.1s-.2.2-.2.2h0c0,0,.2-.2.2-.2M18.9,19.6h0c0,0-.2.3-.2.3h-.1s.2-.3.2-.3M17.5,20.3h0c0-.1.3-.1.3-.1h0c0,.1-.4.1-.4.1M17.5,20.4h0c0,.1.3.1.3.1h0c0-.1-.4-.1-.4-.1M17,19.1s0,0,0,0,0,0,0,0,0,0,0,0,0,0,0,0h0ZM17.8,19.1h0c0,.1-.3.1-.3.1h0c0-.1.4-.1.4-.1M17.8,19h0c0-.1-.3-.1-.3-.1h0c0,.1.4.1.4.1M19.2,20.3s0,0,0,0,0,0,0,0,0,0,0,0,0,0,0,0ZM18.9,20.3h0c0-.1-.3-.1-.3-.1h0c0,.1.4.1.4.1M18.9,20.4h0c0,.1-.3.1-.3.1h0c0-.1.4-.1.4-.1M18.1,21.9s0,0,0,0,0,0,0,0,0,0,0,0,0,0,0,0h0ZM18.2,21.3h.1v-.3h-.1s0,.3,0,.3M18.1,21.3h-.1v-.3h.1s0,.3,0,.3M19.2,19.1s0,0,0,0,0,0,0,0,0,0,0,0,0,0,0,0ZM18.1,19.1s0,0,0,0,0,0,0,0,0,0,0,0,0,0,0,0ZM18.5,19.1h0c0,.1.3.1.3.1h0c0-.1-.4-.1-.4-.1M18.5,19h0c0-.1.3-.1.3-.1h0c0,.1-.4.1-.4.1M18.1,19.4h-.1v.3h.1s0-.3,0-.3M18.2,19.4h.1v.3h-.1s0-.3,0-.3"/>
      <path class="cls-34" d="M18,20.3c0,0,0-.2.2-.2,0,0,0,0,0,0,.1,0,.2,0,.2.2,0,0,0,.2-.2.2,0,0,0,0,0,0,0,0-.2,0-.2-.2,0,0,0,0,0,0"/>
      <path class="cls-39" d="M18.2,15.8h0s0,0,0,0c0,0-.1,0-.2,0,0,0-.1,0-.2,0,0,0,0,0-.1,0,0,0-.2,0-.2,0,0,0,0,0,.1,0,0,0,0,0,.1,0,0,0,.2,0,.2,0h.1Z"/>
      <path class="cls-11" d="M18.2,15.8h0s0,0,0,0c0,0-.1,0-.2,0,0,0-.1,0-.2,0,0,0,0,0-.1,0,0,0-.2,0-.2,0,0,0,0,0,.1,0,0,0,0,0,.1,0,0,0,.2,0,.2,0h.1Z"/>
      <path class="cls-25" d="M18.7,15.7h0c0,.1,0,.2,0,.2h0c0,0,0,.1,0,.1h0s0,0,0,0h0c0,0,0,.1,0,.1,0,0,0,0,0,0,0,0,0,0,0,0,0,0,0,0,0,0h0s0,0,0,0,0,.1,0,.1c0,0,0,0,0,0h0c0,0,0,0,0,0v.2s0,0,0,0h0c0,0,0,0,0,0,0,0,0,.2.1.3,0,0,.2.2.4.2s.1-.3,0-.5c0-.1,0-.3,0-.3,0,0,0-.2,0-.2,0,0,0-.1,0-.2,0,0,0-.1,0-.2h0v-.2h0c0,0,0,.2,0,.2,0,0,0,0,0-.1,0,0,.1,0,.1,0h0s0,0,0,.1h-.1c0,.1,0,.1,0,.1h0s0,0,0,.1c0,0,0,0,0,.1,0,0,0,0-.1.1,0,0,0,.3,0,.3,0,0,.1.3.1.4,0,0,0,.2-.1.3,0,0-.2,0-.2,0,0,0,0,0,0,.2s0,.1,0,.2c0,0,0,0,0,0h0c0,0,0,0,0,.1,0,0,0,0,0,.1,0,0,0,.1,0,.2s0,0,0,0c0,0,0,0,0,0,0,0,0,0,0,0h0s0,0,0,0h0s0,0,0,0,0,0,0,0,0,0,0,0c0,0,0,0,0,0,0,0,0,0,0,0,0,0,0,0,0,0,0,0,0,0,0,0s0,0,0,0,0,0,0,0c0,0,0,0,0,0s0,0,0,0c0,0,0,0,0,0,0,0,0,0,0,0s0,0,0,0h0c0,0,0,0,0,0h0c0,0,0-.1,0-.1h0c0,.1,0,.1,0,.1s0,0,0,0,0,0,0,0h0c0-.1,0-.2,0-.2h0c0,0,0,0,0,0,0,0,0,0-.1,0,0,0,0,.1,0,.2,0,0,0,.1,0,.1,0,0,0,0,0,0h0s0,0,0,0h0s0,0,0,0c0,0,0,0,0,0,0,0,0,0,0,0h0s0,0,0,0c0,0,0,0,0,0,0,0,0,0,0,0h0s0,0,0,0c0,0,0,0,0,0s0,0,0,0,0,0,0,0c0,0,0,0,0,0s0,0,0,0h0s0,0,0,0c0,0,0,0,0,0,0,0,0,0,.1,0,0,0,0,0,0,0h0c0,0,0-.1,0-.1,0,0,0,0,0,0h0c0,0,0,0,0,0h0c0,0,0,0,0,0h0c0,0,0,0,0,0h0c0-.2,0-.2.1-.3h.3s-.2-.1-.2-.1-.1-.1-.1-.1c0,0,0-.1,0-.1,0,0,0,0,0,0,0,0,0,0,0,0h0c0,0,0,0,0,0,0,0,0,0,0,.1h0c0,0,0,0,0,0h0c0,0,0,0,0,0s-.1,0-.1,0c0,0,0,0,0,0,0,0,0,0,0,0,0,0,0,0,0,0s0,0,0,0c0,0,0,0,0,0,0,0,0,0,0,0,0,0,0,0,0,0,0,0,0,0,0,0,0,0,0,0,0,0,0,0,0,0,0,0,0,0,0,0,0,0,0,0,0,0,0,0,0,0,0,0,0,0h0c0,0,0,0,0,0,0,0,0,0,0,0,0,0,.1,0,.1,0h0c0,0,.1-.1.1-.1h0c0,0,0-.1,0-.1,0,0,0,0-.1,0,0,0-.1,0-.1,0h0s0,0,0,0h0,0s0,0,0,0h0s0,0,0,0h0s0,0,0,0h0c0,0,0-.1,0-.1s0,0,0,0c0,0,0,0,0,0h0c0,0,0,0,0,0h0s0,0,0,0c0,0,0,0,0,0h0c0,0,0-.1,0,0,0,0,0,0,0,0,0,0,0,0,0,0,0,0,0,0,0,0,0,0,0,0,0,0s0,0,0,0c0,0,0,0,0,0,0,0,0,0,0,.1,0,0,0,0,0,0,0,0,0,0,.1,0,0,0,.1,0,.1,0h0s0,0,0,0,.1,0,.2,0c0,0,0,0,0,0,0,0,0,0,0,0s0,0,0,0c0,0,.1,0,.1,0,0,0,0-.1,0-.1,0,0-.1,0-.1,0,0,0,0,0,0,0,0,0,0,0,0,0,0,0,.1,0,.1,0,0,0,0,0,0,0h0s0,0,.2,0c0,0,.1.1.1.1"/>
      <path class="cls-32" d="M18,15.6h0s0,0,0,0c0,0,0,0,0,0,0,0,0,0,0,0,0,0,0,0,0,0"/>
      <path class="cls-12" d="M18,15.6h0s0,0,0,0c0,0,0,0,0,0,0,0,0,0,0,0,0,0,0,0,0,0h0Z"/>
      <path class="cls-32" d="M18.3,15.5h0s0,0,0,0c0,0,0,0,0,0,0,0,0,0,0,0h0s0,0,0,0h0s0,0,0,0Z"/>
      <path class="cls-5" d="M18.3,15.5h0s0,0,0,0c0,0,0,0,0,0,0,0,0,0,0,0h0s0,0,0,0h0s0,0,0,0Z"/>
      <path class="cls-12" d="M18.7,15.9h0c0,0,0,0,0,0"/>
      <path class="cls-39" d="M17.3,15.6s0,0,0,0h0s0,0,0,0c0,0,0,0,0,0,0,0,0,0,0,0,0,0,0,0,0,0"/>
      <path class="cls-11" d="M17.3,15.6s0,0,0,0h0s0,0,0,0c0,0,0,0,0,0,0,0,0,0,0,0,0,0,0,0,0,0h0Z"/>
      <path class="cls-39" d="M17.1,15.7s0,0,0,0c0,0-.1,0-.1,0h0s0,0,0,0h0s0,0,0,0Z"/>
      <path class="cls-11" d="M17.1,15.7s0,0,0,0c0,0-.1,0-.1,0h0s0,0,0,0h0s0,0,0,0Z"/>
      <path class="cls-39" d="M17.1,15.9s0,0,0,0c0,0,0,0,0,0,0,0,0,0,0,0h0s0,0,0,0c0,0,0,0,0,0"/>
      <path class="cls-11" d="M17.1,15.9s0,0,0,0c0,0,0,0,0,0,0,0,0,0,0,0h0s0,0,0,0c0,0,0,0,0,0h0Z"/>
      <path class="cls-32" d="M18,15.9h0s0,0,0,0h0Z"/>
      <path class="cls-12" d="M18,15.9h0s0,0,0,0h0"/>
      <path class="cls-32" d="M18.1,15.9h0s0,0,0,0h0Z"/>
      <path class="cls-12" d="M18.1,15.9h0s0,0,0,0h0"/>
      <path class="cls-32" d="M18.1,15.7h0s0,0,0,0h0Z"/>
      <path class="cls-12" d="M18.1,15.7h0s0,0,0,0h0"/>
      <path class="cls-32" d="M18.1,15.7h0s0,0,0,0h0Z"/>
      <path class="cls-12" d="M18.1,15.7h0s0,0,0,0h0"/>
      <path class="cls-11" d="M17.8,16.1s0,0,0,0c0,0,0,0,0,0,0,0,0,0,.1,0h0s0,0,0,0c0,0,0,0,0,0,0,0,0,0,0,0,0,0,0,.1,0,.1h0s0,0,.1,0h0c0,0,0,0,0,0h0c0,.1,0,0,0,0,0,0,0,0,0,0h0c0,0,0,0,0,0,0,0,0,.1,0,.1,0,0,0,0,0,0,0,0,0,0,0,0h0c0,0,0,0,0,0M17.7,16.5s0,0,0,0h0c0,0,0,0,0,0M18,16.7h0c0,0,0,0,0-.1"/>
      <path class="cls-39" d="M17.2,16.6s0,0,0,0c0,0,0,0,0,0h0s0,0,0,0h0s0,0,0,0Z"/>
      <path class="cls-11" d="M17.2,16.6s0,0,0,0c0,0,0,0,0,0h0s0,0,0,0h0s0,0,0,0Z"/>
      <path class="cls-39" d="M17.2,16.8s0,0,0,0c0,0,0,0,0,0,0,0,0,0,0,0h0s0,0,0,0c0,0,0,0,0,0"/>
      <path class="cls-11" d="M17.2,16.8s0,0,0,0c0,0,0,0,0,0,0,0,0,0,0,0h0s0,0,0,0c0,0,0,0,0,0h0Z"/>
      <path class="cls-39" d="M17.3,16.9s0,0,0,0c0,0,0,0,0,0h0c0,0,0,0,0,0,0,0,0,0,0,0h0Z"/>
      <path class="cls-11" d="M17.3,16.9s0,0,0,0c0,0,0,0,0,0h0c0,0,0,0,0,0,0,0,0,0,0,0h0ZM18.4,17s.1,0,.1.2c0,0,0,.2,0,.2"/>
      <path class="cls-39" d="M17.8,17.4s0,0,0,0,0,0,0,0c0,0,0,0,0,0h0s0,0,0,0h0Z"/>
      <path class="cls-11" d="M17.8,17.4s0,0,0,0,0,0,0,0c0,0,0,0,0,0h0s0,0,0,0h0Z"/>
      <path class="cls-39" d="M17.6,17.6s0,0,0,0,0,0,0,0c0,0,0,0,0,0,0,0,0,0,0,0h0c0,0,0,0,0,0"/>
      <path class="cls-11" d="M17.6,17.6s0,0,0,0,0,0,0,0c0,0,0,0,0,0,0,0,0,0,0,0h0c0,0,0,0,0,0h0Z"/>
      <path class="cls-39" d="M17.8,17.8s0,0,0,0c0,0,0,0,0,0,0,0,0,0,0,0s0,0,0,0h0Z"/>
      <path class="cls-11" d="M17.8,17.8s0,0,0,0c0,0,0,0,0,0,0,0,0,0,0,0s0,0,0,0h0Z"/>
      <path class="cls-39" d="M18.6,17.9s0,0,0,0c0,0,0,0,0,0,0,0,0,0,0,0h0s0,0,0,0c0,0,0,0,0,0"/>
      <path class="cls-11" d="M18.6,17.9s0,0,0,0c0,0,0,0,0,0,0,0,0,0,0,0h0s0,0,0,0c0,0,0,0,0,0Z"/>
      <path class="cls-39" d="M18.6,18.1s0,0,0,0c0,0,0,0,0,0,0,0,0,0,0,0s0,0,0,0h0s0,0,0,0Z"/>
      <path class="cls-11" d="M18.6,18.1s0,0,0,0c0,0,0,0,0,0,0,0,0,0,0,0s0,0,0,0h0s0,0,0,0Z"/>
      <path class="cls-39" d="M18.8,18.1s0,0,0,0c0,0,0,0,0,0,0,0,0,0,0,0,0,0,0,0,0,0h0s0,0,0,0Z"/>
      <path class="cls-11" d="M18.8,18.1s0,0,0,0c0,0,0,0,0,0,0,0,0,0,0,0,0,0,0,0,0,0h0s0,0,0,0Z"/>
      <path class="cls-19" d="M16.7,21.8c.1,0,.2.1.2.3s-.1.3-.3.3-.4-.1-.4-.3,0-.3.2-.3c0,0,0,0,0,0h0s0,0,0,0h0s0,0,0,0c0,0,0,0,0,0h0s0,0,0,0c0,0,0,0,0,0h0s0,0,0,0h0"/>
      <path class="cls-20" d="M16.5,22.5s-.3-.2-.4-.2c-.1,0-.3,0-.4,0h.1c0,.2.1.2.2.2.2,0,.4,0,.4,0M16.6,22.5s.2-.2.3-.2c.2,0,.3,0,.4,0,0,0,0,0-.1,0,0,0-.1,0-.3.1-.1,0-.3,0-.3,0h0"/>
      <path class="cls-9" d="M16.6,22.3c-.1-.1-.1-.3,0-.5,0,0,0,0,0,0,0,0,.1.2.1.2,0,0,0,.2-.1.2"/>
      <path class="cls-20" d="M16.5,22.7s0-.1,0-.2h0c0-.1,0-.1,0-.1,0,0,0,0,0,.1v.2s0,0,0,0h0"/>
      <path class="cls-38" d="M19.8,13.1s0,0,0,0,0,0,0,0,0,0,0,0,0,0,0,0"/>
      <path class="cls-11" d="M19.8,13.1s0,0,0,0,0,0,0,0,0,0,0,0,0,0,0,0h0Z"/>
      <path class="cls-38" d="M19.9,13s0,0,0,0,0,0,0,0,0,0,0,0c0,0,0,0,0,0h0"/>
      <path class="cls-11" d="M19.9,13s0,0,0,0,0,0,0,0,0,0,0,0c0,0,0,0,0,0h0Z"/>
      <path class="cls-38" d="M20,12.8s0,0,0,0c0,0,0,0,0,0,0,0,0,0,0,0,0,0,0,0,0,0,0,0,0,0,0,0"/>
      <path class="cls-11" d="M20,12.8s0,0,0,0c0,0,0,0,0,0,0,0,0,0,0,0,0,0,0,0,0,0,0,0,0,0,0,0Z"/>
      <path class="cls-38" d="M20,12.5s0,0,0,0c0,0,0,0,0,0,0,0,0,0,0,0,0,0,0,0,0,0s0,0,0,0"/>
      <path class="cls-11" d="M20,12.5s0,0,0,0c0,0,0,0,0,0,0,0,0,0,0,0,0,0,0,0,0,0s0,0,0,0Z"/>
      <path class="cls-38" d="M19.9,12.3s0,0,0,0c0,0,0,0,0,0,0,0,0,0,0,0,0,0,0,0,0,0,0,0,0,0,0,0"/>
      <path class="cls-11" d="M19.9,12.3s0,0,0,0c0,0,0,0,0,0,0,0,0,0,0,0,0,0,0,0,0,0,0,0,0,0,0,0Z"/>
      <path class="cls-38" d="M19.8,12.1s0,0,0,0,0,0,0,0,0,0,0,0c0,0,0,0,0,0h0"/>
      <path class="cls-11" d="M19.8,12.1s0,0,0,0,0,0,0,0,0,0,0,0c0,0,0,0,0,0h0Z"/>
      <path class="cls-38" d="M19.7,12s0,0,0,0,0,0,0,0,0,0,0,0c0,0,0,0,0,0h0"/>
      <path class="cls-11" d="M19.7,12s0,0,0,0,0,0,0,0,0,0,0,0c0,0,0,0,0,0h0Z"/>
      <path class="cls-38" d="M19.5,11.8s0,0,0,0,0,0,0,0,0,0,0,0c0,0,0,0,0,0,0,0,0,0,0,0"/>
      <path class="cls-11" d="M19.5,11.8s0,0,0,0,0,0,0,0,0,0,0,0c0,0,0,0,0,0,0,0,0,0,0,0h0Z"/>
      <path class="cls-38" d="M19.3,11.7s0,0,0,0,0,0,0,0,0,0,0,0c0,0,0,0,0,0"/>
      <path class="cls-11" d="M19.3,11.7s0,0,0,0,0,0,0,0,0,0,0,0c0,0,0,0,0,0Z"/>
      <path class="cls-38" d="M19.1,11.7s0,0,0,0,0,0,0,0,0,0,0,0c0,0,0,0,0,0h0"/>
      <path class="cls-11" d="M19.1,11.7s0,0,0,0,0,0,0,0,0,0,0,0c0,0,0,0,0,0h0Z"/>
      <path class="cls-38" d="M18.8,11.6s0,0,0,0,0,0,0,0,0,0,0,0c0,0,0,0,0,0"/>
      <path class="cls-11" d="M18.8,11.6s0,0,0,0,0,0,0,0,0,0,0,0c0,0,0,0,0,0h0Z"/>
      <path class="cls-38" d="M18.6,11.6s0,0,0,0c0,0,0,0,0,0,0,0,0,0,0,0,0,0,0,0,0,0,0,0,0,0,0,0"/>
      <path class="cls-11" d="M18.6,11.6s0,0,0,0c0,0,0,0,0,0,0,0,0,0,0,0,0,0,0,0,0,0,0,0,0,0,0,0h0Z"/>
      <path class="cls-38" d="M18.4,11.6s0,0,0,0,0,0,0,0,0,0,0,0c0,0,0,0,0,0"/>
      <path class="cls-11" d="M18.4,11.6s0,0,0,0,0,0,0,0,0,0,0,0c0,0,0,0,0,0Z"/>
      <path class="cls-38" d="M18.2,11.6s0,0,0,0,0,0,0,0,0,0,0,0c0,0,0,0,0,0h0"/>
      <path class="cls-11" d="M18.2,11.6s0,0,0,0,0,0,0,0,0,0,0,0c0,0,0,0,0,0h0Z"/>
      <path class="cls-17" d="M18.3,11.8s0,0,0,0,0,0,0,0,0,0,0,0c0,0,0,0,0,0h0M18.3,12s0,0,0,0,0,0,0,0,0,0,0,0c0,0,0,0,0,0h0M18.3,12.2s0,0,0,0c0,0,0,0,0,0,0,0,0,0,0,0,0,0,0,0,0,0,0,0,0,0,0,0M18.3,12.4s0,0,0,0c0,0,0,0,0,0,0,0,0,0,0,0,0,0,0,0,0,0,0,0,0,0,0,0h0M18.2,12.6s0,0,0,0,0,0,0,0,0,0,0,0c0,0,0,0,0,0h0"/>
      <path class="cls-38" d="M18,11.5s0,0,0,0,0,0,0,0,0,0,0,0c0,0,0,0,0,0h0"/>
      <path class="cls-11" d="M18,11.5s0,0,0,0,0,0,0,0,0,0,0,0c0,0,0,0,0,0h0Z"/>
      <path class="cls-38" d="M17.8,11.4s0,0,0,0,0,0,0,0,0,0,0,0c0,0,0,0,0,0h0"/>
      <path class="cls-11" d="M17.8,11.4s0,0,0,0,0,0,0,0,0,0,0,0c0,0,0,0,0,0h0Z"/>
      <path class="cls-38" d="M17.6,11.3s0,0,0,0,0,0,0,0,0,0,0,0c0,0,0,0,0,0h0"/>
      <path class="cls-11" d="M17.6,11.3s0,0,0,0,0,0,0,0,0,0,0,0c0,0,0,0,0,0h0s0,0,0,0Z"/>
      <path class="cls-38" d="M17.4,11.3s0,0,0,0,0,0,0,0,0,0,0,0c0,0,0,0,0,0"/>
      <path class="cls-11" d="M17.4,11.3s0,0,0,0,0,0,0,0,0,0,0,0c0,0,0,0,0,0h0Z"/>
      <path class="cls-38" d="M17.1,11.3s0,0,0,0,0,0,0,0,0,0,0,0c0,0,0,0,0,0"/>
      <path class="cls-11" d="M17.1,11.3s0,0,0,0,0,0,0,0,0,0,0,0c0,0,0,0,0,0Z"/>
      <path class="cls-38" d="M16.9,11.3s0,0,0,0c0,0,0,0,0,0,0,0,0,0,0,0,0,0,0,0,0,0,0,0,0,0,0,0h0"/>
      <path class="cls-11" d="M16.9,11.3s0,0,0,0c0,0,0,0,0,0,0,0,0,0,0,0,0,0,0,0,0,0,0,0,0,0,0,0h0Z"/>
      <path class="cls-38" d="M16.7,11.4s0,0,0,0,0,0,0,0,0,0,0,0c0,0,0,0,0,0"/>
      <path class="cls-11" d="M16.7,11.4s0,0,0,0,0,0,0,0,0,0,0,0c0,0,0,0,0,0Z"/>
      <path class="cls-38" d="M13.1,13.1s0,0,0,0c0,0,0,0,0,0,0,0,0,0,0,0,0,0,0,0,0,0,0,0,0,0,0,0,0,0,0,0,0,0"/>
      <path class="cls-11" d="M13.1,13.1s0,0,0,0c0,0,0,0,0,0,0,0,0,0,0,0,0,0,0,0,0,0,0,0,0,0,0,0,0,0,0,0,0,0h0Z"/>
      <path class="cls-38" d="M13,13s0,0,0,0,0,0,0,0,0,0,0,0c0,0,0,0,0,0,0,0,0,0,0,0"/>
      <path class="cls-11" d="M13,13s0,0,0,0,0,0,0,0,0,0,0,0c0,0,0,0,0,0,0,0,0,0,0,0h0Z"/>
      <path class="cls-38" d="M12.9,12.8s0,0,0,0,0,0,0,0,0,0,0,0c0,0,0,0,0,0,0,0,0,0,0,0"/>
      <path class="cls-11" d="M12.9,12.8s0,0,0,0,0,0,0,0,0,0,0,0c0,0,0,0,0,0,0,0,0,0,0,0Z"/>
      <path class="cls-38" d="M12.9,12.5s0,0,0,0,0,0,0,0,0,0,0,0,0,0,0,0"/>
      <path class="cls-11" d="M12.9,12.5s0,0,0,0,0,0,0,0,0,0,0,0,0,0,0,0h0Z"/>
      <path class="cls-38" d="M12.9,12.3s0,0,0,0,0,0,0,0,0,0,0,0c0,0,0,0,0,0,0,0,0,0,0,0"/>
      <path class="cls-11" d="M12.9,12.3s0,0,0,0,0,0,0,0,0,0,0,0c0,0,0,0,0,0,0,0,0,0,0,0Z"/>
      <path class="cls-38" d="M13.1,12.1s0,0,0,0c0,0,0,0,0,0,0,0,0,0,0,0,0,0,0,0,0,0,0,0,0,0,0,0"/>
      <path class="cls-11" d="M13.1,12.1s0,0,0,0c0,0,0,0,0,0,0,0,0,0,0,0,0,0,0,0,0,0,0,0,0,0,0,0h0Z"/>
      <path class="cls-38" d="M13.2,12s0,0,0,0,0,0,0,0,0,0,0,0,0,0,0,0"/>
      <path class="cls-11" d="M13.2,12s0,0,0,0,0,0,0,0,0,0,0,0,0,0,0,0Z"/>
      <path class="cls-38" d="M13.4,11.8s0,0,0,0,0,0,0,0,0,0,0,0c0,0,0,0,0,0,0,0,0,0,0,0"/>
      <path class="cls-11" d="M13.4,11.8s0,0,0,0,0,0,0,0,0,0,0,0c0,0,0,0,0,0,0,0,0,0,0,0h0Z"/>
      <path class="cls-38" d="M13.6,11.7s0,0,0,0,0,0,0,0,0,0,0,0c0,0,0,0,0,0,0,0,0,0,0,0"/>
      <path class="cls-11" d="M13.6,11.7s0,0,0,0,0,0,0,0,0,0,0,0c0,0,0,0,0,0,0,0,0,0,0,0Z"/>
      <path class="cls-38" d="M13.8,11.7s0,0,0,0,0,0,0,0,0,0,0,0c0,0,0,0,0,0"/>
      <path class="cls-11" d="M13.8,11.7s0,0,0,0,0,0,0,0,0,0,0,0c0,0,0,0,0,0h0Z"/>
      <path class="cls-38" d="M14,11.6s0,0,0,0c0,0,0,0,0,0,0,0,0,0,0,0,0,0,0,0,0,0,0,0,0,0,0,0"/>
      <path class="cls-11" d="M14,11.6s0,0,0,0c0,0,0,0,0,0,0,0,0,0,0,0,0,0,0,0,0,0,0,0,0,0,0,0Z"/>
      <path class="cls-38" d="M14.3,11.6s0,0,0,0,0,0,0,0,0,0,0,0c0,0,0,0,0,0,0,0,0,0,0,0"/>
      <path class="cls-11" d="M14.3,11.6s0,0,0,0,0,0,0,0,0,0,0,0c0,0,0,0,0,0,0,0,0,0,0,0h0Z"/>
      <path class="cls-38" d="M14.5,11.6s0,0,0,0,0,0,0,0,0,0,0,0c0,0,0,0,0,0,0,0,0,0,0,0"/>
      <path class="cls-11" d="M14.5,11.6s0,0,0,0,0,0,0,0,0,0,0,0c0,0,0,0,0,0,0,0,0,0,0,0Z"/>
      <path class="cls-38" d="M14.7,11.6s0,0,0,0,0,0,0,0,0,0,0,0c0,0,0,0,0,0"/>
      <path class="cls-11" d="M14.7,11.6s0,0,0,0,0,0,0,0,0,0,0,0c0,0,0,0,0,0Z"/>
      <path class="cls-17" d="M14.6,11.8s0,0,0,0,0,0,0,0,0,0,0,0c0,0,0,0,0,0M14.6,12s0,0,0,0,0,0,0,0,0,0,0,0,0,0,0,0M14.5,12.2s0,0,0,0,0,0,0,0,0,0,0,0c0,0,0,0,0,0,0,0,0,0,0,0M14.6,12.4s0,0,0,0c0,0,0,0,0,0,0,0,0,0,0,0,0,0,0,0,0,0,0,0,0,0,0,0M14.7,12.6s0,0,0,0,0,0,0,0,0,0,0,0c0,0,0,0,0,0"/>
      <path class="cls-38" d="M14.9,11.5s0,0,0,0,0,0,0,0,0,0,0,0c0,0,0,0,0,0"/>
      <path class="cls-11" d="M14.9,11.5s0,0,0,0,0,0,0,0,0,0,0,0c0,0,0,0,0,0h0Z"/>
      <path class="cls-38" d="M15.1,11.4s0,0,0,0,0,0,0,0,0,0,0,0c0,0,0,0,0,0,0,0,0,0,0,0"/>
      <path class="cls-11" d="M15.1,11.4s0,0,0,0,0,0,0,0,0,0,0,0c0,0,0,0,0,0,0,0,0,0,0,0h0Z"/>
      <path class="cls-38" d="M15.3,11.3s0,0,0,0,0,0,0,0,0,0,0,0c0,0,0,0,0,0"/>
      <path class="cls-11" d="M15.3,11.3s0,0,0,0,0,0,0,0,0,0,0,0c0,0,0,0,0,0h0Z"/>
      <path class="cls-38" d="M15.5,11.3s0,0,0,0c0,0,0,0,0,0,0,0,0,0,0,0,0,0,0,0,0,0,0,0,0,0,0,0,0,0,0,0,0,0"/>
      <path class="cls-11" d="M15.5,11.3s0,0,0,0c0,0,0,0,0,0,0,0,0,0,0,0,0,0,0,0,0,0,0,0,0,0,0,0,0,0,0,0,0,0h0Z"/>
      <path class="cls-38" d="M15.7,11.3s0,0,0,0,0,0,0,0,0,0,0,0c0,0,0,0,0,0,0,0,0,0,0,0"/>
      <path class="cls-11" d="M15.7,11.3s0,0,0,0,0,0,0,0,0,0,0,0c0,0,0,0,0,0,0,0,0,0,0,0Z"/>
      <path class="cls-38" d="M16,11.3s0,0,0,0c0,0,0,0,0,0,0,0,0,0,0,0,0,0,0,0,0,0,0,0,0,0,0,0"/>
      <path class="cls-11" d="M16,11.3s0,0,0,0c0,0,0,0,0,0,0,0,0,0,0,0,0,0,0,0,0,0,0,0,0,0,0,0h0Z"/>
      <path class="cls-38" d="M16.2,11.4s0,0,0,0,0,0,0,0,0,0,0,0c0,0,0,0,0,0,0,0,0,0,0,0"/>
      <path class="cls-11" d="M16.2,11.4s0,0,0,0,0,0,0,0,0,0,0,0c0,0,0,0,0,0,0,0,0,0,0,0Z"/>
      <path class="cls-6" d="M14.4,15.8h0c0,0-.1,0-.1,0v.3h.1v.2h-.2v.5h.1v1h-.2v.5h1.9v-.5h-.2v-1h.1v-.5h-.2v-.2h.1v-.2h-.1c0,0,0,0,0,0h0c0,0,0,0,0,0h0c0,0,0,0,0,0h0c0,0-.1,0-.1,0v.2h.1v.2h-.2v-.5h.1v-.2h-.1c0,0,0,0,0,0h0c0,0-.1,0-.1,0h0c0,0,0,0,0,0h0c0,0-.1,0-.1,0v.2h.1v.5h-.2v-.2h.1v-.2h-.1c0,0,0,0,0,0h0c0,0-.1,0-.1,0h0c0,0,0,0,0,0ZM13.9,18.1h1.9M13.9,18h1.9M13.9,17.8h1.9M13.9,17.7h1.9M13.9,17.6h1.9M14.2,17.5h1.4M14.2,17.4h1.4M14.2,17.2h1.4M14.2,17.1h1.4M14.2,17h1.4M14.2,16.9h1.4M14.2,16.7h1.4M14.1,16.6h1.6M14.1,16.5h1.6M14.1,16.4h1.6M14.1,16.2h1.6M14.3,16.1h1.2M14.8,16h.2M14.8,15.9h.2M14.8,15.8h.2M14.8,15.6h.2M14.6,15.5h.5M14.3,16h.2M14.2,15.8h.5M14.2,18.1h0M14.2,17.8h0M14.1,17.9h0M14.3,18h0M14.4,18.1h0M14.4,17.8h0M14.4,17.6h0M14.4,17.4h0M14.3,17.7h0M14.1,17.7h0M14.5,17.6h0M14.6,17.6h0M14.3,17.4h0M14.5,17.4h0M14.8,17.4h0M14.6,17.4h0M14.8,17.1h0M14.8,16.9h0M14.6,16.7h0M14.8,16.6h0M14.5,16.6h0M14.3,16.6h0M14.2,16.5h0M14.4,16.5h0M14.6,16.5h0M14.8,16.4h0M14.5,16.4h0M14.3,16.4h0M14.2,16.2h0M14.6,16.2h0M14.4,16h0M15.5,16h-.2M15.6,15.8h-.5M15.6,18.1h0M15.6,17.8h0M15.7,17.9h0M15.5,18h0M15.3,18.1h0M15.3,17.8h0M15.3,17.6h0M15.3,17.4h0M15.5,17.7h0M15.7,17.7h0M15.2,17.6h0M15.1,17.6h0M15.5,17.4h0M15.2,17.4h0M15,17.4h0M15.1,17.4h0M15,17.1h0M15,16.9h0M15.1,16.7h0M15,16.6h0M15.2,16.6h0M15.5,16.6h0M15.6,16.5h0M15.3,16.5h0M15.1,16.5h0M15,16.4h0M15.2,16.4h0M15.5,16.4h0M15.6,16.2h0M15.1,16.2h0M15.3,16h0M14.9,17.4h0M14.9,16.9h0M14.9,17.1h0M14.9,16.6h0M14.9,16.4h0M14.9,16h0M14.9,15.8h0M14.3,16h.2M14.8,15.6h.2M15.2,16h.2"/>
      <path class="cls-6" d="M15.2,18.1v-.3c0,0,0-.2-.3-.2s-.3.2-.3.2v.3h.6Z"/>
      <path class="cls-6" d="M14.7,17.8h-.1c0,0,0-.2,0-.2h.1c0,.1,0,.2,0,.2h0ZM15.1,17.8h.2c0,0,0-.2,0-.2h-.1c0,.1,0,.2,0,.2h0ZM14.9,17.6h0c0-.2,0-.2-.1-.2,0,0,0,0-.1,0h0c0,.1.1.1.1.1ZM14.6,17.2v-.3c0,0,0-.2-.2-.2s-.2,0-.2.2v.3h.3ZM15.1,17.2v-.3c0,0,0-.2.2-.2s.2,0,.2.2v.3h-.3ZM15,16.4v-.3s-.3,0-.3,0v.3h.3ZM15.2,16.4v-.3s.3,0,.3,0v.3h-.3ZM14.5,16.4v-.3s-.3,0-.3,0v.3h.3Z"/>
      <path class="cls-33" d="M15.1,18.1v-.3s0-.2-.2-.2c-.1,0-.2,0-.2.2,0,0,0,0,0,0v.3h.4ZM14.6,17.2v-.3c0,0,0-.2-.1-.2s-.1,0-.1.2v.3h.3ZM15.2,17.2v-.3c0,0,0-.2.1-.2s.1,0,.1.2v.3h-.3Z"/>
      <path class="cls-29" d="M15.5,18.6c0-.7.5-1.2,1.1-1.2s1.1.5,1.1,1.2-.5,1.2-1.1,1.2-1.1-.5-1.1-1.2"/>
      <path class="cls-24" d="M15.5,18.6c0-.7.5-1.2,1.1-1.2s1.1.5,1.1,1.2-.5,1.2-1.1,1.2-1.1-.5-1.1-1.2Z"/>
      <path class="cls-37" d="M15.8,18.6c0-.5.3-.9.8-.9s.8.4.8.9-.3.9-.8.9-.8-.4-.8-.9"/>
      <path class="cls-24" d="M15.8,18.6c0-.5.3-.9.8-.9s.8.4.8.9-.3.9-.8.9-.8-.4-.8-.9h0Z"/>
      <path class="cls-36" d="M16.2,18s0,0,0,.2,0,.2,0,.2c0,0,0,0,0,0,0,0,0,0-.1,0,0,0,0,0,0,0h0c0,0,0,.1,0,.1,0,0,0,0,0,0s0,0,0,0h0s0,0,0,0h0c0,0,0,0,0,0h0c0,.1,0,0,0,0h0c0,0,0,0,0,0h0s0,0,0,0h0c0,0,0,0,0,0,0,0,0,0,0,0,0,0,0,0,0,0s0,0,0,0h0c0,0,0-.1,0-.1,0,0,0,0,0,0s0,0,0,0c0,0,0,0,0-.2s0-.2,0-.2"/>
      <path class="cls-14" d="M16.2,18s0,0,0,.2,0,.2,0,.2c0,0,0,0,0,0,0,0,0,0-.1,0,0,0,0,0,0,0h0c0,0,0,.1,0,.1,0,0,0,0,0,0s0,0,0,0h0s0,0,0,0h0c0,0,0,0,0,0h0c0,.1,0,0,0,0h0c0,0,0,0,0,0h0s0,0,0,0h0c0,0,0,0,0,0,0,0,0,0,0,0,0,0,0,0,0,0s0,0,0,0h0c0,0,0-.1,0-.1,0,0,0,0,0,0s0,0,0,0c0,0,0,0,0-.2s0-.2,0-.2h0Z"/>
      <path class="cls-36" d="M16,18.6h.3c0,0-.3,0-.3,0h0Z"/>
      <path class="cls-12" d="M16,18.6h.3c0,0-.3,0-.3,0h0Z"/>
      <path class="cls-36" d="M16.9,18s0,0,0,.2,0,.2,0,.2c0,0,0,0,0,0,0,0-.1,0-.1,0h0c0,0,0,.1,0,.1,0,0,0,0,0,0s0,0,0,0c0,0,0,0,0,0h0c0,0,0,0,0,0h0c0,.1,0,0,0,0h0c0,0,0,0,0,0h0s0,0,0,0h0c0,0,0,0,0,0,0,0,0,0,0,0,0,0,0,0,0,0s0,0,0,0h0c0,0,0-.1,0-.1,0,0,0,0,0,0s0,0,0,0c0,0,0,0,0-.2s0-.2,0-.2"/>
      <path class="cls-14" d="M16.9,18s0,0,0,.2,0,.2,0,.2c0,0,0,0,0,0,0,0-.1,0-.1,0h0c0,0,0,.1,0,.1,0,0,0,0,0,0s0,0,0,0c0,0,0,0,0,0h0c0,0,0,0,0,0h0c0,.1,0,0,0,0h0c0,0,0,0,0,0h0s0,0,0,0h0c0,0,0,0,0,0,0,0,0,0,0,0,0,0,0,0,0,0s0,0,0,0h0c0,0,0-.1,0-.1,0,0,0,0,0,0s0,0,0,0c0,0,0,0,0-.2s0-.2,0-.2h0Z"/>
      <path class="cls-36" d="M16.7,18.6h.3c0,0-.3,0-.3,0h0Z"/>
      <path class="cls-12" d="M16.7,18.6h.3c0,0-.3,0-.3,0h0Z"/>
      <path class="cls-36" d="M16.5,18.6s0,0,0,.2,0,.2,0,.2c0,0,0,0,0,0,0,0,0,0,0,0h0c0,0,0,.1,0,.1,0,0,0,0,0,0,0,0,0,0,0,0,0,0,0,0,0,0h0c0,0,0,0,0,0h0c0,.1,0,0,0,0h0c0,0,0,0,0,0h0s0,0,0,0h0c0,0,0,0,0,0,0,0,0,0,0,0,0,0,0,0,0,0s0,0,0,0h0c0,0,0,0,0-.1,0,0,0,0-.1,0,0,0,0,0,0,0,0,0,0,0,0-.2s0-.2,0-.2"/>
      <path class="cls-14" d="M16.5,18.6s0,0,0,.2,0,.2,0,.2c0,0,0,0,0,0,0,0,0,0,0,0h0c0,0,0,.1,0,.1,0,0,0,0,0,0,0,0,0,0,0,0,0,0,0,0,0,0h0c0,0,0,0,0,0h0c0,.1,0,0,0,0h0c0,0,0,0,0,0h0s0,0,0,0h0c0,0,0,0,0,0,0,0,0,0,0,0,0,0,0,0,0,0s0,0,0,0h0c0,0,0,0,0-.1,0,0,0,0-.1,0,0,0,0,0,0,0,0,0,0,0,0-.2s0-.2,0-.2h0Z"/>
      <path class="cls-36" d="M16.4,19.2h.3c0,0-.3,0-.3,0h0Z"/>
      <path class="cls-12" d="M16.4,19.2h.3c0,0-.3,0-.3,0h0Z"/>
      <path class="cls-36" d="M18.7,15.4h0s0,0,0,0c0,0,0,0,0,0,0,0,0,0,0,0,0,0,0,0,0,0,0,0,0,0,0,0h0s0,0,0,0h0s0,0,0,0c0,0,0,0,0,0h0s0,0,0,0h0c0,.1,0,.2,0,.2,0,0,.1,0,.2.1,0,0,.1,0,.2.2h0c0,0,0,0,0,0h0s-.1,0-.1,0h0s0,0,0,0c0,0,0,0,0,0h0s0,0,0,0h0s0,0,0,0c0,0,0,0,0,0,0,0,0,0,0,0,0,0,0,0,0,0,0,0,0,0,0,0,0,0,0,0,0,0h0Z"/>
      <path class="cls-12" d="M18.7,15.4h0s0,0,0,0c0,0,0,0,0,0,0,0,0,0,0,0,0,0,0,0,0,0,0,0,0,0,0,0h0s0,0,0,0h0s0,0,0,0c0,0,0,0,0,0h0s0,0,0,0h0c0,.1,0,.2,0,.2,0,0,.1,0,.2.1,0,0,.1,0,.2.2h0c0,0,0,0,0,0h0s-.1,0-.1,0h0s0,0,0,0c0,0,0,0,0,0h0s0,0,0,0h0s0,0,0,0c0,0,0,0,0,0,0,0,0,0,0,0,0,0,0,0,0,0,0,0,0,0,0,0,0,0,0,0,0,0h0Z"/>
      <path class="cls-32" d="M18.5,15.4h0s0,0,0,0h0"/>
      <path class="cls-5" d="M18.5,15.4h0s0,0,0,0h0s0,0,0,0Z"/>
      <path class="cls-32" d="M18.6,15.5h0s0,0,0,0h0s0,0,0,0c0,0,0,0,0,0h0Z"/>
      <path class="cls-5" d="M18.6,15.5h0s0,0,0,0h0s0,0,0,0c0,0,0,0,0,0h0"/>
      <path class="cls-32" d="M18.5,15.4h0s0,0,0,0h0s0,0,0,0h0s0,0,0,0h0Z"/>
      <path class="cls-5" d="M18.5,15.4h0s0,0,0,0h0s0,0,0,0h0s0,0,0,0h0"/>
      <path class="cls-32" d="M18.4,15.4h0s0,0,0,0h0Z"/>
      <path class="cls-5" d="M18.4,15.4h0s0,0,0,0h0Z"/>
      <path class="cls-32" d="M18.7,15.5h0s0,0,0,0h0s0,0,0,0Z"/>
      <path class="cls-5" d="M18.7,15.5h0s0,0,0,0h0s0,0,0,0Z"/>
      <path class="cls-32" d="M18.7,15.6h0s0,0,0,0h0s0,0,0,0h0s0,0,0,0Z"/>
      <path class="cls-5" d="M18.7,15.6h0s0,0,0,0h0s0,0,0,0h0s0,0,0,0"/>
      <path class="cls-32" d="M18.8,15.6h0s0,0,0,0h0s0,0,0,0"/>
      <path class="cls-5" d="M18.8,15.6h0s0,0,0,0h0s0,0,0,0h0Z"/>
      <path class="cls-36" d="M18.6,15.2h0c0,0,0,0,0,0h0s0,0,0,0Z"/>
      <path class="cls-12" d="M18.6,15.2h0c0,0,0,0,0,0h0s0,0,0,0"/>
      <path class="cls-36" d="M18.5,15.3h0s0,0,0,0h0s0,0,0,0h0Z"/>
      <path class="cls-12" d="M18.5,15.3h0s0,0,0,0h0s0,0,0,0h0"/>
      <path class="cls-36" d="M18.6,15.3h0s0,0,0,0h0s0,0,0,0h0Z"/>
      <path class="cls-12" d="M18.6,15.3h0s0,0,0,0h0s0,0,0,0h0"/>
      <path class="cls-36" d="M18.5,15.3s0,0,0,0c0,0,0,0,0,0,0,0,0,0,0,0,0,0,0,0,0,0"/>
      <path class="cls-12" d="M18.5,15.3s0,0,0,0c0,0,0,0,0,0,0,0,0,0,0,0,0,0,0,0,0,0h0Z"/>
      <path class="cls-36" d="M18.4,15.2h0c0,0,0,0,0,0,0,0,0,0,0,0,0,0,0,0,0,0h0Z"/>
      <path class="cls-12" d="M18.4,15.2h0c0,0,0,0,0,0,0,0,0,0,0,0,0,0,0,0,0,0h0Z"/>
      <path class="cls-36" d="M18.5,15.3h0s0,0,0,0h0s0,0,0,0h0Z"/>
      <path class="cls-12" d="M18.5,15.3h0s0,0,0,0h0s0,0,0,0h0"/>
      <path class="cls-36" d="M18.4,15.2h0s0,0,0,0c0,0,0,0,0,0,0,0,0,0,0,0"/>
      <path class="cls-12" d="M18.4,15.2h0s0,0,0,0c0,0,0,0,0,0,0,0,0,0,0,0h0Z"/>
      <path class="cls-36" d="M18.7,15.3h0c0,0,0,0,0,0h0s0,0,0,0Z"/>
      <path class="cls-12" d="M18.7,15.3h0c0,0,0,0,0,0h0s0,0,0,0"/>
      <path class="cls-36" d="M18.6,15.3h0s0,0,0,0h0s0,0,0,0h0Z"/>
      <path class="cls-12" d="M18.6,15.3h0s0,0,0,0h0s0,0,0,0h0"/>
      <path class="cls-36" d="M18.8,15.4h0s0,0,0,0h0s0,0,0,0h0s0,0,0,0Z"/>
      <path class="cls-12" d="M18.8,15.4h0s0,0,0,0h0s0,0,0,0h0s0,0,0,0"/>
      <path class="cls-36" d="M18.7,15.4s0,0,0,0c0,0,0,0,0,0,0,0,0,0,0,0,0,0,0,0,0,0"/>
      <path class="cls-12" d="M18.7,15.4s0,0,0,0c0,0,0,0,0,0,0,0,0,0,0,0,0,0,0,0,0,0h0Z"/>
      <path class="cls-36" d="M18.9,15.5h0s0,0,0,0h0s0,0,0,0h0Z"/>
      <path class="cls-12" d="M18.9,15.5h0s0,0,0,0h0s0,0,0,0h0"/>
      <path class="cls-36" d="M18.9,15.6h0s0,0,0,0h0s0,0,0,0h0s0,0,0,0Z"/>
      <path class="cls-12" d="M18.9,15.6h0s0,0,0,0h0s0,0,0,0h0s0,0,0,0"/>
      <path class="cls-36" d="M18.8,15.5h0s0,0,0,0h0s0,0,0,0h0Z"/>
      <path class="cls-12" d="M18.8,15.5h0s0,0,0,0h0s0,0,0,0h0"/>
      <path class="cls-36" d="M18.8,15.5s0,0,0,0c0,0,0,0,0,0,0,0,0,0,0,0,0,0,0,0,0,0,0,0,0,0,0,0"/>
      <path class="cls-12" d="M18.8,15.5s0,0,0,0c0,0,0,0,0,0,0,0,0,0,0,0,0,0,0,0,0,0,0,0,0,0,0,0h0Z"/>
      <path class="cls-36" d="M18.9,15.6h0s0,0,0,0c0,0,0,0,0,0s0,0,0,0h0Z"/>
      <path class="cls-12" d="M18.9,15.6h0s0,0,0,0c0,0,0,0,0,0s0,0,0,0h0Z"/>
      <path class="cls-36" d="M18.9,15.6h0s0,0,0,0h0s0,0,0,0h0c0,0,0,0,0,0Z"/>
      <path class="cls-12" d="M18.9,15.6h0s0,0,0,0h0s0,0,0,0h0c0,0,0,0,0,0"/>
      <path class="cls-36" d="M18.9,15.6s0,0,0,0h0s0,0,0,0h0Z"/>
      <path class="cls-12" d="M18.9,15.6s0,0,0,0h0s0,0,0,0h0ZM21.6,14.1h0s-.2,0-.2,0h0s0,0,0,0h0c0,0,0,0,0,0h0s0,0,0,0h0s0,0,0,0h0s0,0,0,0h0s0,0,0,0h0c0,0,0,0,0,0"/>
      <path class="cls-28" d="M11.6,15h0M11.6,15h0M11.5,15h0M11.5,15h0"/>
      <path class="cls-5" d="M11.5,15h0M11.5,15h0M11.5,15h0M11.4,15h0M11.4,14.9h0M11.4,14.9h0M11.4,14.9h0M11.4,14.9h0M11.4,14.9h0M11.4,14.9h0M11.3,14.9h0M11.3,14.9h0M11.3,14.9h0M11.3,14.9h0M11.3,14.9h0M11.3,14.9h0M11.2,14.9h0"/>
      <path class="cls-3" d="M11.2,14.9h0"/>
      <path class="cls-28" d="M11.7,15h0M11.6,15h0M11.6,15h0M21.5,15h0M21.4,15h0M21.4,15h0M21.4,15h0"/>
      <path class="cls-5" d="M21.4,15h0M21.3,15h0M21.4,15h0M21.3,15h0M21.3,15h0M21.3,14.9h0M21.3,14.9h0M21.3,14.9h0M21.3,14.9h0M21.2,14.9h0M21.2,14.9h0M21.2,14.9h0M21.2,14.9h0M21.2,14.9h0M21.2,14.9h0M21.1,14.9h0M21.1,14.9h0"/>
      <path class="cls-3" d="M21.1,14.9h0"/>
      <path class="cls-28" d="M21.6,15h0M21.5,15h0M21.5,15h0"/>
    </g>
  </g>
</svg>