<?xml version="1.0" encoding="UTF-8"?>
<svg id="flag-icons-ad" xmlns="http://www.w3.org/2000/svg" version="1.1" viewBox="0 0 640 480">
  <defs>
    <style>
      .cls-1 {
        stroke-width: .9px;
      }

      .cls-1, .cls-2, .cls-3, .cls-4, .cls-5, .cls-6, .cls-7, .cls-8, .cls-9, .cls-10, .cls-11, .cls-12, .cls-13 {
        fill: none;
      }

      .cls-1, .cls-4, .cls-5, .cls-14, .cls-6, .cls-7, .cls-8, .cls-10, .cls-11, .cls-13 {
        stroke: #703d29;
      }

      .cls-15 {
        fill: #0065bd;
      }

      .cls-15, .cls-16, .cls-17, .cls-18, .cls-19, .cls-20, .cls-21, .cls-22 {
        stroke-width: 0px;
      }

      .cls-2, .cls-23, .cls-12 {
        stroke: #c7b37f;
      }

      .cls-2, .cls-7, .cls-8, .cls-10, .cls-12 {
        stroke-width: .6px;
      }

      .cls-2, .cls-8, .cls-9, .cls-13 {
        stroke-linecap: round;
      }

      .cls-3, .cls-24, .cls-9 {
        stroke: #fedf00;
        stroke-miterlimit: 2.6;
      }

      .cls-3, .cls-9 {
        stroke-width: .6px;
      }

      .cls-24 {
        fill: #fcd900;
        stroke-width: .3px;
      }

      .cls-16, .cls-14 {
        fill: #703d29;
      }

      .cls-23, .cls-17 {
        fill: #c7b37f;
      }

      .cls-23, .cls-25 {
        stroke-width: .3px;
      }

      .cls-4 {
        stroke-width: .5px;
      }

      .cls-5 {
        stroke-linejoin: round;
      }

      .cls-5, .cls-6, .cls-13 {
        stroke-width: .7px;
      }

      .cls-14 {
        stroke-width: .2px;
      }

      .cls-18 {
        fill: #d0103a;
      }

      .cls-7 {
        stroke-linecap: square;
      }

      .cls-25 {
        stroke: #d52b1e;
      }

      .cls-25, .cls-20 {
        fill: #d52b1e;
      }

      .cls-19 {
        fill: #fedf00;
      }

      .cls-11 {
        stroke-width: .8px;
      }

      .cls-21 {
        fill: #fff;
      }

      .cls-22 {
        fill: #0018a8;
      }
    </style>
  </defs>
  <path class="cls-18" d="M0,0h640v480H0V0Z"/>
  <path class="cls-19" d="M0,0h435.2v480H0V0Z"/>
  <path class="cls-22" d="M0,0h204.8v480H0V0Z"/>
  <path class="cls-17" d="M300.4,136.6c7.7,0,10.9,6.6,18.6,6.6s7.5-1.5,11.7-3.9c2.9-1.6,4.7-2.5,8-2.5s5.5,1,7.3,4c1,1.6,1.8,4.9,1.3,6.7-.6,2.9-1.5,5.6-2.7,8.3-.7,1.6-1.3,2.5-1.3,4.2,0,4.1,5.6,5.5,9.4,5.6.8,0,7.7,0,12-4.2-2.3-.1-4.9-2-4.9-4.3s1.8-4.3,4.3-5.1c.5-.1,1.3.3,1.7,0,.7-.3.4-1,1-1.4,1.2-1,2-1.6,3.6-1.6s1.6.1,2.5.7c.4.4.6.8,1,.8,1.2,0,1.8-.8,3-.8.8,0,1.6.2,2.3.6.6.3.6,1.5,1.4,1.5s2.4-.9,3.5-.9c2.2,0,3.4.8,4.8,2.5.4.5.6,1.4,1,1.4,2,.2,3.8,1.3,4.8,3,.3.4.7,1.4,1.1,1.5.6.3,1,.2,1.7.7,1.7,1,2.7,2.8,2.8,4.8,0,.7-.3,1.6-.5,2.2-1.8,6.5-6.3,8.6-10.8,14.3-2,2.4-3.5,4.3-3.5,7.4s1,2.1,1.3,2.7c-.2-1.4.5-3.2,2-3.3,2.1,0,3.8,1.5,4,3.6,0,.6,0,1.2-.3,1.8,1.2-.8,2.6-1.2,4-1.4h1.9c3.3,0,7,1.9,9.3,3.8,4.9,4.2,7.6,10.4,7.3,16.8-.8,5.2-.3,14.8-13.8,18.6,2.5,1,4.2,3,4.2,5.2.1,2.5-1.8,4.6-4.3,4.7,0,0,0,0-.1,0-1.3,0-2.6-.4-3.5-1.4-2.8,2.8-3.3,5.7-3.3,9.7s.4,3.8,1.4,6c1,2.2,1.8,3.5,3.7,5.1,1-1.5,2.1-2.6,4-2.6s3.2.6,3.9,2.2c.2.5,0,.9.3,1.4.3.6.8.7,1.1,1.3.5,1,0,1.8.5,2.7.3.7.9.8,1.2,1.4.4,1,.5,1.6.5,2.7,0,3-2.7,5.2-5.7,5.2s-1.4-.4-2.3-.3c1.7,1.7,3,2.5,4.3,4.5,2,3,3.1,6.6,3,10.3,0,3.9-.9,7.8-2.8,11.2-1.5,3.4-3.9,6.4-7,8.5-4.7,3.4-10.2,5.6-16,6.4-3.6.7-7.3,1.2-11,1.4l-14.1.8c-7.2.4-12.2,1.5-17.3,6.6,2.4,1.7,4,3.5,4,6.4s-1.8,5.3-4.7,6.2c-.7.2-1.2,0-1.9.4s-.7,1.3-1.4,1.7c-1.1.7-2.5,1.1-3.8,1-2.4.2-4.8-.7-6.4-2.5-2.2,1.8-3,3.4-5.5,4.9-.8.4-1.2,1-2.1,1-1.5,0-2.2-1-3.4-1.8-1.6-1.1-3.1-2.5-4.4-4-2.3,1.3-3.6,2.4-6.3,2.4-1.4,0-2.8-.3-4-1-.6-.5-.8-1.2-1.5-1.6-.7-.5-1.3-.3-2.1-.7-3-1.3-5-3.5-5-6.8s1.8-4.7,4.4-6c-5-5-10-5.8-17-6.2l-14-.8c-4.4-.3-6.8-.7-11-1.4-3.3-.5-5.2-.7-8.2-2.1-10.2-4.8-16.8-11.3-18-22.5-.2-1-.2-1.5-.2-2.5,0-5.8,2.3-9.4,6.4-13.5-1-.3-1.7,0-2.8-.3-2.5-1-4.4-2.7-4.4-5.5s0-1.7.5-2.6c.4-.6,1-.7,1.2-1.4.2-1,0-1.6.4-2.5.3-.5.8-.6,1-1.2,1-1.9,2-3.4,4.1-3.4s3,1,3.8,2.5c1.8-.8,2.2-2.1,3.2-3.7,2.5-4,3-8.9,1.4-13.3-.4-1.5-.6-2.5-1.8-3.7-1,1-2,1.4-3.4,1.4-2.9,0-5-2.5-5-5.3,0-2,1.1-3.8,3-4.6-1.6-1.4-3-1.5-4.7-2.6-2.6-1.6-3.5-3.4-5.2-6-1.2-1.6-1.5-2.8-2-4.7-.9-2.5-1.2-5.2-1-7.8.6-5,1.5-8,4.6-11.9,1.8-2.3,3-3.7,5.8-4.9,2.3-1,3.7-1.7,6.2-1.7h2c1,.2,1.9.4,2.8.9.4.2,1.1.9,1.1.4s-.3-.8-.3-1.3c0-2,1.5-4,3.6-4s2.1,1.4,2.9,2.7c.4-.8.7-1.4.7-2.3,0-3.4-1.9-5.2-4-7.9-4.7-5.8-10.5-8.5-10.5-16s1-3.7,3-4.9c.5-.3,1.3,0,1.8-.3s.4-1,.7-1.4c.5-.7,1-1,1.6-1.6,1-1,2-.6,3.1-1.5.6-.4.8-1,1.2-1.4,1.3-1.6,2.5-2.4,4.6-2.4s1.6,0,2.5.4l1,.5c.3-.2.8-.8,1.5-1.1.7-.4,1.4-.6,2.2-.6,1.1,0,1.8.6,3,.6s.4-.4.8-.6c1-.7,1.5-1,2.7-1s1.8.3,2.8,1c1,.5,1,1.3,2,1.8.5.3,1,.2,1.5.4,2.6.9,4.5,2.6,4.5,5.3s-.3,2.5-1.4,3.5c-.9.7-1.7.6-2.8,1,3.2,2.6,7.2,3.8,11.3,3.5,4.2,0,9.3-1.7,9.3-5.9s-1-3-1.8-4.8c-1.4-2.6-2.1-5.5-2.1-8.5,0-2.8.3-4.5,1.9-6.7,1.6-2.3,3.6-2.9,6.5-2.9"/>
  <g>
    <path class="cls-5" d="M272.4,159c.3,1.2,1.2,2.1,2.4,2.4.8.3,2.7.2,3.8-1.4,1-1.2,1-2.8.6-4-.3-.9-.9-1.7-1.7-2.2l-5.1,5.2Z"/>
    <path class="cls-13" d="M401,236.1c-1.2-2.9-4.3-1.6-4.4,0-.5,3.7,2.7,4.8,5,4.2,1.1-.3,2-1,2.5-2,.6-1,.8-2.4.4-3.7-.2-.6-.4-1.1-.8-1.6-.4-.5-.8-.9-1.3-1.2-.9-.6-1.9-.6-3.4-.6-5.5,0-10.4,6.5-12,13.4-.6,2.2-1.3,7.3-.3,12,.8,4.3,2.9,8.2,5.9,11.3,2.8,2.7,6.2,4.6,9.9,5.8,1.3.4,2.7.4,4,.1,3.2-.7,4.7-3.8,3-7-1.3-2.5-5.3-4-7.2-.6-.1.3-.4.9-.4,1.5,0,.9.4,2,1,2.4,1.5.9,3.8.6,3.7-2"/>
    <path class="cls-11" d="M383.8,274c1.7-2,4-3.3,6.6-3.7,3-.4,5.6.5,8.2,2,6.6,3,10.9,9.7,10.8,17,0,3.6-1,7.5-2,9.4-.8,1.7-3,9-15.3,14-7.1,3-18,3.6-25.7,4-10.4.3-20,.7-25.5,7.6"/>
    <g>
      <path class="cls-6" d="M386.4,285.7c-.3-1,0-2.1.8-3.3,1.2-1.6,3.7-2.1,6-1,1,.5,1.8,1.3,2.5,2.2l1.1,1.6c.7,1.1,1,2,1,2.5,2.5,7-1.4,14.5-6.5,17.6-4,2.4-8.7,3.4-14.4,4-2.5.4-4,.3-6.5.5h-9.6c-2.4-.1-4.8-.1-7.2,0-2.9.3-5,.4-7.6.8-1.6.2-3.4.5-5.4,1-.6,0-1.2.2-1.8.4l-1.2.3c-3.6,1.1-7,2.4-9.8,4.2-.8.5-1.8,1-2.5,1.7l-1.3,1.2c-2,2-3.9,4-4.4,6.7v1.6c0,1.8,1.4,4.3,5.4,5M330.5,162.7c.8,1.4,1.3,2.3.8,3.9-.6,1.7-1.8,2.8-3.6,2.8-4,0-6.3-4.8-4.5-7.8,3.2-5.3,9.3-2.3,15,.3-.3-1.3-.8-1.8-.7-3.5.1-4.2,3.2-6,4.5-10,.7-2.3,1-4.3-.7-6-1.5-1.3-3.2-1.3-5.1-.6-3.8,1.5-8.5,5.9-16.6,6-8.2-.1-12.8-4.5-16.7-6-2-.7-3.6-.7-5.1.7-1.7,1.6-1.4,3.6-.7,6,1.3,3.8,4.4,5.7,4.5,10,0,1.6-.4,2-.7,3.4,5.7-2.6,12-5.9,15-.3,1.7,3.2-.5,7.7-4.5,7.7s-3-1-3.6-2.7c-.4-1.5,0-2.8.8-4"/>
      <path class="cls-13" d="M314.6,159.9c1.7,1.1,2.6,3,2.4,5-.2,2.5-.8,3.1-2.8,4.5M316.6,165.6c-.1,1.5-.7,2.5-2.3,3.1"/>
    </g>
    <path class="cls-17" d="M276.7,153.3l.7.5.8.8.5,1,.2.8v1.9l-.2.8-.5.6-.6.6-.9.5-1,.2-1,.2-1-.5-.9-.6-.5-.8-.4-1v-.4l4.8-4.6Z"/>
    <path class="cls-13" d="M275.2,157.2c-.3-1.7-2.2-2-3-1-1.1,1.5-.3,4,2,4.7,1.5.3,3-.2,3.9-1.4,1-1.3.9-2.8.5-4-.3-.9-.9-1.7-1.7-2.2-2.7-2-7.1-1.6-8.6,2-1.8,4.4,2.2,7.8,6,10.3,4.6,3.2,10,3.8,14,3.8,9.2-.1,16.2-4.5,20.7-7,1-.6,2.1-.5,2.7.2.6.8.5,2-.3,2.7"/>
    <path class="cls-6" d="M248,281.2l-2,.7-2,1.6-1,1.3-1.1,2-.5,1.5-.4,1.8-.2,1.4M259.8,281.4v1.8c-.1,0-.4,1.2-.4,1.2l-1,2.2-1.3,1.8-1.5,1.2-1.1.5-1.6.4"/>
    <path class="cls-11" d="M319.7,329.1c-.3,1.7-1.9,3.6-5.3,4.2l-.6.2"/>
    <path class="cls-1" d="M404.2,276.2c3.7,3.5,5.7,8.4,5.6,13.5,0,3.6-1,7.5-2,9.4-.8,1.7-3,9-15.3,14-8.3,2.6-16.9,4-25.6,4-10.3.3-19.8.7-25.4,7.3"/>
    <path class="cls-10" d="M387.5,282.9c.8-1,3.5-2.4,5.8-1.1.9.5,1.7,1.2,2.3,2"/>
    <path class="cls-1" d="M401.6,273.8l1.4.5c1.3.4,2.7.4,4,0,2.8-.8,4.6-3.4,3.2-6.9-.4-.8-1-1.5-1.8-2.1"/>
    <path class="cls-13" d="M240.3,199.8c-2,1.1-3.3,1.4-4.8,3.1-1.2,2.1-2,4.4-2.6,6.8M278.9,158c0,1.8-1.2,2.8-3,3.2"/>
    <path class="cls-10" d="M397.1,192c10.5.2,18.8,8.9,18.6,19.4,0,.1,0,.3,0,.4,0,16-9.9,18.5-13.8,19.6"/>
    <path class="cls-6" d="M398.4,192c8.1-.3,16.5,5.7,16.9,20.7.3,11.7-8,17-12,18"/>
    <path class="cls-10" d="M393.8,248.4v-1.6c.1,0,.7-2.5.7-2.5l.7-2,.9-1.6,1-1.3M404.9,236v1.5l-.5,1-.7,1.1-.8.6-1.2.5h-1.9M385.5,187.8l.3-1.7.8-1.6,1-1.5,1.6-2.2,1.4-1.4,2-2.2,2-1.9,1.1-1.3,1.5-1.9,1.4-2,.8-1.7.5-2.2v-2.7c.1,0-.1-.8-.1-.8M387.5,290.9l1.6-.4,1.2-.6.7-.7.5-.8.3-1.2v-.9M233.6,274.2h2.7l1.6-.6M242.9,237.1l-.2,1.4-.4.6-.4.6-.7.5-.7.3h-1c0,.1-.6.1-.6.1M248.8,225.1l-.3,2.1-.5,1-.8,1.2-1.2.9-1.2.6-2.3.5M257.8,191.7l-.5,1.3-.5,1-.8,1-1,1-1.2.5-1.1.3h-.6M252.4,190.5v1"/>
    <g>
      <path class="cls-8" d="M254.3,224c-.6.6-1.3,1.1-2.1,1.4M402.7,270.2l.5.2c1.4.8,4.2-.2,3.4-2.4"/>
      <path class="cls-10" d="M397.8,239.6c1,1.3,2.9,1.7,4.4,1.3,1.1-.3,2-1,2.5-2,.6-1,.8-2.4.4-3.7-.2-.6-.5-1.1-.9-1.6-.4-.6-.8-1.1-1.3-1.5l-.4-.2M408.9,265.9c0-.2,0-.5.1-.7,0-1.1-.5-2.2-1.3-3l-.8-.8M407.3,261.9c0-1.8-1.5-3.2-3.4-3.5M399.7,261.2l-1.3-1c-2.7-2.9-4.3-6.7-4.3-10.7,0-4.2,1.6-8.4,3.6-10M341.2,324l1.8-1.6,1.2-1,2.3-1.4,2.2-1,1.6-.5,3-.6,3.6-.6M327.4,336.7c-1.9,2.7-4.5,4.9-7.6,6.1-3.1-1.3-5.7-3.4-7.6-6.1"/>
      <path class="cls-8" d="M314.4,332.6c-.4,1.6-1.1,3-2.2,4.2"/>
      <path class="cls-10" d="M314.7,330.5l-.4,2.2M312,337l-1,1-1.7.9-2,.6M301.7,161.7c.3-.8.5-1.4.5-2.6-.1-4.2-3.2-6.1-4.5-10-.7-2.3-1-4.3.7-6,1.4-1.4,3.2-1.4,5-.6,4,1.5,8.6,5.8,16.7,6-8.1-.2-12.8-4.5-16.6-6-2-.8-3.8-1-5.3.5-1.7,1.6-1.2,3.8-.5,6.1,1.3,3.9,4.2,5.8,4.3,10,0,1.2-.3,1.8-.5,2.6M320,148c8-.4,14.9-5.8,17.1-6.3,2-.4,3-.2,4.5,1.1-1.4-1.3-3-1.2-5-.5-3.8,1.5-8.4,5.8-16.6,6M399.6,261.2c-3.9-2.9-6.2-7.5-6.2-12.4s1.7-8.4,3.6-10M327,336.4c-1.3,2-4.3,5-7.6,6.2-3.1-1.3-5.7-3.5-7.6-6.2"/>
      <path class="cls-8" d="M306.7,163.7l2.3-1.3c1-.6,2.3-.5,2.9.2s.7,2-.2,2.8"/>
      <path class="cls-10" d="M294.7,169.3c5.5-1.2,10-3.6,13.4-5.5M340.3,328c.5.3.8,1,.8,1,.1.2.3.5.3.8.3,1.5-.7,2.4-2,2.6-1.7.2-3-.8-3.5-2M294.4,169c5.5-1.1,10-3.6,13.4-5.5M405.4,270.4c-1,.4-1.6.3-3-.2l-1.8-1c-3.6-2.1-6.6-5.2-8.4-9-.8-1.5-1.3-3-1.7-4.6-.3-1.1-.5-2.2-.5-3.3-.1-5.5,1.5-10.8,4.7-15.3,1.1-1.6,2.1-2.5,4.2-2.6M255.2,195.1c1.7,1.4,2.7,3.5,2.7,5.7,0,3.1-2.6,8.2-9,10-2.1.6-4.4.3-6.3-.8"/>
      <path class="cls-10" d="M256.3,205.6c1.1.8,1.6,1.7,1.6,3.3s-.7,2.4-1.9,3.7c-2.3,2.5-5.4,3.9-8.8,4-2,0-4-.4-6-1.7-1.9-1.3-3.3-3.2-3.8-5.4"/>
      <path class="cls-10" d="M256.2,212.3c1.3,1.2,1.7,2.7,1.7,4.6,0,2.7-1.1,4.8-3.7,7-.6.6-1.2,1-2,1.5M381.7,203.3v3.5M381.4,202.4v5M381.7,191.6v6.6M381.4,190.2v8.9M379.5,281.1c-1,2.1-2.5,4-4.2,5.6-1.7,1.7-3.6,3.1-5.8,4.1-2.1,1-4.3,1.8-6.6,2.2-2.2.5-4.5.8-6.8.9-2.5,0-3.9,0-6.4-.2-2.6-.2-4-.6-6.7-.8-2.2-.2-3.4-.4-5.6-.3-3.7-.1-7.5.5-11,1.8-2.6,1-5.7,3-6.3,3.8-1.9-1.6-4.1-2.9-6.4-3.8-1.6-.7-3.3-1.1-5.1-1.4-2.3-.4-3.5-.4-5.8-.4s-3.4.1-5.6.3c-2.6.3-4,.6-6.7.8-2.5.2-3.9.3-6.4.2-4.6,0-9.2-1.1-13.4-3-2.4-1.1-4.6-2.8-6.4-4.8M306.4,339.5l1.8-.2M338.5,336.9h1.8c0-.1,1.7-.8,1.7-.8l1.2-.8,1.7-2,.3-.6.3-1.7v-.8M392.5,193.5c.7-2.6-.2-5.4-2.8-5.3M257.7,234.7c-.5,1.9-1.8,3.6-3.5,4.7M257.8,192.7c-.6,1.8-1.9,3.2-3.6,4-1.9.8-4,0-5.2-.8"/>
      <path class="cls-8" d="M243.8,202.4c1.5.8,3.1-.4,2.8-2.4-.3-1.2-1.3-2.1-2.5-2.2"/>
      <path class="cls-10" d="M250.2,286.6c.3.3.4.7.8.8.7.2,1.2.4,1.9-.5.8-1.1.3-2.8-.5-3.9-1.5-1.6-3.9-2-5.8-1-.8.5-1.7,1-2.6,2.2l-1.1,1.6c-.7,1.1-1,2-1.1,2.4-2,5.9.4,12,4.1,15.7"/>
      <path class="cls-8" d="M340.2,327.8l.7.8.2.9c.3,1.5-.7,2.4-2,2.6-1.6.2-2.8-.8-3.3-2"/>
      <path class="cls-10" d="M389.4,154.8c3.5.5,6.1,3.5,6.3,7,0,4.4-1.5,6-3.8,9.2-2.5,3.4-10.7,9.6-10.7,16.7s1.2,7,4.3,8.4c2,1,4.3,0,5.4-1,2.6-2.4,1.5-6.5-1.2-7-3.2-.6-3.9,4.6-.7,4.3M406.9,261.4c-.3-1.7-1.8-3-3.6-3-2,0-3.7,1.7-3.7,3.7h0c0,1,.4,2,1,2.6"/>
      <path class="cls-10" d="M383.9,195.1c-1.7,1.4-2.7,3.5-2.7,5.7,0,3.1,2.6,8.2,9,10,2.4.7,4.8.6,6.2-.3M240.4,200.2c-1.9.6-3.6,1.8-4.8,3.5-2.4,3.8-3.2,8.3-2.2,12.7.4,2,1.2,3.9,2.3,5.6.3.4.6.8,1,1.2l1.2,1M301.9,316.2c4.9,2.1,8.4,3.7,11.4,8.5.8,1.5,1.2,3.2,1.2,4.9,0,2.7-1,5.7-3.3,7.6-1.8,1.6-4.3,2.4-6.7,2-1.9-.2-3.7-1.6-4-2.6M254,224.1c2.7,2.2,3.9,4.2,3.9,7.5.1,3-1.4,5.9-4,7.5"/>
      <path class="cls-8" d="M251.5,236.4c4,5.1,6.3,8.1,6.4,14.1.1,5.7-1.7,9.6-5,13.7"/>
      <path class="cls-10" d="M329.8,169.3c.7-.5,1.3-1.3,1.5-2.2.5-1.5.5-2.8-.2-4,1,1.4,1,2.5.7,4-.1,1-.8,1.5-1.6,2.3M381.7,255.5v18.7c-.2.6-.3,1.1-.4,1.7"/>
      <path class="cls-10" d="M381.4,254v19.9l-.5,2.6M381.4,233.5v14.6M381.7,234.7v11.8M381.7,219.7v8.8M381.4,218.6v11M381.7,210.6v3.5M381.4,209.9v5M379.6,280.1l-.4.7c-1,2.1-2.4,4.1-4.1,5.7-1.7,1.7-3.7,3-5.9,4-2.1,1-4.2,1.8-6.5,2.2-2.7.6-4.2.8-6.9.9-2.5,0-3.9,0-6.3-.2-2.7-.2-4.1-.5-6.8-.8-2.2-.2-3.4-.3-5.6-.3s-3.5,0-5.7.4c-1.8.3-3.5.7-5.2,1.4-2.7,1.1-5.7,3-6.4,3.8-.6-.8-3.7-2.7-6.3-3.8-1.7-.7-3.4-1.1-5.2-1.4-2.2-.4-3.5-.4-5.8-.4s-3.4.1-5.6.3c-2.6.3-4,.6-6.7.8-2.5.2-3.9.3-6.3.2-4.7,0-9.3-1.1-13.5-3-2.2-1-4.1-2.4-5.8-4.1-.9-.9-1.7-1.8-2.5-2.8M260.1,280.5c.3,2.8-.5,5.6-2.3,7.7-.8.9-2.6,2.6-5,2.6-3.7,0-4.8-2.5-5-3.2"/>
      <path class="cls-10" d="M255.6,278.9c.7.7,1.3,1.5,1.9,2.5,1,1.8.6,4.8-.1,6.2,0,.1-.2.3-.3.4M236.8,306c2.3,2.4,5.7,5,10.9,7.1,7.1,3,18.1,3.6,25.7,4,10,.3,19.3.7,25,7M315.7,320.1c1.8,1.4,3.2,3.3,4,5.5M312.4,337.1c-.2.2-.5.5-.7.7-1.8,1.6-4.2,2.3-6.6,2-2-.2-3.8-1.6-4.3-2.6M295.4,334.3l.3.4c1.3,1.4,3.2,2.3,5.1,2.4M327.8,337.1c-2,2.7-4.6,4.8-7.7,6.1-3.1-1.3-5.7-3.4-7.6-6.1l-.3-.5M327.8,337l.7.7c1.8,1.6,4.3,2.4,6.7,2,1.6-.2,3.1-1.1,4-2.5l.5-.7"/>
      <path class="cls-10" d="M339,336.6l-.7,1.2-1.1,1-1.7.7h-1.6"/>
      <path class="cls-10" d="M343,325.3c1,.8,1.9,1.7,2.4,2.9.3.7.4,1.5.5,2.3,0,1.5-.5,3.1-1.5,4.2-1.4,1.5-3.3,2.4-5.4,2.4-.1,0-.3,0-.4,0M338.8,336.9c-2,0-3.9-.7-5.2-2.2M397.3,266.8c-1.9-1.8-3.6-4-4.8-6.4-.8-1.4-1.3-2.9-1.7-4.5-.3-1.1-.5-2.2-.5-3.3-.1-5.5,1.5-10.8,4.6-15.3.7-.8,1.4-1.8,2.1-2.2M395.7,159.2c2.5.2,4.8,3,4.8,5.7s-1.3,5.5-4.4,9.3c-2.6,3.2-10.6,9-10.3,14.5,0,1,.5,2,1.1,2.8M383.7,195c.6.6,1.3,1.1,2,1.4,1.4.6,3,.4,4.3-.3M369,153c1,.6,1.7,1.5,2.2,2.6,1.8,4.5-2.2,7.9-6,10.4-2.5,1.7-5.3,2.8-8.3,3.3"/>
      <path class="cls-10" d="M364.6,161.6c-1.2,0-2.3-.6-3.1-1.5-.3-.3-.5-.6-.7-1M345.8,164c-.5-.3-.9-.6-1.2-1-1-1-1.5-2.3-.8-4.4.6-1.9,3.7-7.2,3.8-10.9.2-5.6-2-9-5.3-10.2"/>
      <path class="cls-8" d="M347.3,146.5v2c-.1,0-.7,2.2-.7,2.2l-1,3-1,1.9-.8,1.9-.4,1.3-.2,1v.9M381.3,287l.6.8c.7,1,3.2,3,5.5,3,3.7,0,4.6-2.6,4.7-3.2.5-2.9-.5-3.6-2-4.5,0,0-.8-.4-1.9-.2"/>
      <path class="cls-10" d="M237,274.4c-1.2.3-2.5.3-3.7,0-2.9-.9-5.2-3.6-4-7M242.7,235.6c.3.3.4.7.4,1,.4,3.8-2.8,4.8-5,4.2-1.2-.4-2.3-1.2-3-2.3-.4-.7-.7-1.5-.7-2.3M256.4,212.6c.6.5,1,1,1.3,1.7M256.6,205.8c.5.4.9.9,1.1,1.3"/>
      <path class="cls-8" d="M257.9,210.5c-.4.9-.9,1.7-1.6,2.4-2.3,2.5-5.4,3.9-8.8,4-2,0-4-.4-6-1.7-2-1.3-3.4-3.3-4-5.6"/>
      <path class="cls-10" d="M255.4,195.3c1.1.9,1.9,2.1,2.4,3.4"/>
      <path class="cls-8" d="M257.8,203.2c-.9,3-3.5,6.6-8.6,7.9-2.4.6-5.6-.2-6.6-1"/>
      <path class="cls-10" d="M240,202.6c.3,2.6,2,4.6,5.4,4.6,4.7.1,7.6-6.7,3.4-11.5"/>
      <path class="cls-8" d="M229.4,225.5c.7.9,1.5,1.7,2.4,2.4,1.8,1.5,3.8,2.6,6,3.3M243,231.7c4.2-.5,6.6-3.7,6-7.3-.3-2.8-2.8-5-4.6-5.1"/>
      <path class="cls-10" d="M249.8,188.1c1.9,0,3,1.6,2.9,3"/>
      <path class="cls-8" d="M249.4,163c.9,2.5,2.7,4.6,5,5.9M398.6,199.9c1.7,2.3.6,7-4,7-1.8,0-3.5-.9-4.5-2.5"/>
      <path class="cls-10" d="M381.7,169.1v15.9"/>
      <path class="cls-8" d="M243.8,202.3c1.4,1,3.3-.7,2.5-2.6-.5-1.2-2.2-2.6-4.7-.9-2.8,1.9-2,7.8,3.2,7.9,4.7,0,7.6-6.8,3.4-11.6-4-4.6-11.3-3.6-16,.2-3.6,3-6.2,7.1-7.2,11.7-.6,3-.6,6.2,0,9.2.5,2.7,1.5,5.2,3,7.5l1.3,1.7c.8.8,1,1.2,2,2,2.9,2.5,6.6,3.8,10.4,3.7,4.6-.2,7.3-3.4,6.8-7.3-.4-3.8-4.2-5.7-6.7-3.9-1.7,1.2-2.3,4.9.7,5.8,1.6.5,3.1-1.7,2-3M374,150.9c2.7-1.4,4.8-1.2,6.3,1,1.4,2.1,2,4.7,1.6,7.2-.4,2.3-1.6,4.4-3.5,5.8"/>
      <path class="cls-8" d="M380.5,152c3.1-2,6.5-1.1,8.3,1.6,1.3,2,1.7,3.6,1.6,6.1-.2,3.8-2.3,7.3-5.7,9.2"/>
      <path class="cls-10" d="M395,159.2c2.6.2,4.6,2.5,4.6,5.1,0,3.8-1,5.5-4,9.3-2.7,3.3-10.6,9-10.4,14.6,0,2.1,1.8,4,3.3,4.2"/>
      <path class="cls-8" d="M395.4,202.3c-1.5,1-3.3-.6-2.5-2.4.5-1.2,2.2-2.8,4.7-1.1,2.7,1.9,2,7.8-3.3,7.9-4.7,0-8-6.6-3.4-11.6,4-4.6,11.7-3.7,16.5.1,2,1.6,6.1,6,7,12,1,7,.9,15.6-6.4,21-3,2.1-7,3.1-10.6,3-4.6-.2-7.3-3.5-6.8-7.4.5-3.8,4-5.4,6.7-3.9,2.8,1.5,2.3,5.4-.7,5.8-1.7.2-3.1-1.7-2-3"/>
      <path class="cls-10" d="M392.9,199.9c.8-3.5,3.7-3.8,6.2-3.8,6.5.1,11.1,8,11.2,15.5,0,9.5-4,15.2-11,15.5-1.9,0-5-.8-5-3"/>
      <path class="cls-7" d="M397,198.3c6.9,1.6,9.3,7.8,9.3,13.8s-.5,11.6-10,13.9"/>
      <path class="cls-10" d="M408.4,265.3c.3-2.1-1.1-4.1-3.2-4.5-2.1-.3-4.1,1.1-4.5,3.2-.2,1.4.3,2.8,1.4,3.7"/>
      <path class="cls-8" d="M394.4,259.4c1.4,2,3,4.1,6.3,6M399.4,275.9c-3.2-2.2-9.5-5-15-2.2-2,.8-3.6,2.4-4.4,4.4-1.1,3.3-.4,6.9,1.8,9.5.9,1,2.7,2.6,5,2.7,3.8,0,4.7-2.6,4.8-3.2.4-2.8-1.2-3.9-2-4.1-.7-.3-2.8-.2-3.2,1.3-.2.5-.2,1.3.2,2"/>
      <path class="cls-8" d="M340.5,328.4c1,2.2-.2,3.2-1.6,3.4-2.2.3-3.3-1.4-3.4-3-.2-2.4,1.7-4.5,4.1-4.7,0,0,.1,0,.2,0,2.3,0,4.1,1.5,5,3.5.3.7.5,1.5.5,2.4,0,1.5-.4,3-1.4,4.1-1.4,1.5-3.3,2.4-5.4,2.5-4.2.1-7.5-3.8-7.5-7.8,0-7.7,11.4-12,16-13,5.9-1.4,11.9-2.2,17.9-2.4,3.5-.1,6.2,0,10.1-.5,3.5-.3,5.4-.5,9-1.3,4.7-1,9-3.2,12.6-6.4,2.9-2.7,4.5-4.5,5.9-8.2,1.6-4.6,1.1-9.7-1.3-13.9-2.2-3.7-6-6.2-10.3-6.8-3.7-.5-7,1.1-9,4.8-1,1.8-.6,4.8.1,6.2,1,1.7,2.8,2.9,4.8,3,3.8,0,4.7-2.6,4.8-3.2.4-2.8-1.2-3.9-2-4.2-.7-.2-2.8-.1-3.2,1.4-.2.5-.2,1.3.2,2"/>
      <path class="cls-8" d="M337.2,316.2c-4.8,2.1-8.4,3.7-11.4,8.5-.8,1.5-1.2,3.2-1.2,4.9,0,2.7,1.1,5.7,3.3,7.6,1.8,1.6,4.3,2.4,6.7,2,2-.2,3.7-1.6,4-2.6"/>
      <path class="cls-10" d="M385.1,224.1c-2.3.8-3.9,4.2-3.9,7.5-.1,3,1.4,5.9,4,7.5"/>
      <path class="cls-8" d="M387.6,236.4c-4,5.1-6.3,8.1-6.4,14.1,0,5.7,1.7,9.6,5.1,13.7"/>
      <path class="cls-10" d="M365.9,152l.3-.5c1.7-2.4,4.7-3.1,6.9-1.5,2.6,2,3.3,5.4,2.6,9-.5,2.2-2,4.1-4,5.5"/>
      <path class="cls-8" d="M265.1,150.8c-2.6-1.2-4.7-1-6.3,1-1.6,2-2.2,4.7-1.6,7.2.6,2.7,1.4,3.8,3.5,5.8"/>
      <path class="cls-10" d="M258.6,152c-2.6-1.9-6.2-1.3-8.1,1.3,0,0-.1.2-.2.3-1.2,1.8-1.8,3.9-1.6,6.1.2,4.2,2.8,7.6,5.8,9.2"/>
      <path class="cls-10" d="M249.7,154.8c-3.4.4-5.9,3.2-6,6.6,0,4.5,1,6.3,3.5,9.6,2.5,3.4,10.7,9.6,10.7,16.7s-1.2,7-4.3,8.4c-2,1-4.3,0-5.4-1-2.6-2.4-1.5-6.5,1.2-7,3.3-.6,3.9,4.6.7,4.3"/>
      <path class="cls-10" d="M244,159.2c-2.5.2-5,2.3-5,5s1.5,5.6,4.6,9.4c2.6,3.3,10.1,9,9.9,14.5,0,2-1.5,4.6-2.9,4.3"/>
      <path class="cls-8" d="M238,236.1c1.3-2.9,4.4-1.6,4.6,0,.4,3.7-2.8,4.8-5.1,4.2-1.1-.3-2-1-2.5-2-.6-1.1-.8-2.5-.4-3.7.2-.6.5-1.1.9-1.6.3-.5.7-.9,1.2-1.2,1-.6,1.9-.6,3.4-.6,5.5,0,10.4,6.5,12,13.4.6,2.2,1.3,7.3.3,12-.8,4.2-2.8,8.2-5.8,11.3-2.9,2.7-6.3,4.6-10,5.8-1.3.4-2.6.4-3.9.1-2.8-.9-4.6-3.5-3.2-7,1.2-2.6,5.4-4,7.3-.6.2.3.4.9.4,1.5,0,.9-.4,2-1,2.4-1.4.9-3.7.6-3.6-2"/>
      <path class="cls-10" d="M233.8,270.4c1,.4,1.6.3,2.9-.2l1.8-1c2.6-1.5,5.6-3.8,8.4-9.1.8-1.4,1.3-2.9,1.7-4.5.3-1,.5-2.2.6-3.3,0-5.5-1.6-10.8-4.8-15.3-1.1-1.6-2-2.5-4.2-2.6M230.7,265.4c-.4-2.1,1-4.2,3.1-4.6,2.1-.4,4.2,1,4.6,3.1.3,1.4-.3,2.8-1.4,3.7"/>
      <path class="cls-10" d="M232.2,261.4c.3-1.8,1.9-3,3.7-3,2,0,3.6,1.7,3.6,3.7,0,1-.3,1.9-1,2.6"/>
      <path class="cls-10" d="M239.4,261.3c3.9-2.9,6.2-7.5,6.2-12.4s-1.6-8.4-3.6-10"/>
      <path class="cls-8" d="M244.7,259.4c-1.5,2.5-3.7,4.6-6.3,6"/>
      <path class="cls-10" d="M254.6,273.7c-1-2.2-2.8-3.2-5.8-3.5s-5.5.5-8.2,1.9c-6.6,3.1-10.8,9.7-10.8,17,0,3.3.7,6.5,2,9.5.9,1.6,3,9,15.3,14,8.3,2.6,17,3.9,25.7,3.9,10.4.4,20,.8,25.6,7.6"/>
      <path class="cls-8" d="M239.7,275.9c3.3-2.2,9.5-5,15.1-2.2,2,.8,3.5,2.4,4.3,4.4,1.1,3.3.4,6.9-1.8,9.5-.9,1-2.7,2.6-5,2.7-3.8,0-4.7-2.6-4.8-3.2-.4-2.8,1.2-3.9,2-4.2.7-.2,2.8-.1,3.2,1.4.2.5.2,1.3-.2,2"/>
      <path class="cls-10" d="M252.7,285.7c.3-1,.2-2.2-.8-3.3-1.6-1.6-4-2-6-1-.7.5-1.6,1-2.4,2.2-.4.4-1,1.1-1.2,1.6-.7,1.1-1,2-1,2.5-2.5,7,1.5,14.4,6.5,17.6,4.4,2.8,8.8,3.6,14.4,4,2.5.3,4,.3,6.5.5h9.6c2.4-.1,4.8-.1,7.2,0,3,.3,5.1.4,7.6.8,1.6.2,3.5.5,5.4,1,.6,0,1.2.2,1.8.4l1.2.3c3.6,1.1,7,2.4,9.8,4.2.8.5,1.8,1,2.5,1.7l1.3,1.2c2,2,4,4,4.4,6.7v1.6c0,1.8-1.4,4.3-5.3,5"/>
      <path class="cls-10" d="M298.6,328.4c-1,2.2.2,3.2,1.6,3.4,2.2.3,3.3-1.4,3.5-3,.2-2.4-1.7-4.5-4.1-4.7-.1,0-.2,0-.3,0-2.2,0-4.2,1.4-5,3.5-.3.8-.5,1.6-.5,2.4,0,1.5.4,3,1.4,4.1,1.4,1.5,3.3,2.4,5.4,2.5,4.2.1,7.5-3.8,7.5-7.8,0-7.7-11.4-12-16-13-5.9-1.4-11.9-2.2-17.9-2.4-3.5-.1-6.2,0-10.1-.5-3.5-.3-5.4-.5-9-1.3-4.7-1-9-3.2-12.5-6.4-6.9-5.1-8.9-14.5-4.7-22,2.2-3.7,6-6.3,10.3-6.9,3.8-.5,7,1.1,9,4.8,1,1.8.6,4.8-.1,6.2-1,1.7-2.8,2.9-4.8,3-3.8,0-4.7-2.6-4.8-3.2-.4-2.8,1.2-3.9,2-4.2.7-.2,2.8-.1,3.2,1.4.2.5.2,1.3-.2,2"/>
      <path class="cls-8" d="M273.3,152l-.4-.5c-1.7-2.4-4.7-3.1-6.9-1.5-2.6,2-3.3,5.4-2.5,9,.6,2.3,2,4.3,4,5.5"/>
      <path class="cls-10" d="M366.8,159.6c-4,4.4-8.1,5.8-14.1,6-2,0-5.5-.6-7.6-2.1-1.3-1-2.8-2.6-1.9-5.5.6-1.9,3.7-7.2,3.8-10.9.3-5.6-1.9-8.7-5.3-9.9-6.2-2.2-13,4-17,5.4-2.1.7-3.2.8-5.1.8s-3-.1-5.2-.8c-4-1.4-10.7-7.6-17-5.4-3.4,1.2-5.5,4.3-5.3,10,.1,3.6,3.2,9,3.8,10.8,1,2.9-.5,4.5-1.9,5.5-2,1.5-5.7,2.1-7.5,2-6-.1-10.1-1.5-14.1-5.9"/>
      <path class="cls-8" d="M297.3,314.4c.8.3.2-.2,5.3,2,4.7,1.6,8.6,4.8,11.3,8.9,1.2,2.2,1.5,4.8.9,7.3"/>
      <path class="cls-10" d="M297.7,336c1,.5,2.1.8,3.2.9,4.2.1,7.5-3.8,7.5-7.8s-1.5-5.2-3.6-7"/>
      <path class="cls-8" d="M298.6,328.4c-1,2.3.4,3.5,1.8,3.7,2.2.2,3.4-1.4,3.6-3,.1-1.7-.7-3.3-2.2-4.2"/>
      <path class="cls-10" d="M390.1,154.8c3.2,0,6,3.6,6,7.2s-2.2,6.9-3.9,8.8c-1.3,1.6-2.7,3-4.4,4.7"/>
      <path class="cls-8" d="M386.3,151.4c1.1.6,2,1.4,2.8,2.4,1.3,2,1.7,3.7,1.6,6.2-.2,4.2-3.2,7.1-6,9M380,151.4l.6.7c1.9,2.2,2,5.4,1.6,7.2-.5,2.3-1.8,4.2-3.8,5.4M373.4,150.3c2.6,2,3.4,5.4,2.5,9-.6,2.5-2.2,4-4.2,5.2M382.8,205.6c.3,1,.9,1.3,1.5,2,1.7,1.7,3.9,2.9,6.2,3.5,2.4.7,4.6.2,6.3-.9M233.8,264.2c1.2,0,2.5.9,3.3,2.3.1.2.4.8.4,1.5s-.4,1.8-1,2.2c-1.5,1-4,.5-4-2"/>
      <path class="cls-10" d="M241.5,231.3c5,1,9.7,6.9,11.2,13.3.6,2.3,1.3,7.3.3,12-.8,4.3-2.9,8.3-6,11.4-.6.7-1.3,1.3-2.1,1.9l-1,.7M235.9,258.5c2,0,3.8,1.9,3.8,4,0,1-.3,1.9-1,2.6"/>
      <path class="cls-10" d="M234.6,260.7c2.1,0,4.1,2,4.1,4.2,0,1.2-.5,2.3-1.4,3"/>
      <path class="cls-8" d="M254,239.5c1.9,2.2,3.2,4.9,3.8,7.7M257.8,255.7c-.3,1.4-.8,2.7-1.5,4-.9,1.8-2.1,3.3-3.6,4.7"/>
      <path class="cls-10" d="M254.3,224.3c1.8,1.5,3,3,3.5,4.8"/>
      <path class="cls-8" d="M257.9,219.5c-.7,1.8-1.8,3.4-3.4,4.6M245.3,206.9l2.2-.6,1.3-1,.8-1.1.7-1.8.3-1.5"/>
      <path class="cls-10" d="M241,199.3c-.7.2-1.6.4-2.5.8-1.4.7-2.6,1.7-3.5,3-2.4,3.8-3.2,8.3-2.2,12.7.4,2,1.2,3.9,2.3,5.6l1,1.4c1.4,1.3,2.6,2,4.6,1.7"/>
      <path class="cls-8" d="M253,189.8c-.3,1.3-1,2.9-3,2.7"/>
      <path class="cls-10" d="M245.7,198.5c-2-1.9-6-2.4-10.1.2l-1.6,1.3c-.5.5-1,1-1.4,1.6-1.1,1.5-1.9,3.2-2.4,5-.7,3-.7,5.6-.6,6.3,0,1,.2,1.9.3,2.7.6,2.8,1.4,4.8,2.3,6.2.9,1.5,3,5,7.7,5.4,1.8.1,4.8-.7,5-3"/>
      <path class="cls-8" d="M363.8,157c.3-1.6,2.3-1.9,3-1,1.2,1.6.4,4.2-2,4.9-1.4.3-2.9-.3-3.8-1.4-1-1.3-.9-2.8-.5-4,.2-.8.9-1.5,1.7-2.2,2.7-2,7.1-1.6,8.6,2,1.8,4.4-2.2,7.8-6,10.3-4.6,3.2-10,3.8-14,3.7-9.2,0-16.1-4.4-20.7-7-1-.5-2.1-.4-2.7.3-.6.8-.5,2,.3,2.7"/>
      <path class="cls-8" d="M365.6,155.5c1,0,1.2.4,1.5.8,1.2,1.5.3,4.1-2,4.9M382.9,212.7c-3.5,3.8-.2,10.3,2.4,11.8.9.7,1.3.3,2,.7"/>
      <path class="cls-10" d="M383.1,205.4c-1.1.8-1.5,1.7-1.6,3.3-.1,1.5.4,2.9,1.4,4,2.5,2.3,5.8,3.7,9.3,3.7,2,0,4-.4,6-1.7,1.9-1.3,3.3-3.2,3.8-5.4M381.2,271.1l-.2,2.5c-.2,2.4-.9,4.8-2,7-1,2.1-2.5,4-4.2,5.6-1.7,1.7-3.7,3-5.9,4-2,1.1-4.2,1.8-6.5,2.3-4.3.9-8.8,1.1-13.2.6-2.7-.2-4.1-.5-6.8-.8-2.2-.1-3.4-.3-5.6-.3-3.7,0-7.4.6-10.9,1.9-2.7,1-5.7,3-6.4,3.8-.6-.9-3.7-2.8-6.3-3.8-1.7-.7-3.4-1.2-5.2-1.5-2.2-.4-3.5-.4-5.8-.4s-3.4.2-5.6.4c-2.6.2-4,.6-6.7.7-2.5.2-3.9.3-6.3.2-2.4,0-4.7-.3-7-.8-2.3-.4-4.4-1.2-6.5-2.2-2.2-1-4.1-2.4-5.8-4.1-1.8-1.6-3.2-3.5-4.2-5.7-1.1-2.2-1.8-4.5-2-6.9-.2-1-.2-2.5-.2-2.5v-101.8h123.2v101.8Z"/>
    </g>
    <g>
      <path class="cls-23" d="M248,285.6c0-1.4,1.1-2.5,2.5-2.5s2.5,1.1,2.5,2.5-1.1,2.5-2.5,2.5-2.5-1.1-2.5-2.5ZM232.5,268c0-1.3.8-2.3,1.8-2.3s1.7,1,1.7,2.3-.8,2.2-1.7,2.2-1.8-1-1.8-2.2Z"/>
      <path class="cls-17" d="M241.3,223.6c0-1,.8-1.8,1.7-1.8s1.7.8,1.7,1.8-.7,1.8-1.7,1.8-1.7-.8-1.7-1.8M272,158c0-1,.5-2,1.4-2,.9-.1,1.7.6,1.8,1.6,0,1-.5,2-1.4,2-.9.1-1.6-.6-1.8-1.6"/>
    </g>
    <g>
      <path class="cls-2" d="M239.3,234c-.4.1-.6.2-.8.5-.3.3-.4.4-.6.9l-.2,1.2M242.4,263.3l1-1,.6-1,.5-1,.7-1.3M243.9,273l-1.5.7-1.1.6c-.4.2-.9.5-1.3.8l-1.2,1M253.8,238.2l-.8-.8-1-.8-.9-.8"/>
      <path class="cls-12" d="M254.2,225l-1.2.5c-.5.2-1,.3-1.5.3"/>
      <path class="cls-2" d="M237.4,208.4c.2.6.2,1,.5,1.5.2.7.5,1.1.9,1.7.6,1.1,1.5,2,2.6,2.7l1.5.8M241.9,209.3l1.3.6c.9.4,2,.6,3,.6h1.8M255.2,169.7l-2-1.2c-.9-.5-1.3-.9-2-1.5-.4-.4-.8-.8-1.1-1.3l-.8-1.3M256.8,159.8l.6,1.7c.4.7.8,1.4,1.4,2,1,1,1.7,1.3,2.8,2.2M263,159.7c.3.7.3,1,.7,1.6.2.5.4.8.8,1.2l1.3,1.3c.7.6,1.2.7,2,1.1"/>
    </g>
    <path class="cls-14" d="M333.3,151.6c0-1.7-1.7-1.8-2.4-1.8-1.8,0-2.3,1.1-4.6,2.3-2,1.3-4.3,2-6.7,2-2.4,0-4.7-.7-6.7-2-2.3-1.2-2.7-2.3-4.6-2.3-1.3,0-2.3,1.1-2.2,2.4h0v.9l.3.2c0-.8.1-1.2.5-1.7.4-.5,1-.8,1.6-.8,1.8,0,2.5,1.2,4.8,2.4,3,1.6,4.2,1.9,6.7,2,2.4,0,4.8-.7,6.8-2,2.3-1.2,3-2.5,4.8-2.5s1,.4,1.3,1v.9h.2c0-.2.2-.3.2-.9h0Z"/>
  </g>
  <g>
    <path class="cls-16" d="M264.4,294c.5-.5.9-.3,1-.6q0-.2-.3-.3l-.9-.2-.8-.4c-.1,0-.4-.2-.5,0-.1.4,1,.4.6,1.4-.2.4-.5.9-.8,1.2l-2.6,3h-.2c0,.1,0-4.2,0-4.2v-1.8c.3-.4.9,0,1-.4,0-.1,0-.2-.3-.3-.2,0-.5,0-1.1-.3l-1-.5c-.2,0-.5-.2-.6,0v.3c.5.2.6.4.6,1v7.4c0,.5.1.6.2.7.1,0,.2,0,.4-.3l5.3-5.7Z"/>
    <path class="cls-16" d="M267.5,295.2c.3-1.1,1-.4,1-.8.1-.2,0-.2-.2-.3l-1.3-.4c-.4,0-.8-.3-1.2-.4,0,0-.3-.1-.4,0-.1.5,1.1.5.8,1.5l-1.7,5.5c-.3,1-1,.6-1.1,1h0c0,.1,1.2.5,1.2.5l1.6.5h.3c.2-.4-1.2-.3-.7-1.7l1.7-5.4ZM271.2,296.2c.2-.6.5-.5.9-.4,1,.3,1.4,1.3,1,2.5-.2.6-.4,1.2-2,.8-.3-.1-.7-.2-.6-.5l.7-2.3h0ZM268.4,301.2c-.5,1.4-1.2.8-1.3,1.2,0,.2.2.2.3.3l1.6.4.8.3h.4c.1-.5-1-.3-.7-1.5l.6-2c.1-.4.1-.5.6-.3.6.1.7.3.8.8l.3,2c.2.9.3,1.7,1,2,.5,0,1.2,0,1.4-.4l-.2-.2h-.3s-.3,0-.3-.3l-.7-3.6c0-.2.4-.2.8-.3.5-.3.9-.7,1-1.3.1-.5.4-2.2-1.8-2.9l-2.1-.5-1.2-.4h-.3c-.1.5,1.1.4.7,1.7l-1.4,5ZM276.8,303.7c-.4,1.4-1.4.5-1.5,1,0,.2.1.3.3.3l1.5.3,1.4.4c.3,0,.5.2.6-.1,0-.3-1.3-.3-1-1.8l1.3-5.2c0-.6.2-.6.6-.5l1,.2c1.1.3.5,1.5,1,1.6.2,0,.2-.4.2-.6v-1c.1,0,.1-.4.1-.4l-3.3-.7-3.2-.8c-.1,0-.2,0-.2.2l-.5,1.5c-.1.1-.2.4,0,.4.5.1.5-1.5,1.7-1.2l.9.2c.4.1.5.2.4.8l-1.3,5.4ZM289.5,300.4c.4-.6.8-.5.9-.7,0-.2-.2-.2-.4-.3h-.9l-.9-.3c-.1,0-.4-.1-.4.1-.1.4,1,.2.8,1.3,0,.2-.1.6-.6,1.3l-2,3.3-.3.2v-.2l-.7-4c-.1-.6-.2-1.2-.1-1.8,0-.5.7-.2.7-.5s0-.2-.4-.3h-1.1c-.4-.1-.7-.3-1-.4-.2,0-.5-.1-.6.1v.2c.6.2.7.4.8.9l1.3,7.3c.1.5.2.7.3.7s.2,0,.4-.3l4.2-6.6ZM290.1,307.2q0,.3.2.5c.6.2,1,.6,1.7.7,1.4.2,2.6-.7,2.8-2.2.3-1.5-.3-2.1-1.4-2.9-1.3-.9-1.8-1.1-1.7-2,.1-.7.7-1,1.4-1,1.8.3,1.6,2.6,1.8,2.6.3,0,.3-.1.3-.4l.2-1.6v-.4h-.6c-.4,0-.7-.5-1.6-.7-1.2-.2-2.3.7-2.5,2-.2,1.2.4,1.8,1.2,2.4,1.6,1.1,2.2,1.4,2,2.4-.1,1-.9,1.4-1.7,1.3-1.2-.2-1.6-1.4-1.8-2.6,0-.2,0-.3-.2-.3s-.2.3-.2.5v1.7h.1ZM305.9,302.7c.3-.7.8-.6.8-.9s-.1-.1-.4-.2h-1.8c-.1-.1-.4-.1-.4.1,0,.4,1,0,1,1.1s-.1.6-.5,1.4l-1.8,3.5v.3c-.1,0-.2-.3-.2-.3l-1.1-4c-.2-.5-.3-1.1-.3-1.6,0-.5.7-.3.7-.6s0-.2-.4-.2h-1.2l-1-.2c-.2,0-.5-.1-.6.1l.2.2c.4.2.6.3.7.8l2.1,7.1.4.7c.1,0,.2,0,.3-.4l3.5-6.9Z"/>
    <path class="cls-16" d="M307.6,308.5c0,1.2-1,1-1,1.5s.1.1.3.1h2.6c0-.7-1.4.1-1.4-2.1v-4.2h.1c0-.1.2,0,.2,0l5.1,6.3h.3c0,.1.2-.2.2-.2v-6.7c0-1.3,1-1,1-1.3,0,0,0-.2-.3-.2h-2.3c-.2,0-.2.1-.2.2,0,.4,1.3.2,1.3,1.3v4.4c-.1,0-.5-.3-.5-.3l-4.2-5.3c-.2-.3-.1-.3-.4-.3h-2c0,.7,1.2-.1,1.2,2.2v4.6ZM318,303c0-1.1.8-.7.8-1.1s0-.2-.4-.2h-2.6s-.3,0-.3.2c0,.4,1.1,0,1.1,1.2v5.7c0,1.1-.8.8-.8,1.2,0,0,0,.2.2.2h2.8c.2,0,.3,0,.3-.2,0-.4-1.2.2-1.2-1.3v-5.7ZM322.5,308.5c0,1.5-1.2,1-1.2,1.4s.2.2.4.2h3c.3,0,.5,0,.5-.3s-1.4,0-1.4-1.4v-5.4q0-.6.5-.6h1c1.2-.1.8,1.2,1.3,1.2s.1-.4.1-.6v-1c-.1-.2-.1-.4-.3-.4h-3.3c0,.1-3.3.1-3.3.1l-.2.3v1.6c-.1,0,0,.4,0,.4.5,0,.2-1.6,1.4-1.6h.9c.4,0,.5,0,.6.6v5.6h0ZM328.8,306.3h-.4v-.5c.1,0,.8-2.2.8-2.2v-.2h.2c0,.1,1,2.2,1,2.2l.2.4c0,.2-.2.2-.4.2h-1.4ZM330.6,306.8q.3,0,.8,1l.2.8c0,.7-.7.6-.7,1s.2.1.4,0h2.5c.3-.1.4-.1.4-.3,0-.4-.6,0-1-.7l-3.4-7-.3-.4c-.2,0-.2.2-.3.4l-2.2,7.4c-.2.7-.8.7-.7,1h2.3c.2-.1.5,0,.5-.3s-1.2,0-1.3-.9l.2-1c.2-.8.4-.8.6-.8l2.1-.2h-.1ZM338.9,301.8c-.1-.8,0-.8,1.2-1,2-.2,1.4,1.3,2,1.2.2,0,0-.4,0-.6v-1.1c-.1-.1-.2-.2-.4-.2-1,0-1.7.2-2.4.3l-2.8.4c-.2,0-.3,0-.3.2.1.5,1.3,0,1.4,1l.7,5.5c.2,1.5-.7,1-.6,1.5,0,0,0,.1.2,0h1.4c0-.1,1.2-.2,1.2-.2.3,0,.5,0,.5-.3s-1.2.1-1.4-1.2l-.2-1.7c-.1-.7-.1-.9.3-1h.8c1.1-.2,1,1.1,1.3,1,.3,0,.2-.4.1-.5l-.3-2.1c0-.3-.2-.3-.2-.3-.3,0-.1,1.1-1,1.2h-.7c-.5.2-.5.1-.6-.4l-.2-1.7ZM342.9,304.6c.4,2.3,2.1,3.7,4.2,3.3,3.4-.7,3.5-3.6,3.2-5.3-.5-2.5-2.3-3.7-4.4-3.3-2.5.5-3.5,2.7-3,5.3M344,303.6c-.3-1.6,0-3.4,1.7-3.7,1.4-.3,3,.8,3.4,3.4.3,2,0,3.6-1.8,4-1.9.4-3-2-3.3-3.6h0ZM352.3,299.5c-.1-.7.2-.8.6-.9,1-.2,1.8.5,2.1,1.6.2.7.3,1.4-1.3,1.8-.3,0-.7.1-.8-.2l-.5-2.3h-.1ZM352.3,305.2c.4,1.4-.5,1.3-.5,1.6.1.3.3.2.4.1.6,0,1-.3,1.6-.4l1-.2c.2,0,.2-.1.2-.2,0-.4-1,.3-1.3-1l-.5-2c0-.4-.2-.4.4-.5.5-.2.7-.1,1.1.3l1.3,1.6c.5.6,1,1.3,1.8,1.1.5-.1,1-.5,1-.9h-.2c0-.1-.3,0-.3,0,0,0-.3.1-.4,0l-2.4-2.9.5-.6c.2-.4.4-.9.2-1.6-.1-.5-.7-2.1-3-1.6l-2.1.6-1.2.2c-.2,0-.3.1-.2.2,0,.5,1.1-.2,1.4,1l1.2,5.2ZM361,303.2c.3,1.4-1,1.2-.9,1.6,0,.3.3.2.5.2l1.4-.5,1.5-.3c.3,0,.5,0,.4-.4,0-.3-1.3.4-1.7-1l-1.3-5.3c-.2-.5,0-.6.3-.7l1-.2c1.1-.4,1.1,1,1.5.9.3,0,0-.5,0-.7l-.4-1s0-.3-.2-.2l-3.2.9-3.2.7v1.9c.1.2.1.4.4.4.5-.1-.3-1.6,1-1.9l.8-.2c.4-.1.6,0,.7.5l1.4,5.3ZM366.5,295.9c-.3-1,.6-.9.4-1.3h-.3l-1.4.4-1.2.3s-.3,0-.3.2c.1.4,1.2-.2,1.5.8l1.6,5.6c.2,1-.6,1-.5,1.3,0,.1,0,.2.2.1l1.1-.3,1.6-.4c.3,0,.3-.1.3-.3-.1-.3-1.1.5-1.5-.9l-1.5-5.5ZM368.8,298.6c.7,2.3,2.6,3.4,4.7,2.7,3.2-1.1,3-4.1,2.4-5.7-.8-2.4-2.8-3.3-4.8-2.7-2.4.9-3.2,3.2-2.3,5.7M369.8,297.6c-.6-1.7-.6-3.5,1.1-4,1.3-.5,3,.4,3.9,2.9.6,1.8.5,3.6-1.2,4.2-1.8.6-3.2-1.5-3.8-3.2h0ZM377.4,292.1c-.2-.7,0-.8.4-1,1-.3,2,.3,2.4,1.4.2.6.4,1.3-1.1,1.9-.3,0-.7.2-.8,0l-.9-2.3ZM378.2,297.7c.6,1.4-.4,1.4-.2,1.7,0,.3.2.1.4.1l1.5-.7.9-.2c.2-.1.2-.2.2-.3-.2-.4-1,.4-1.4-.8l-.8-1.9c-.2-.4-.2-.5.3-.7s.7-.1,1.1.3l1.6,1.4c.5.5,1.1,1.1,2,.8.3-.2.9-.7.7-1h-.2c0-.1-.2.1-.2.1h-.5l-2.8-2.5.4-.7c.2-.5.2-1.1,0-1.6-.1-.6-1-2-3.1-1.2l-2,.9-1.2.4-.2.2c.2.4,1.1-.4,1.6.8l2,5h0Z"/>
  </g>
  <g>
    <path class="cls-20" d="M264.1,175.6h52.5v52.5h-52.5v-52.5Z"/>
    <path id="ad-a" class="cls-21" d="M288.8,216.8s0,1.9-.5,3.4q-.6,1.7-1.2,2.6c-.6,1-1.5,1.9-2.4,2.6-1.3.8-2.6,1.2-3.8,1-3.5-.3-5.1-4.1-5.9-7.2-.8-3.3-3.2-5.1-4.8-3.8-.9.6-.9,1.8-.2,2.9.7.8,1.6,1.5,2.6,1.8l-1.9,2.4s-4-.5-4.8-4.7c-.3-1.6.4-4.5,3.1-5.4,3.4-1.2,5.5,1.3,6.6,3.3,1.4,2.8,2,7.9,6,7.2,2.2-.4,3.2-3.6,3.2-5.1l1.5-1.7,2.4.8h0Z"/>
    <path id="ad-a-2" data-name="ad-a" class="cls-21" d="M292,216.8s0,1.9.5,3.4q.6,1.7,1.2,2.6c.6,1,1.5,1.9,2.4,2.6,1.3.8,2.6,1.2,3.8,1,3.5-.3,5.1-4.1,5.9-7.2.8-3.3,3.2-5.1,4.8-3.8.9.6.9,1.8.2,2.9-.7.8-1.6,1.5-2.6,1.8l1.9,2.4s4-.5,4.8-4.7c.3-1.6-.4-4.5-3.1-5.4-3.4-1.2-5.5,1.3-6.6,3.3-1.4,2.8-2,7.9-6,7.2-2.2-.4-3.2-3.6-3.2-5.1l-1.5-1.7-2.4.8h0Z"/>
    <path class="cls-19" d="M295.1,194.6l6.9-7.5s1-.8,1-2.2l-1.4.3-.3-.8v-.7c0,0,1.9-.4,1.9-.4v-.8l.2-.8h-2c0,.1.2-.8.2-.8l.3-.6,1.2-.3h1.2c1.2-2.2,5.9-4.1,9.2-.6,2.4,2.6,1.9,7.2-1.3,8.4-1.5.6-3.2.4-4.4-.7l1.3-2.6c1.7,1.1,3.2-.2,3.1-1.5-.1-1.7-1.3-2.8-2.8-2.9s-2.6.6-3.2,1.9c-.4.8-.2,1.4-.3,2.3-.1,1,0,1.5-.3,2.4-.3.9-.8,1.7-1.5,2.3l-7,7.7-27.5,29.7-2-1.9,27.6-29.9Z"/>
    <path class="cls-21" d="M274.9,197.1s1.7,8.6,7.6,21.4c3-1.1,4.7-1.8,7.9-1.8s4.9.6,7.9,1.8c3.3-6.9,5.8-14,7.6-21.4l-15.5-19.8-15.6,19.8Z"/>
    <path class="cls-19" d="M291.9,183.9l10.8,13.9s-1.4,6.7-5.8,16.8c-1.7-.4-3.2-.7-5-.8v-29.9ZM288.9,183.9l-10.8,13.9s1.4,6.7,5.8,16.8c1.7-.4,3.2-.7,5-.8v-29.9Z"/>
  </g>
  <g>
    <path class="cls-19" d="M322.3,175.5h52.6v52.5h-52.6v-52.5Z"/>
    <path class="cls-20" d="M329.7,175.5h7.8v52.5h-7.8v-52.5ZM344.7,175.5h7.8v52.5h-7.8v-52.5ZM359.7,175.5h7.9v52.5h-7.9v-52.5Z"/>
  </g>
  <g>
    <path class="cls-19" d="M264.3,273.5c.1,1,.5,2.6,1.4,4.3,1,1.5.6,1.4,2.7,3.8,1.2,1.2,2.5,2.2,4,2.9,4.7,2,9.9,2.9,15,2.6,2.7-.1,4.8-.4,6.6-.7,3.6-.5,7.3-.7,11-.6,1.5,0,3,.3,4.7.6,3.5.7,7,2,7,2v-54.7h-52.6v37.3l.2,2.4h0Z"/>
    <path class="cls-25" d="M270.4,283.1l2.5,1.5,3.4,1.2v-52.2h-5.9v49.5ZM299.6,285.5v-51.9h-5.8v52.8l5.8-.7v-.2ZM311.3,233.6h-5.8v52.1c1.9.2,3.8.6,5.8,1v-53.1ZM287.9,233.6v53.4s-3.8.2-5.8,0v-53.4h5.8Z"/>
  </g>
  <g>
    <path class="cls-19" d="M374.7,273.5c-.2,1.5-.7,2.9-1.4,4.2-1,1.5-.6,1.5-2.8,3.8-2.3,2.3-5.2,3.8-8.3,4.5-3.5.9-7.1,1.3-10.6,1-2.8-.1-4.8-.4-6.6-.6-2.4-.4-4.3-.6-7-.6-1.3,0-2.6,0-4,0-4,.5-7.9,1.4-11.7,2.7v-54.9h52.6v37.4l-.2,2.5Z"/>
    <g id="ad-b">
      <path class="cls-20" d="M335.7,238.1h-.4c0,.1-.5.6-.5.6-.3.3-.4.3-.8.5l-.4.3c-.2.2,0,.4-.2.6,0,.3-.2.4-.4.6-.3.3-.4.3-.6.6l-.8.6h-.2c0,0-.4,0-.4,0-.3.1-.3.4-.5.5l.2.4.5.9c.1.2.1.4.3.5.3.1.6.1.8,0,.5.1.8.1,1.3.3l1,.5c.3.2.5.3.8.3h1.2v.2l1.3.6c0,0,0,.2,0,.3,0,.2-.1.4,0,.5.4,1.2.8,1.9,1,2,.4.1.5.6.7,1l-.2.2c-.4.4-.8.6-1.1,1.2-.4.8-.8.8-.2,1.8l1,1.5c.3.4.4.8.5,1.3.1.4.2.8.2,1.3l.6.2.4-.4.4-.8v-.6c-.1,0-.2-.3-.1-.4,0-.3.3-.2.4-.4.2-.3-.3-.5-.4-.7-.4-.4-.9-.6-1-1.2,0-.1,0-.3.3-.4l1.3-1.2c.1,0,.4.1.6,0l.8.3c.4.1.6,0,.8,0h.3v.4c.1.6,0,1.9.2,2.2l.2.4v.4c.1,0,.1,1.3.1,1.3v1.1c-.1.3-.3.4-.4.6-.1.3-.4.3-.6.4v.6l.7.3.8.2.4-.2v-.4c0,0,.4-.3.4-.3.3-.1.5,0,.6,0,.1-.2,0-.3,0-.5,0-.4-.1-.6-.2-1,0-.6-.1-1.2,0-1.8,0-.4,0-.6.1-1,0-.6.3-.9.4-1.4.2-.6.2-1,.3-1.6,2.2.3,4.4.2,6.5-.4.5.4,1.1.8,1.7,1v.6c0,.2,0,.3.1.4l.2.2c.2,0,.3,0,.4-.1s.1-.3.1-.4v-.4h1.2v.7c0,.2.2.3.3.3.1,0,.3,0,.4,0,.2-.1.1-.4.2-.6v-.4l.6-.3c0,.2,0,.4,0,.6l-.2.6c-.1.4-.3.5-.5.9-.3.4-.3.6-.6,1l-.4.4-.4.6-.6.6c-.4.4-.8.1-1.3.6l-.2.6.9.4h.8c0,.1.3,0,.3,0,0-.2,0-.4.2-.5.1-.2.3-.2.4-.3.3,0,.5,0,.6-.1.3-.2.3-.6.4-1,.5-.9,1.1-1.8,1.9-2.5l1.1-.9c.1-.3.3-.3.3-.6v-.4c-.1,0-.3-.6-.3-.6,1,.4.6.4.8.9.2.4,0,.6,0,1.1,0,.5.3.7.3,1.2,0,.6,0,.9-.2,1.5,0,.5,0,.8-.3,1.3-.2.4-.4.7-.7,1l-.4.3v.6c0,0,.6.3.6.3l1,.3.3-.2c.1-.4,0-1.1.3-1.1.3,0,.4,0,.5-.2v-.4l.4-2.9.3-1.2.3-1.1c.4-1.3-.1-1.5-.6-2.3-.3-.4-.4-.6-.4-1v-1.9c0-.6,0-1.2,0-1.8h.3c.8-.6,1.1-.7,1.5-1.7.1-.3.2-.6.2-1v-.6l-.3-.6c-.1-.2-.2-.4-.4-.5-.4-.6-1.1-.7-1.7-1-1-.3-1.6-.3-2.6-.3-1.2-.1-1.7-.1-2.8,0-1.3,0-2,.3-3.3.4l-3.1.3c-1.5,0-2.8-.3-3.7-.3-1.5.1-1.6.5-4,.7-.8,0-1.6.1-2.4.1l-1.4-.4c.6-.2.7-.3,1-.6.2-.3.1-.4.4-.7l.4-.6c-.2-.1-.4-.2-.6-.3h-.6c-.3,0-.5,0-.8.2l-.5.4-1.4-.8c-.6-.3-1.3-.5-1.9-.6h0Z"/>
      <g>
        <path class="cls-9" d="M364,246.1l-.5.2c-.6.3-1,.3-1.7.3-1.7.1-2.8-.7-4.5-.6-.9,0-1.3.8-2.2,1-.4,0-.7.1-1.1.1l.3-.6s-.8.2-1.3.2c-.3,0-.7,0-1-.1l.6-.6h-.8c-.2-.2-.5-.4-.6-.6.4,0,.7-.1,1.1-.2,1-.3,1.3-.8,2.5-.9.7,0,1.9,0,4.9.5,1.9.3,2.8.1,3.5-.2.5-.2.6-.6.7-1.2s-.3-.9-.5-1.2c0,0-.3-.2-.7-.3"/>
        <path class="cls-24" d="M335.9,240.4c-.3,0-.6,0-.8.2-.3.2-.4.4-.6.7.3,0,.5.3.8.2.3,0,.3-.1.5-.3.2-.3.3-.4.3-.8h0Z"/>
        <path class="cls-9" d="M343,248.8c.2.5.4,1,.6,1.5.1.5,0,.8.1,1.3v1M348.2,248.1l-.2.8-.6,2.2v.4M340.3,249.1c.6.1.4,2.1,1.2,2.6"/>
        <path class="cls-3" d="M358.5,252.7l.3-.2c.6-.3,1.2-.7,1.7-1.2"/>
        <path class="cls-9" d="M353.5,251.5c2.2-.6,3.8-1.7,4.9-1.9M355.8,248.7h.5c1-.2,1.1.4,1.7.8,1.2.6,1.3,1.5,2.8,2.2h.3c0,0,.5.3.5.3"/>
        <path class="cls-24" d="M331.3,242.9h1c.2-.1.3-.1.4,0,.1,0,.1,0,.2.2,0,.1.1.2,0,.3,0,.1-.2.3-.4.3s-.3,0-.3-.2c0,0,0-.2,0-.3-.2,0-.4,0-.6,0-.2,0-.3-.2-.4-.3Z"/>
      </g>
      <path class="cls-15" d="M336.1,249.1l-1.3-.6c.3-.1.4-.1.6-.3.2-.3.2-.5.3-.8s.1-.6.4-.9c.2-.1.5-.1.7,0,.3,0,.5.3.6.4,0,.4-.1.6-.2,1,0,.4-.2.6-.1.9,0,.3.1.4.3.6l-1.3-.3h0ZM335.4,249.7c0-.2.1-.4.3-.4s.4.1.4.3c0,.2-.1.4-.3.4-.2,0-.4-.1-.4-.3,0,0,0,0,0,0h0ZM334.3,239.1h-.1c-.3-.3-.3-.5-.4-.8-.1-.2-.2-.5-.2-.8v-1.3c0-.2,0-.4-.1-.6,0-.1-.3-.2-.2-.3,0,0,.2,0,.3,0,.3,0,.4,0,.6.3.2.2.3.4.4.6l.3,1,.2.5.3.4-.4.5-.6.4ZM336.6,245.9l1.4.6c1-.6,1.7-1.4,2.2-2.4.6-1.2.6-1.7.9-2.8l-1.2-.3h-.3c-.3,1.2-.4,1.7-1,2.7-.5.8-1.1,1.5-1.7,1.9l-.4.3ZM339.8,257.5l.5-.8.9-.7h.3c0,.6-.1,1.2-.3,1.8l-.3.6-.3.3c-.3-.5-.8-.8-.8-1.3h0ZM361,258.7l.9.4,1,.6v.3h-1c-.3.1-.6.1-.8.1h-.6l-.4-.3c.3-.4.5-1,.9-1.2h0ZM354.7,257.4l.9.3,1,.6c0,0,0,.2,0,.3-.6.2-1.1.2-1.7.2h-.6c0,0-.4-.3-.4-.3.4-.4.6-1.1,1-1.2M343.6,258.8l1,.3,1,.6v.3c-.6.1-1.2.2-1.8.1h-.6l-.4-.3c.3-.4.5-1,.9-1.2M337.8,239.7c-.4-.2-.6-.6-.4-1,0-.1.3-.1.4-.3.1-.2,0-.3,0-.5v-.6c0,0-.2-.6-.2-.6,0-.4,0-.6.3-1,.1-.2.4-.4.5-.4.1,0,0,.3,0,.5,0,.3,0,.4.2.8l.4.8c.1.4.3.5.3.9s0,.4-.1.8c0,.2-.2.4-.4.5-.1.1-.3.2-.5.3-.1,0-.3,0-.4,0h0Z"/>
    </g>
    <g id="ad-b-2" data-name="ad-b">
      <path class="cls-20" d="M335.7,261.5h-.4c0,.1-.5.6-.5.6-.3.3-.4.3-.8.5l-.4.3c-.2.2,0,.4-.2.6,0,.3-.2.4-.4.6-.3.3-.4.3-.6.6l-.8.6h-.2c0,0-.4,0-.4,0-.3.1-.3.4-.5.5l.2.4.5.9c.1.2.1.4.3.5.3.1.6.1.8,0,.5.1.8.1,1.3.3l1,.5c.3.2.5.3.8.3h1.2v.2l1.3.6c0,0,0,.2,0,.3,0,.2-.1.4,0,.5.4,1.2.8,1.9,1,2,.4.1.5.6.7,1l-.2.2c-.4.4-.8.6-1.1,1.2-.4.8-.8.8-.2,1.8l1,1.5c.3.4.4.8.5,1.3.1.4.2.8.2,1.3l.6.2.4-.4.4-.8v-.6c-.1,0-.2-.3-.1-.4,0-.3.3-.2.4-.4.2-.3-.3-.5-.4-.7-.4-.4-.9-.6-1-1.2,0-.1,0-.3.3-.4l1.3-1.2c.1,0,.4.1.6,0l.8.3c.4.1.6,0,.8,0h.3v.4c.1.6,0,1.9.2,2.2l.2.4v.4c.1,0,.1,1.3.1,1.3v1.1c-.1.3-.3.4-.4.6-.1.3-.4.3-.6.4v.6l.7.3.8.2.4-.2v-.4c0,0,.4-.3.4-.3.3-.1.5,0,.6,0,.1-.2,0-.3,0-.5,0-.4-.1-.6-.2-1,0-.6-.1-1.2,0-1.8,0-.4,0-.6.1-1,0-.6.3-.9.4-1.4.2-.6.2-1,.3-1.6,2.2.3,4.4.2,6.5-.4.5.4,1.1.8,1.7,1v.6c0,.2,0,.3.1.4l.2.2c.2,0,.3,0,.4-.1s.1-.3.1-.4v-.4h1.2v.7c0,.2.2.3.3.3.1,0,.3,0,.4,0,.2-.1.1-.4.2-.6v-.4l.6-.3c0,.2,0,.4,0,.6l-.2.6c-.1.4-.3.5-.5.9-.3.4-.3.6-.6,1l-.4.4-.4.6-.6.6c-.4.4-.8.1-1.3.6l-.2.6.9.4h.8c0,.1.3,0,.3,0,0-.2,0-.4.2-.5.1-.2.3-.2.4-.3.3,0,.5,0,.6-.1.3-.2.3-.6.4-1,.5-.9,1.1-1.8,1.9-2.5l1.1-.9c.1-.3.3-.3.3-.6v-.4c-.1,0-.3-.6-.3-.6,1,.4.6.4.8.9.2.4,0,.6,0,1.1,0,.5.3.7.3,1.2,0,.6,0,.9-.2,1.5,0,.5,0,.8-.3,1.3-.2.4-.4.7-.7,1l-.4.3v.6c0,0,.6.3.6.3l1,.3.3-.2c.1-.4,0-1.1.3-1.1.3,0,.4,0,.5-.2v-.4l.4-2.9.3-1.2.3-1.1c.4-1.3-.1-1.5-.6-2.3-.3-.4-.4-.6-.4-1v-1.9c0-.6,0-1.2,0-1.8h.3c.8-.6,1.1-.7,1.5-1.7.1-.3.2-.6.2-1v-.6l-.3-.6c-.1-.2-.2-.4-.4-.5-.4-.6-1.1-.7-1.7-1-1-.3-1.6-.3-2.6-.3-1.2-.1-1.7-.1-2.8,0-1.3,0-2,.3-3.3.4l-3.1.3c-1.5,0-2.8-.3-3.7-.3-1.5.1-1.6.5-4,.7-.8,0-1.6.1-2.4.1l-1.4-.4c.6-.2.7-.3,1-.6.2-.3.1-.4.4-.7l.4-.6c-.2-.1-.4-.2-.6-.3h-.6c-.3,0-.5,0-.8.2l-.5.4-1.4-.8c-.6-.3-1.3-.5-1.9-.6h0Z"/>
      <g>
        <path class="cls-9" d="M364,269.5l-.5.2c-.6.3-1,.3-1.7.3-1.7.1-2.8-.7-4.5-.6-.9,0-1.3.8-2.2,1-.4,0-.7.1-1.1.1l.3-.6s-.8.2-1.3.2c-.3,0-.7,0-1-.1l.6-.6h-.8c-.2-.2-.5-.4-.6-.6.4,0,.7-.1,1.1-.2,1-.3,1.3-.8,2.5-.9.7,0,1.9,0,4.9.5,1.9.3,2.8.1,3.5-.2.5-.2.6-.6.7-1.2s-.3-.9-.5-1.2c0,0-.3-.2-.7-.3"/>
        <path class="cls-24" d="M335.9,263.8c-.3,0-.6,0-.8.2-.3.2-.4.4-.6.7.3,0,.5.3.8.2.3,0,.3-.1.5-.3.2-.3.3-.4.3-.8h0Z"/>
        <path class="cls-9" d="M343,272.3c.2.5.4,1,.6,1.5.1.5,0,.8.1,1.3v1M348.2,271.6l-.2.8-.6,2.2v.4M340.3,272.5c.6.1.4,2.1,1.2,2.6"/>
        <path class="cls-3" d="M358.5,276.1l.3-.2c.6-.3,1.2-.7,1.7-1.2"/>
        <path class="cls-9" d="M353.5,274.9c2.2-.6,3.8-1.7,4.9-1.9M355.8,272.1h.5c1-.2,1.1.4,1.7.8,1.2.6,1.3,1.5,2.8,2.2h.3c0,0,.5.3.5.3"/>
        <path class="cls-24" d="M331.3,266.3h1c.2-.1.3-.1.4,0,.1,0,.1,0,.2.2,0,.1.1.2,0,.3,0,.1-.2.3-.4.3s-.3,0-.3-.2c0,0,0-.2,0-.3-.2,0-.4,0-.6,0-.2,0-.3-.2-.4-.3Z"/>
      </g>
      <path class="cls-15" d="M336.1,272.5l-1.3-.6c.3-.1.4-.1.6-.3.2-.3.2-.5.3-.8s.1-.6.4-.9c.2-.1.5-.1.7,0,.3,0,.5.3.6.4,0,.4-.1.6-.2,1,0,.4-.2.6-.1.9,0,.3.1.4.3.6l-1.3-.3h0ZM335.4,273.2c0-.2.1-.4.3-.4s.4.1.4.3c0,.2-.1.4-.3.4-.2,0-.4-.1-.4-.3,0,0,0,0,0,0h0ZM334.3,262.5h-.1c-.3-.3-.3-.5-.4-.8-.1-.2-.2-.5-.2-.8v-1.3c0-.2,0-.4-.1-.6,0-.1-.3-.2-.2-.3,0,0,.2,0,.3,0,.3,0,.4,0,.6.3.2.2.3.4.4.6l.3,1,.2.5.3.4-.4.5-.6.4ZM336.6,269.3l1.4.6c1-.6,1.7-1.4,2.2-2.4.6-1.2.6-1.7.9-2.8l-1.2-.3h-.3c-.3,1.2-.4,1.7-1,2.7-.5.8-1.1,1.5-1.7,1.9l-.4.3ZM339.8,281l.5-.8.9-.7h.3c0,.6-.1,1.2-.3,1.8l-.3.6-.3.3c-.3-.5-.8-.8-.8-1.3h0ZM361,282.1l.9.4,1,.6v.3h-1c-.3.1-.6.1-.8.1h-.6l-.4-.3c.3-.4.5-1,.9-1.2h0ZM354.7,280.8l.9.3,1,.6c0,0,0,.2,0,.3-.6.2-1.1.2-1.7.2h-.6c0,0-.4-.3-.4-.3.4-.4.6-1.1,1-1.2M343.6,282.2l1,.3,1,.6v.3c-.6.1-1.2.2-1.8.1h-.6l-.4-.3c.3-.4.5-1,.9-1.2M337.8,263.1c-.4-.2-.6-.6-.4-1,0-.1.3-.1.4-.3.1-.2,0-.3,0-.5v-.6c0,0-.2-.6-.2-.6,0-.4,0-.6.3-1,.1-.2.4-.4.5-.4.1,0,0,.3,0,.5,0,.3,0,.4.2.8l.4.8c.1.4.3.5.3.9s0,.4-.1.8c0,.2-.2.4-.4.5-.1.1-.3.2-.5.3-.1,0-.3,0-.4,0h0Z"/>
    </g>
  </g>
  <path class="cls-4" d="M264.1,175.5h52.6v52.5h-52.6v-52.5ZM322.3,175.5h52.6v52.5h-52.6v-52.5ZM264.3,273.5c.1,1,.5,2.6,1.4,4.3,1,1.5.6,1.4,2.7,3.8,1.2,1.2,2.5,2.2,4,2.9,4.7,2,9.9,2.9,15,2.6,2.7-.1,4.8-.4,6.6-.7,3.6-.5,7.3-.7,11-.6,1.5,0,3,.3,4.7.6,3.5.7,7,2,7,2v-54.7h-52.6v37.3l.2,2.4h0ZM374.7,273.5c-.2,1.5-.7,3-1.4,4.3-1,1.5-.6,1.4-2.7,3.8-1.2,1.2-2.5,2.2-4,2.9-1.3.7-2.3,1-4.4,1.6-3.5.9-7,1.2-10.6,1-2.7-.1-4.8-.5-6.5-.7-2.4-.3-4.8-.5-7.2-.6-1.3,0-2.6,0-3.9,0-1.5,0-3,.3-4.7.6-3.5.7-7,2-7,2v-54.8h52.7v37.5l-.2,2.4h0Z"/>
</svg>