<?xml version="1.0" encoding="UTF-8"?>
<svg id="flag-icons-ad" xmlns="http://www.w3.org/2000/svg" version="1.1" viewBox="0 0 640 480">
  <defs>
    <style>
      .cls-1 {
        fill: #000;
      }

      .cls-1, .cls-2 {
        stroke-width: 0px;
      }

      .cls-3 {
        isolation: isolate;
      }

      .cls-2 {
        fill: #fff;
      }
    </style>
  </defs>
  <rect class="cls-1" y="0" width="640" height="480"/>
  <g class="cls-3">
    <g class="cls-3">
      <path class="cls-2" d="M304.2,306.6c-.1-4.2-.2-7.3-.2-9.4,0-12.2,1.7-22.8,5.2-31.7,2.5-6.7,6.6-13.5,12.3-20.3,4.2-5,11.6-12.2,22.4-21.7,10.8-9.5,17.8-17.1,21-22.8,3.2-5.7,4.8-11.8,4.8-18.5,0-12.1-4.7-22.8-14.2-32-9.5-9.2-21.1-13.8-34.8-13.8s-24.4,4.2-33.3,12.5c-8.9,8.3-14.7,21.3-17.5,39l-32-3.8c2.9-23.7,11.5-41.8,25.7-54.4,14.3-12.6,33.1-18.9,56.5-18.9s44.6,6.8,59.4,20.3c14.8,13.5,22.2,29.8,22.2,49s-2.6,21.3-7.8,30.7-15.4,20.7-30.5,34.1c-10.2,9-16.8,15.6-19.9,19.9-3.1,4.3-5.4,9.2-6.9,14.7-1.5,5.5-2.4,14.5-2.6,27h-30ZM302.3,369.1v-35.5h35.5v35.5h-35.5Z"/>
    </g>
  </g>
</svg>